<svg width="408" height="150" viewBox="0 0 408 150" fill="none" xmlns="http://www.w3.org/2000/svg">
<path d="M0 16C0 7.16345 7.16344 0 16 0H392C400.837 0 408 7.16344 408 16V134C408 142.837 400.837 150 392 150H16C7.16344 150 0 142.837 0 134V16Z" fill="#3E3E3E"/>
<path d="M59.5 82C68.4746 82 75.75 74.7246 75.75 65.75C75.75 56.7754 68.4746 49.5 59.5 49.5C50.5254 49.5 43.25 56.7754 43.25 65.75C43.25 74.7246 50.5254 82 59.5 82Z" stroke="black" stroke-width="2" stroke-miterlimit="10"/>
<path d="M80.5664 50.1054C82.8015 49.4756 85.1455 49.3322 87.4407 49.6847C89.7359 50.0371 91.9289 50.8774 93.872 52.1487C95.8151 53.4201 97.4632 55.0932 98.7052 57.0551C99.9473 59.0171 100.755 61.2224 101.073 63.5226C101.391 65.8228 101.212 68.1645 100.549 70.3899C99.8855 72.6152 98.7531 74.6726 97.2278 76.4235C95.7025 78.1743 93.8197 79.578 91.7063 80.54C89.5928 81.5019 87.2977 81.9998 84.9757 82.0001" stroke="black" stroke-width="2" stroke-linecap="round" stroke-linejoin="round"/>
<path d="M36.999 93.6865C39.5369 90.0765 42.9062 87.1301 46.8223 85.0961C50.7384 83.0621 55.0864 82.0002 59.4993 82C63.9121 81.9998 68.2602 83.0614 72.1765 85.0951C76.0928 87.1288 79.4622 90.0749 82.0004 93.6848" stroke="black" stroke-width="2" stroke-linecap="round" stroke-linejoin="round"/>
<path d="M84.9766 82C89.3898 81.9968 93.7388 83.0571 97.6554 85.0911C101.572 87.125 104.941 90.0728 107.477 93.6848" stroke="black" stroke-width="2" stroke-linecap="round" stroke-linejoin="round"/>
<path d="M145.98 59V41.9375H150.797C152.281 41.9375 153.594 42.2656 154.734 42.9219C155.875 43.5781 156.754 44.5117 157.371 45.7227C157.996 46.9336 158.312 48.3242 158.32 49.8945V50.9844C158.32 52.5938 158.008 54.0039 157.383 55.2148C156.766 56.4258 155.879 57.3555 154.723 58.0039C153.574 58.6523 152.234 58.9844 150.703 59H145.98ZM148.23 43.7891V57.1602H150.598C152.332 57.1602 153.68 56.6211 154.641 55.543C155.609 54.4648 156.094 52.9297 156.094 50.9375V49.9414C156.094 48.0039 155.637 46.5 154.723 45.4297C153.816 44.3516 152.527 43.8047 150.855 43.7891H148.23ZM163.746 59H161.578V46.3203H163.746V59ZM161.402 42.957C161.402 42.6055 161.508 42.3086 161.719 42.0664C161.938 41.8242 162.258 41.7031 162.68 41.7031C163.102 41.7031 163.422 41.8242 163.641 42.0664C163.859 42.3086 163.969 42.6055 163.969 42.957C163.969 43.3086 163.859 43.6016 163.641 43.8359C163.422 44.0703 163.102 44.1875 162.68 44.1875C162.258 44.1875 161.938 44.0703 161.719 43.8359C161.508 43.6016 161.402 43.3086 161.402 42.957ZM173.355 48.2656C173.027 48.2109 172.672 48.1836 172.289 48.1836C170.867 48.1836 169.902 48.7891 169.395 50V59H167.227V46.3203H169.336L169.371 47.7852C170.082 46.6523 171.09 46.0859 172.395 46.0859C172.816 46.0859 173.137 46.1406 173.355 46.25V48.2656ZM180.387 59.2344C178.668 59.2344 177.27 58.6719 176.191 57.5469C175.113 56.4141 174.574 54.9023 174.574 53.0117V52.6133C174.574 51.3555 174.812 50.2344 175.289 49.25C175.773 48.2578 176.445 47.4844 177.305 46.9297C178.172 46.3672 179.109 46.0859 180.117 46.0859C181.766 46.0859 183.047 46.6289 183.961 47.7148C184.875 48.8008 185.332 50.3555 185.332 52.3789V53.2812H176.742C176.773 54.5312 177.137 55.543 177.832 56.3164C178.535 57.082 179.426 57.4648 180.504 57.4648C181.27 57.4648 181.918 57.3086 182.449 56.9961C182.98 56.6836 183.445 56.2695 183.844 55.7539L185.168 56.7852C184.105 58.418 182.512 59.2344 180.387 59.2344ZM180.117 47.8672C179.242 47.8672 178.508 48.1875 177.914 48.8281C177.32 49.4609 176.953 50.3516 176.812 51.5H183.164V51.3359C183.102 50.2344 182.805 49.3828 182.273 48.7812C181.742 48.1719 181.023 47.8672 180.117 47.8672ZM192.938 57.4648C193.711 57.4648 194.387 57.2305 194.965 56.7617C195.543 56.293 195.863 55.707 195.926 55.0039H197.977C197.938 55.7305 197.688 56.4219 197.227 57.0781C196.766 57.7344 196.148 58.2578 195.375 58.6484C194.609 59.0391 193.797 59.2344 192.938 59.2344C191.211 59.2344 189.836 58.6602 188.812 57.5117C187.797 56.3555 187.289 54.7773 187.289 52.7773V52.4141C187.289 51.1797 187.516 50.082 187.969 49.1211C188.422 48.1602 189.07 47.4141 189.914 46.8828C190.766 46.3516 191.77 46.0859 192.926 46.0859C194.348 46.0859 195.527 46.5117 196.465 47.3633C197.41 48.2148 197.914 49.3203 197.977 50.6797H195.926C195.863 49.8594 195.551 49.1875 194.988 48.6641C194.434 48.1328 193.746 47.8672 192.926 47.8672C191.824 47.8672 190.969 48.2656 190.359 49.0625C189.758 49.8516 189.457 50.9961 189.457 52.4961V52.9062C189.457 54.3672 189.758 55.4922 190.359 56.2812C190.961 57.0703 191.82 57.4648 192.938 57.4648ZM203.355 43.25V46.3203H205.723V47.9961H203.355V55.8594C203.355 56.3672 203.461 56.75 203.672 57.0078C203.883 57.2578 204.242 57.3828 204.75 57.3828C205 57.3828 205.344 57.3359 205.781 57.2422V59C205.211 59.1562 204.656 59.2344 204.117 59.2344C203.148 59.2344 202.418 58.9414 201.926 58.3555C201.434 57.7695 201.188 56.9375 201.188 55.8594V47.9961H198.879V46.3203H201.188V43.25H203.355ZM207.457 52.543C207.457 51.3008 207.699 50.1836 208.184 49.1914C208.676 48.1992 209.355 47.4336 210.223 46.8945C211.098 46.3555 212.094 46.0859 213.211 46.0859C214.938 46.0859 216.332 46.6836 217.395 47.8789C218.465 49.0742 219 50.6641 219 52.6484V52.8008C219 54.0352 218.762 55.1445 218.285 56.1289C217.816 57.1055 217.141 57.8672 216.258 58.4141C215.383 58.9609 214.375 59.2344 213.234 59.2344C211.516 59.2344 210.121 58.6367 209.051 57.4414C207.988 56.2461 207.457 54.6641 207.457 52.6953V52.543ZM209.637 52.8008C209.637 54.207 209.961 55.3359 210.609 56.1875C211.266 57.0391 212.141 57.4648 213.234 57.4648C214.336 57.4648 215.211 57.0352 215.859 56.1758C216.508 55.3086 216.832 54.0977 216.832 52.543C216.832 51.1523 216.5 50.0273 215.836 49.168C215.18 48.3008 214.305 47.8672 213.211 47.8672C212.141 47.8672 211.277 48.293 210.621 49.1445C209.965 49.9961 209.637 51.2148 209.637 52.8008ZM227.848 48.2656C227.52 48.2109 227.164 48.1836 226.781 48.1836C225.359 48.1836 224.395 48.7891 223.887 50V59H221.719V46.3203H223.828L223.863 47.7852C224.574 46.6523 225.582 46.0859 226.887 46.0859C227.309 46.0859 227.629 46.1406 227.848 46.25V48.2656ZM234.211 55.8242L237.164 46.3203H239.484L234.387 60.957C233.598 63.0664 232.344 64.1211 230.625 64.1211L230.215 64.0859L229.406 63.9336V62.1758L229.992 62.2227C230.727 62.2227 231.297 62.0742 231.703 61.7773C232.117 61.4805 232.457 60.9375 232.723 60.1484L233.203 58.8594L228.68 46.3203H231.047L234.211 55.8242Z" fill="#FFFEF8"/>
<path d="M147.005 74.9141V87H145.403V74.9141H147.005ZM152.068 80.3511V81.6626H146.656V80.3511H152.068ZM152.89 74.9141V76.2256H146.656V74.9141H152.89ZM156.235 78.0186V87H154.691V78.0186H156.235ZM154.575 75.6362C154.575 75.3872 154.65 75.1769 154.799 75.0054C154.954 74.8338 155.181 74.748 155.48 74.748C155.773 74.748 155.997 74.8338 156.152 75.0054C156.313 75.1769 156.393 75.3872 156.393 75.6362C156.393 75.8742 156.313 76.0789 156.152 76.2505C155.997 76.4165 155.773 76.4995 155.48 76.4995C155.181 76.4995 154.954 76.4165 154.799 76.2505C154.65 76.0789 154.575 75.8742 154.575 75.6362ZM160.236 79.936V87H158.701V78.0186H160.153L160.236 79.936ZM159.871 82.1689L159.232 82.144C159.237 81.5298 159.329 80.9626 159.506 80.4424C159.683 79.9167 159.932 79.4601 160.253 79.0728C160.574 78.6854 160.956 78.3866 161.398 78.1763C161.847 77.9604 162.342 77.8525 162.884 77.8525C163.327 77.8525 163.725 77.9134 164.08 78.0352C164.434 78.1514 164.735 78.3395 164.984 78.5996C165.239 78.8597 165.433 79.1973 165.565 79.6123C165.698 80.0218 165.765 80.5226 165.765 81.1147V87H164.221V81.0981C164.221 80.6278 164.152 80.2515 164.013 79.9692C163.875 79.6815 163.673 79.474 163.407 79.3467C163.142 79.2139 162.815 79.1475 162.428 79.1475C162.046 79.1475 161.697 79.2277 161.382 79.3882C161.072 79.5487 160.804 79.77 160.577 80.0522C160.355 80.3345 160.181 80.6582 160.054 81.0234C159.932 81.3831 159.871 81.765 159.871 82.1689ZM173.758 85.2568V74.25H175.302V87H173.891L173.758 85.2568ZM167.715 82.6089V82.4346C167.715 81.7484 167.798 81.1258 167.964 80.5669C168.136 80.0024 168.377 79.5182 168.687 79.1143C169.002 78.7103 169.375 78.4004 169.807 78.1846C170.244 77.9632 170.731 77.8525 171.268 77.8525C171.833 77.8525 172.325 77.9521 172.746 78.1514C173.172 78.3451 173.531 78.63 173.825 79.0063C174.124 79.3771 174.359 79.8254 174.53 80.3511C174.702 80.8768 174.821 81.4717 174.887 82.1357V82.8994C174.826 83.5579 174.707 84.1501 174.53 84.6758C174.359 85.2015 174.124 85.6497 173.825 86.0205C173.531 86.3913 173.172 86.6763 172.746 86.8755C172.319 87.0692 171.821 87.166 171.251 87.166C170.726 87.166 170.244 87.0526 169.807 86.8257C169.375 86.5988 169.002 86.2806 168.687 85.8711C168.377 85.4616 168.136 84.9801 167.964 84.4268C167.798 83.8678 167.715 83.2619 167.715 82.6089ZM169.259 82.4346V82.6089C169.259 83.0571 169.304 83.4777 169.392 83.8706C169.486 84.2635 169.63 84.6094 169.824 84.9082C170.017 85.207 170.264 85.4422 170.562 85.6138C170.861 85.7798 171.218 85.8628 171.633 85.8628C172.142 85.8628 172.56 85.7549 172.887 85.5391C173.219 85.3232 173.484 85.0382 173.684 84.6841C173.883 84.3299 174.038 83.9453 174.148 83.5303V81.5298C174.082 81.2254 173.985 80.9321 173.858 80.6499C173.736 80.3621 173.576 80.1076 173.376 79.8862C173.183 79.6593 172.942 79.4795 172.654 79.3467C172.372 79.2139 172.037 79.1475 171.65 79.1475C171.229 79.1475 170.867 79.236 170.562 79.4131C170.264 79.5846 170.017 79.8226 169.824 80.127C169.63 80.4258 169.486 80.7744 169.392 81.1729C169.304 81.5658 169.259 81.9863 169.259 82.4346ZM184.184 85.4062L186.492 78.0186H187.504L187.305 79.4878L184.956 87H183.968L184.184 85.4062ZM182.632 78.0186L184.599 85.4893L184.74 87H183.703L181.096 78.0186H182.632ZM189.712 85.4312L191.588 78.0186H193.116L190.509 87H189.48L189.712 85.4312ZM187.729 78.0186L189.986 85.2817L190.244 87H189.264L186.849 79.4712L186.649 78.0186H187.729ZM194.286 82.6089V82.418C194.286 81.7705 194.38 81.1701 194.568 80.6167C194.757 80.0578 195.028 79.5736 195.382 79.1641C195.736 78.749 196.165 78.4281 196.668 78.2012C197.172 77.9688 197.736 77.8525 198.362 77.8525C198.993 77.8525 199.56 77.9688 200.063 78.2012C200.573 78.4281 201.004 78.749 201.358 79.1641C201.718 79.5736 201.992 80.0578 202.18 80.6167C202.368 81.1701 202.462 81.7705 202.462 82.418V82.6089C202.462 83.2563 202.368 83.8568 202.18 84.4102C201.992 84.9635 201.718 85.4478 201.358 85.8628C201.004 86.2723 200.575 86.5933 200.072 86.8257C199.574 87.0526 199.009 87.166 198.378 87.166C197.748 87.166 197.18 87.0526 196.677 86.8257C196.173 86.5933 195.742 86.2723 195.382 85.8628C195.028 85.4478 194.757 84.9635 194.568 84.4102C194.38 83.8568 194.286 83.2563 194.286 82.6089ZM195.822 82.418V82.6089C195.822 83.0571 195.874 83.4805 195.979 83.8789C196.085 84.2718 196.242 84.6204 196.453 84.9248C196.668 85.2292 196.937 85.4699 197.258 85.647C197.579 85.8185 197.952 85.9043 198.378 85.9043C198.799 85.9043 199.167 85.8185 199.482 85.647C199.803 85.4699 200.069 85.2292 200.279 84.9248C200.49 84.6204 200.647 84.2718 200.752 83.8789C200.863 83.4805 200.918 83.0571 200.918 82.6089V82.418C200.918 81.9753 200.863 81.5575 200.752 81.1646C200.647 80.7661 200.487 80.4147 200.271 80.1104C200.061 79.8005 199.795 79.557 199.474 79.3799C199.159 79.2028 198.788 79.1143 198.362 79.1143C197.941 79.1143 197.57 79.2028 197.25 79.3799C196.934 79.557 196.668 79.8005 196.453 80.1104C196.242 80.4147 196.085 80.7661 195.979 81.1646C195.874 81.5575 195.822 81.9753 195.822 82.418ZM205.924 79.4297V87H204.388V78.0186H205.882L205.924 79.4297ZM208.729 77.9688L208.721 79.3965C208.594 79.3688 208.472 79.3522 208.356 79.3467C208.245 79.3356 208.118 79.3301 207.974 79.3301C207.62 79.3301 207.307 79.3854 207.036 79.4961C206.765 79.6068 206.535 79.7617 206.347 79.9609C206.159 80.1602 206.01 80.3981 205.899 80.6748C205.794 80.946 205.725 81.2448 205.691 81.5713L205.26 81.8203C205.26 81.278 205.312 80.7689 205.417 80.293C205.528 79.8171 205.697 79.3965 205.924 79.0312C206.151 78.6605 206.438 78.3727 206.787 78.168C207.141 77.9577 207.562 77.8525 208.049 77.8525C208.16 77.8525 208.287 77.8664 208.431 77.894C208.575 77.9162 208.674 77.9411 208.729 77.9688ZM211.693 74.25V87H210.149V74.25H211.693ZM217.18 78.0186L213.262 82.2104L211.07 84.4849L210.946 82.8496L212.515 80.9736L215.304 78.0186H217.18ZM215.777 87L212.573 82.7168L213.37 81.3472L217.586 87H215.777ZM224.65 78.0186V87H223.106V78.0186H224.65ZM222.99 75.6362C222.99 75.3872 223.065 75.1769 223.214 75.0054C223.369 74.8338 223.596 74.748 223.895 74.748C224.188 74.748 224.412 74.8338 224.567 75.0054C224.728 75.1769 224.808 75.3872 224.808 75.6362C224.808 75.8742 224.728 76.0789 224.567 76.2505C224.412 76.4165 224.188 76.4995 223.895 76.4995C223.596 76.4995 223.369 76.4165 223.214 76.2505C223.065 76.0789 222.99 75.8742 222.99 75.6362ZM228.651 79.936V87H227.116V78.0186H228.568L228.651 79.936ZM228.286 82.1689L227.647 82.144C227.653 81.5298 227.744 80.9626 227.921 80.4424C228.098 79.9167 228.347 79.4601 228.668 79.0728C228.989 78.6854 229.371 78.3866 229.813 78.1763C230.262 77.9604 230.757 77.8525 231.299 77.8525C231.742 77.8525 232.14 77.9134 232.495 78.0352C232.849 78.1514 233.15 78.3395 233.399 78.5996C233.654 78.8597 233.848 79.1973 233.98 79.6123C234.113 80.0218 234.18 80.5226 234.18 81.1147V87H232.636V81.0981C232.636 80.6278 232.567 80.2515 232.428 79.9692C232.29 79.6815 232.088 79.474 231.822 79.3467C231.557 79.2139 231.23 79.1475 230.843 79.1475C230.461 79.1475 230.112 79.2277 229.797 79.3882C229.487 79.5487 229.219 79.77 228.992 80.0522C228.77 80.3345 228.596 80.6582 228.469 81.0234C228.347 81.3831 228.286 81.765 228.286 82.1689ZM238.803 87H237.268V77.0723C237.268 76.4248 237.384 75.8797 237.616 75.437C237.854 74.9888 238.194 74.6512 238.637 74.4243C239.08 74.1919 239.606 74.0757 240.214 74.0757C240.391 74.0757 240.569 74.0868 240.746 74.1089C240.928 74.131 241.105 74.1642 241.277 74.2085L241.194 75.4619C241.078 75.4342 240.945 75.4149 240.795 75.4038C240.652 75.3927 240.508 75.3872 240.364 75.3872C240.037 75.3872 239.755 75.4536 239.517 75.5864C239.285 75.7137 239.108 75.9019 238.986 76.1509C238.864 76.3999 238.803 76.707 238.803 77.0723V87ZM240.712 78.0186V79.1973H235.848V78.0186H240.712ZM242.016 82.6089V82.418C242.016 81.7705 242.11 81.1701 242.298 80.6167C242.486 80.0578 242.757 79.5736 243.111 79.1641C243.465 78.749 243.894 78.4281 244.398 78.2012C244.902 77.9688 245.466 77.8525 246.091 77.8525C246.722 77.8525 247.289 77.9688 247.793 78.2012C248.302 78.4281 248.734 78.749 249.088 79.1641C249.448 79.5736 249.722 80.0578 249.91 80.6167C250.098 81.1701 250.192 81.7705 250.192 82.418V82.6089C250.192 83.2563 250.098 83.8568 249.91 84.4102C249.722 84.9635 249.448 85.4478 249.088 85.8628C248.734 86.2723 248.305 86.5933 247.801 86.8257C247.303 87.0526 246.739 87.166 246.108 87.166C245.477 87.166 244.91 87.0526 244.406 86.8257C243.903 86.5933 243.471 86.2723 243.111 85.8628C242.757 85.4478 242.486 84.9635 242.298 84.4102C242.11 83.8568 242.016 83.2563 242.016 82.6089ZM243.551 82.418V82.6089C243.551 83.0571 243.604 83.4805 243.709 83.8789C243.814 84.2718 243.972 84.6204 244.182 84.9248C244.398 85.2292 244.666 85.4699 244.987 85.647C245.308 85.8185 245.682 85.9043 246.108 85.9043C246.528 85.9043 246.896 85.8185 247.212 85.647C247.533 85.4699 247.799 85.2292 248.009 84.9248C248.219 84.6204 248.377 84.2718 248.482 83.8789C248.593 83.4805 248.648 83.0571 248.648 82.6089V82.418C248.648 81.9753 248.593 81.5575 248.482 81.1646C248.377 80.7661 248.216 80.4147 248 80.1104C247.79 79.8005 247.525 79.557 247.204 79.3799C246.888 79.2028 246.517 79.1143 246.091 79.1143C245.671 79.1143 245.3 79.2028 244.979 79.3799C244.664 79.557 244.398 79.8005 244.182 80.1104C243.972 80.4147 243.814 80.7661 243.709 81.1646C243.604 81.5575 243.551 81.9753 243.551 82.418ZM255.928 82.6089V82.418C255.928 81.7705 256.022 81.1701 256.21 80.6167C256.398 80.0578 256.669 79.5736 257.023 79.1641C257.378 78.749 257.806 78.4281 258.31 78.2012C258.814 77.9688 259.378 77.8525 260.003 77.8525C260.634 77.8525 261.201 77.9688 261.705 78.2012C262.214 78.4281 262.646 78.749 263 79.1641C263.36 79.5736 263.634 80.0578 263.822 80.6167C264.01 81.1701 264.104 81.7705 264.104 82.418V82.6089C264.104 83.2563 264.01 83.8568 263.822 84.4102C263.634 84.9635 263.36 85.4478 263 85.8628C262.646 86.2723 262.217 86.5933 261.713 86.8257C261.215 87.0526 260.651 87.166 260.02 87.166C259.389 87.166 258.822 87.0526 258.318 86.8257C257.815 86.5933 257.383 86.2723 257.023 85.8628C256.669 85.4478 256.398 84.9635 256.21 84.4102C256.022 83.8568 255.928 83.2563 255.928 82.6089ZM257.463 82.418V82.6089C257.463 83.0571 257.516 83.4805 257.621 83.8789C257.726 84.2718 257.884 84.6204 258.094 84.9248C258.31 85.2292 258.578 85.4699 258.899 85.647C259.22 85.8185 259.594 85.9043 260.02 85.9043C260.441 85.9043 260.809 85.8185 261.124 85.647C261.445 85.4699 261.711 85.2292 261.921 84.9248C262.131 84.6204 262.289 84.2718 262.394 83.8789C262.505 83.4805 262.56 83.0571 262.56 82.6089V82.418C262.56 81.9753 262.505 81.5575 262.394 81.1646C262.289 80.7661 262.128 80.4147 261.913 80.1104C261.702 79.8005 261.437 79.557 261.116 79.3799C260.8 79.2028 260.43 79.1143 260.003 79.1143C259.583 79.1143 259.212 79.2028 258.891 79.3799C258.576 79.557 258.31 79.8005 258.094 80.1104C257.884 80.4147 257.726 80.7661 257.621 81.1646C257.516 81.5575 257.463 81.9753 257.463 82.418ZM267.565 79.936V87H266.03V78.0186H267.482L267.565 79.936ZM267.2 82.1689L266.561 82.144C266.567 81.5298 266.658 80.9626 266.835 80.4424C267.012 79.9167 267.261 79.4601 267.582 79.0728C267.903 78.6854 268.285 78.3866 268.728 78.1763C269.176 77.9604 269.671 77.8525 270.213 77.8525C270.656 77.8525 271.055 77.9134 271.409 78.0352C271.763 78.1514 272.064 78.3395 272.313 78.5996C272.568 78.8597 272.762 79.1973 272.895 79.6123C273.027 80.0218 273.094 80.5226 273.094 81.1147V87H271.55V81.0981C271.55 80.6278 271.481 80.2515 271.342 79.9692C271.204 79.6815 271.002 79.474 270.736 79.3467C270.471 79.2139 270.144 79.1475 269.757 79.1475C269.375 79.1475 269.026 79.2277 268.711 79.3882C268.401 79.5487 268.133 79.77 267.906 80.0522C267.684 80.3345 267.51 80.6582 267.383 81.0234C267.261 81.3831 267.2 81.765 267.2 82.1689ZM284.939 85.4644V80.8408C284.939 80.4867 284.867 80.1795 284.723 79.9194C284.585 79.6538 284.375 79.4491 284.092 79.3052C283.81 79.1613 283.461 79.0894 283.046 79.0894C282.659 79.0894 282.319 79.1558 282.025 79.2886C281.738 79.4214 281.511 79.5957 281.345 79.8115C281.184 80.0273 281.104 80.2598 281.104 80.5088H279.568C279.568 80.1878 279.651 79.8696 279.817 79.5542C279.983 79.2388 280.221 78.9538 280.531 78.6992C280.847 78.4391 281.223 78.2344 281.66 78.085C282.103 77.93 282.595 77.8525 283.138 77.8525C283.791 77.8525 284.366 77.9632 284.864 78.1846C285.368 78.4059 285.761 78.7407 286.043 79.189C286.331 79.6317 286.475 80.1878 286.475 80.8574V85.041C286.475 85.3398 286.5 85.658 286.549 85.9956C286.605 86.3332 286.685 86.6237 286.79 86.8672V87H285.188C285.111 86.8229 285.05 86.5877 285.005 86.2944C284.961 85.9956 284.939 85.7189 284.939 85.4644ZM285.205 81.5547L285.221 82.6338H283.669C283.232 82.6338 282.842 82.6698 282.499 82.7417C282.155 82.8081 281.868 82.9105 281.635 83.0488C281.403 83.1872 281.226 83.3615 281.104 83.5718C280.982 83.7765 280.921 84.0173 280.921 84.2939C280.921 84.5762 280.985 84.8335 281.112 85.0659C281.24 85.2983 281.431 85.4837 281.685 85.6221C281.945 85.7549 282.263 85.8213 282.64 85.8213C283.11 85.8213 283.525 85.7217 283.885 85.5225C284.244 85.3232 284.529 85.0798 284.74 84.792C284.956 84.5042 285.072 84.2248 285.088 83.9536L285.744 84.6924C285.705 84.9248 285.6 85.1821 285.429 85.4644C285.257 85.7466 285.028 86.0177 284.74 86.2778C284.458 86.5324 284.12 86.7454 283.727 86.917C283.34 87.083 282.903 87.166 282.416 87.166C281.807 87.166 281.273 87.047 280.813 86.8091C280.36 86.5711 280.006 86.2529 279.751 85.8545C279.502 85.4505 279.377 84.9995 279.377 84.5015C279.377 84.02 279.472 83.5967 279.66 83.2314C279.848 82.8607 280.119 82.5535 280.473 82.3101C280.827 82.061 281.253 81.8729 281.751 81.7456C282.25 81.6183 282.806 81.5547 283.42 81.5547H285.205ZM290.559 74.25V87H289.015V74.25H290.559ZM294.692 74.25V87H293.148V74.25H294.692ZM147.694 110.07L150.192 102.019H151.836L148.233 112.386C148.15 112.608 148.04 112.846 147.901 113.1C147.769 113.36 147.597 113.606 147.387 113.839C147.176 114.071 146.922 114.259 146.623 114.403C146.33 114.553 145.978 114.627 145.569 114.627C145.447 114.627 145.292 114.611 145.104 114.578C144.916 114.544 144.783 114.517 144.706 114.495L144.697 113.25C144.742 113.255 144.811 113.261 144.905 113.266C145.004 113.277 145.074 113.283 145.112 113.283C145.461 113.283 145.757 113.236 146 113.142C146.244 113.053 146.449 112.901 146.615 112.685C146.786 112.475 146.933 112.184 147.055 111.813L147.694 110.07ZM145.859 102.019L148.192 108.991L148.59 110.61L147.486 111.174L144.183 102.019H145.859ZM152.683 106.609V106.418C152.683 105.771 152.777 105.17 152.965 104.617C153.153 104.058 153.424 103.574 153.778 103.164C154.132 102.749 154.561 102.428 155.065 102.201C155.569 101.969 156.133 101.853 156.758 101.853C157.389 101.853 157.956 101.969 158.46 102.201C158.969 102.428 159.401 102.749 159.755 103.164C160.115 103.574 160.389 104.058 160.577 104.617C160.765 105.17 160.859 105.771 160.859 106.418V106.609C160.859 107.256 160.765 107.857 160.577 108.41C160.389 108.964 160.115 109.448 159.755 109.863C159.401 110.272 158.972 110.593 158.468 110.826C157.97 111.053 157.406 111.166 156.775 111.166C156.144 111.166 155.577 111.053 155.073 110.826C154.57 110.593 154.138 110.272 153.778 109.863C153.424 109.448 153.153 108.964 152.965 108.41C152.777 107.857 152.683 107.256 152.683 106.609ZM154.218 106.418V106.609C154.218 107.057 154.271 107.48 154.376 107.879C154.481 108.272 154.639 108.62 154.849 108.925C155.065 109.229 155.333 109.47 155.654 109.647C155.975 109.819 156.349 109.904 156.775 109.904C157.195 109.904 157.563 109.819 157.879 109.647C158.2 109.47 158.465 109.229 158.676 108.925C158.886 108.62 159.044 108.272 159.149 107.879C159.26 107.48 159.315 107.057 159.315 106.609V106.418C159.315 105.975 159.26 105.557 159.149 105.165C159.044 104.766 158.883 104.415 158.667 104.11C158.457 103.8 158.192 103.557 157.871 103.38C157.555 103.203 157.184 103.114 156.758 103.114C156.338 103.114 155.967 103.203 155.646 103.38C155.331 103.557 155.065 103.8 154.849 104.11C154.639 104.415 154.481 104.766 154.376 105.165C154.271 105.557 154.218 105.975 154.218 106.418ZM168.28 108.925V102.019H169.824V111H168.354L168.28 108.925ZM168.57 107.032L169.209 107.016C169.209 107.613 169.146 108.167 169.019 108.676C168.897 109.179 168.698 109.617 168.421 109.987C168.144 110.358 167.782 110.649 167.333 110.859C166.885 111.064 166.34 111.166 165.698 111.166C165.261 111.166 164.86 111.102 164.495 110.975C164.135 110.848 163.825 110.651 163.565 110.386C163.305 110.12 163.103 109.774 162.959 109.348C162.821 108.922 162.751 108.41 162.751 107.812V102.019H164.287V107.829C164.287 108.233 164.331 108.568 164.42 108.833C164.514 109.094 164.639 109.301 164.793 109.456C164.954 109.605 165.131 109.711 165.325 109.771C165.524 109.832 165.729 109.863 165.939 109.863C166.592 109.863 167.109 109.738 167.491 109.489C167.873 109.235 168.147 108.894 168.313 108.468C168.485 108.037 168.57 107.558 168.57 107.032ZM173.7 103.43V111H172.165V102.019H173.659L173.7 103.43ZM176.506 101.969L176.498 103.396C176.37 103.369 176.249 103.352 176.132 103.347C176.022 103.336 175.894 103.33 175.75 103.33C175.396 103.33 175.084 103.385 174.812 103.496C174.541 103.607 174.312 103.762 174.124 103.961C173.935 104.16 173.786 104.398 173.675 104.675C173.57 104.946 173.501 105.245 173.468 105.571L173.036 105.82C173.036 105.278 173.089 104.769 173.194 104.293C173.305 103.817 173.473 103.396 173.7 103.031C173.927 102.66 174.215 102.373 174.563 102.168C174.918 101.958 175.338 101.853 175.825 101.853C175.936 101.853 176.063 101.866 176.207 101.894C176.351 101.916 176.451 101.941 176.506 101.969ZM183.678 103.745V114.453H182.134V102.019H183.545L183.678 103.745ZM189.729 106.435V106.609C189.729 107.262 189.652 107.868 189.497 108.427C189.342 108.98 189.115 109.462 188.816 109.871C188.523 110.281 188.16 110.599 187.729 110.826C187.297 111.053 186.802 111.166 186.243 111.166C185.673 111.166 185.169 111.072 184.732 110.884C184.295 110.696 183.924 110.422 183.62 110.062C183.315 109.702 183.072 109.271 182.889 108.767C182.712 108.264 182.59 107.696 182.524 107.065V106.136C182.59 105.472 182.715 104.877 182.897 104.351C183.08 103.825 183.321 103.377 183.62 103.006C183.924 102.63 184.292 102.345 184.724 102.151C185.155 101.952 185.653 101.853 186.218 101.853C186.782 101.853 187.283 101.963 187.72 102.185C188.157 102.4 188.525 102.71 188.824 103.114C189.123 103.518 189.347 104.002 189.497 104.567C189.652 105.126 189.729 105.748 189.729 106.435ZM188.185 106.609V106.435C188.185 105.986 188.138 105.566 188.044 105.173C187.95 104.774 187.803 104.426 187.604 104.127C187.41 103.823 187.161 103.585 186.857 103.413C186.553 103.236 186.19 103.147 185.77 103.147C185.382 103.147 185.045 103.214 184.757 103.347C184.475 103.479 184.234 103.659 184.035 103.886C183.835 104.108 183.672 104.362 183.545 104.65C183.423 104.932 183.332 105.225 183.271 105.53V107.68C183.382 108.067 183.537 108.432 183.736 108.775C183.935 109.113 184.201 109.387 184.533 109.597C184.865 109.802 185.283 109.904 185.786 109.904C186.201 109.904 186.558 109.819 186.857 109.647C187.161 109.47 187.41 109.229 187.604 108.925C187.803 108.62 187.95 108.272 188.044 107.879C188.138 107.48 188.185 107.057 188.185 106.609ZM195.415 111.166C194.79 111.166 194.222 111.061 193.713 110.851C193.21 110.635 192.775 110.333 192.41 109.946C192.05 109.558 191.774 109.099 191.58 108.568C191.386 108.037 191.29 107.456 191.29 106.825V106.476C191.29 105.746 191.397 105.095 191.613 104.525C191.829 103.95 192.122 103.463 192.493 103.064C192.864 102.666 193.285 102.364 193.755 102.16C194.225 101.955 194.712 101.853 195.216 101.853C195.858 101.853 196.411 101.963 196.876 102.185C197.346 102.406 197.731 102.716 198.03 103.114C198.329 103.507 198.55 103.972 198.694 104.509C198.838 105.04 198.91 105.621 198.91 106.252V106.941H192.203V105.688H197.374V105.571C197.352 105.173 197.269 104.785 197.125 104.409C196.987 104.033 196.765 103.723 196.461 103.479C196.157 103.236 195.742 103.114 195.216 103.114C194.867 103.114 194.546 103.189 194.253 103.338C193.96 103.482 193.708 103.698 193.498 103.986C193.287 104.274 193.124 104.625 193.008 105.04C192.892 105.455 192.833 105.934 192.833 106.476V106.825C192.833 107.251 192.892 107.652 193.008 108.028C193.13 108.399 193.304 108.726 193.531 109.008C193.763 109.29 194.043 109.511 194.369 109.672C194.701 109.832 195.077 109.913 195.498 109.913C196.04 109.913 196.5 109.802 196.876 109.581C197.252 109.359 197.582 109.063 197.864 108.692L198.793 109.431C198.6 109.724 198.354 110.004 198.055 110.27C197.756 110.535 197.388 110.751 196.951 110.917C196.519 111.083 196.007 111.166 195.415 111.166ZM200.296 106.609V106.418C200.296 105.771 200.39 105.17 200.578 104.617C200.766 104.058 201.037 103.574 201.392 103.164C201.746 102.749 202.175 102.428 202.678 102.201C203.182 101.969 203.746 101.853 204.372 101.853C205.002 101.853 205.57 101.969 206.073 102.201C206.582 102.428 207.014 102.749 207.368 103.164C207.728 103.574 208.002 104.058 208.19 104.617C208.378 105.17 208.472 105.771 208.472 106.418V106.609C208.472 107.256 208.378 107.857 208.19 108.41C208.002 108.964 207.728 109.448 207.368 109.863C207.014 110.272 206.585 110.593 206.082 110.826C205.583 111.053 205.019 111.166 204.388 111.166C203.757 111.166 203.19 111.053 202.687 110.826C202.183 110.593 201.751 110.272 201.392 109.863C201.037 109.448 200.766 108.964 200.578 108.41C200.39 107.857 200.296 107.256 200.296 106.609ZM201.832 106.418V106.609C201.832 107.057 201.884 107.48 201.989 107.879C202.094 108.272 202.252 108.62 202.462 108.925C202.678 109.229 202.947 109.47 203.268 109.647C203.589 109.819 203.962 109.904 204.388 109.904C204.809 109.904 205.177 109.819 205.492 109.647C205.813 109.47 206.079 109.229 206.289 108.925C206.499 108.62 206.657 108.272 206.762 107.879C206.873 107.48 206.928 107.057 206.928 106.609V106.418C206.928 105.975 206.873 105.557 206.762 105.165C206.657 104.766 206.497 104.415 206.281 104.11C206.07 103.8 205.805 103.557 205.484 103.38C205.168 103.203 204.798 103.114 204.372 103.114C203.951 103.114 203.58 103.203 203.259 103.38C202.944 103.557 202.678 103.8 202.462 104.11C202.252 104.415 202.094 104.766 201.989 105.165C201.884 105.557 201.832 105.975 201.832 106.418ZM211.934 103.745V114.453H210.39V102.019H211.801L211.934 103.745ZM217.985 106.435V106.609C217.985 107.262 217.907 107.868 217.752 108.427C217.597 108.98 217.371 109.462 217.072 109.871C216.778 110.281 216.416 110.599 215.984 110.826C215.553 111.053 215.057 111.166 214.499 111.166C213.929 111.166 213.425 111.072 212.988 110.884C212.551 110.696 212.18 110.422 211.875 110.062C211.571 109.702 211.328 109.271 211.145 108.767C210.968 108.264 210.846 107.696 210.78 107.065V106.136C210.846 105.472 210.971 104.877 211.153 104.351C211.336 103.825 211.577 103.377 211.875 103.006C212.18 102.63 212.548 102.345 212.979 102.151C213.411 101.952 213.909 101.853 214.474 101.853C215.038 101.853 215.539 101.963 215.976 102.185C216.413 102.4 216.781 102.71 217.08 103.114C217.379 103.518 217.603 104.002 217.752 104.567C217.907 105.126 217.985 105.748 217.985 106.435ZM216.441 106.609V106.435C216.441 105.986 216.394 105.566 216.3 105.173C216.206 104.774 216.059 104.426 215.86 104.127C215.666 103.823 215.417 103.585 215.113 103.413C214.808 103.236 214.446 103.147 214.025 103.147C213.638 103.147 213.3 103.214 213.013 103.347C212.73 103.479 212.49 103.659 212.291 103.886C212.091 104.108 211.928 104.362 211.801 104.65C211.679 104.932 211.588 105.225 211.527 105.53V107.68C211.638 108.067 211.792 108.432 211.992 108.775C212.191 109.113 212.457 109.387 212.789 109.597C213.121 109.802 213.538 109.904 214.042 109.904C214.457 109.904 214.814 109.819 215.113 109.647C215.417 109.47 215.666 109.229 215.86 108.925C216.059 108.62 216.206 108.272 216.3 107.879C216.394 107.48 216.441 107.057 216.441 106.609ZM221.612 98.25V111H220.068V98.25H221.612ZM227.805 111.166C227.179 111.166 226.612 111.061 226.103 110.851C225.599 110.635 225.165 110.333 224.8 109.946C224.44 109.558 224.163 109.099 223.97 108.568C223.776 108.037 223.679 107.456 223.679 106.825V106.476C223.679 105.746 223.787 105.095 224.003 104.525C224.219 103.95 224.512 103.463 224.883 103.064C225.254 102.666 225.674 102.364 226.145 102.16C226.615 101.955 227.102 101.853 227.605 101.853C228.247 101.853 228.801 101.963 229.266 102.185C229.736 102.406 230.121 102.716 230.419 103.114C230.718 103.507 230.94 103.972 231.083 104.509C231.227 105.04 231.299 105.621 231.299 106.252V106.941H224.592V105.688H229.764V105.571C229.742 105.173 229.659 104.785 229.515 104.409C229.376 104.033 229.155 103.723 228.851 103.479C228.546 103.236 228.131 103.114 227.605 103.114C227.257 103.114 226.936 103.189 226.643 103.338C226.349 103.482 226.097 103.698 225.887 103.986C225.677 104.274 225.514 104.625 225.397 105.04C225.281 105.455 225.223 105.934 225.223 106.476V106.825C225.223 107.251 225.281 107.652 225.397 108.028C225.519 108.399 225.694 108.726 225.92 109.008C226.153 109.29 226.432 109.511 226.759 109.672C227.091 109.832 227.467 109.913 227.888 109.913C228.43 109.913 228.889 109.802 229.266 109.581C229.642 109.359 229.971 109.063 230.253 108.692L231.183 109.431C230.989 109.724 230.743 110.004 230.444 110.27C230.146 110.535 229.778 110.751 229.34 110.917C228.909 111.083 228.397 111.166 227.805 111.166ZM242.605 109.464V104.841C242.605 104.487 242.533 104.18 242.389 103.919C242.251 103.654 242.041 103.449 241.758 103.305C241.476 103.161 241.127 103.089 240.712 103.089C240.325 103.089 239.985 103.156 239.691 103.289C239.404 103.421 239.177 103.596 239.011 103.812C238.85 104.027 238.77 104.26 238.77 104.509H237.234C237.234 104.188 237.317 103.87 237.483 103.554C237.649 103.239 237.887 102.954 238.197 102.699C238.513 102.439 238.889 102.234 239.326 102.085C239.769 101.93 240.261 101.853 240.804 101.853C241.457 101.853 242.032 101.963 242.53 102.185C243.034 102.406 243.427 102.741 243.709 103.189C243.997 103.632 244.141 104.188 244.141 104.857V109.041C244.141 109.34 244.166 109.658 244.215 109.996C244.271 110.333 244.351 110.624 244.456 110.867V111H242.854C242.777 110.823 242.716 110.588 242.671 110.294C242.627 109.996 242.605 109.719 242.605 109.464ZM242.871 105.555L242.887 106.634H241.335C240.898 106.634 240.508 106.67 240.165 106.742C239.821 106.808 239.534 106.91 239.301 107.049C239.069 107.187 238.892 107.361 238.77 107.572C238.648 107.777 238.587 108.017 238.587 108.294C238.587 108.576 238.651 108.833 238.778 109.066C238.906 109.298 239.097 109.484 239.351 109.622C239.611 109.755 239.929 109.821 240.306 109.821C240.776 109.821 241.191 109.722 241.551 109.522C241.91 109.323 242.195 109.08 242.406 108.792C242.622 108.504 242.738 108.225 242.754 107.954L243.41 108.692C243.371 108.925 243.266 109.182 243.095 109.464C242.923 109.747 242.694 110.018 242.406 110.278C242.124 110.532 241.786 110.745 241.393 110.917C241.006 111.083 240.569 111.166 240.082 111.166C239.473 111.166 238.939 111.047 238.479 110.809C238.026 110.571 237.672 110.253 237.417 109.854C237.168 109.451 237.043 109 237.043 108.501C237.043 108.02 237.138 107.597 237.326 107.231C237.514 106.861 237.785 106.554 238.139 106.31C238.493 106.061 238.919 105.873 239.417 105.746C239.916 105.618 240.472 105.555 241.086 105.555H242.871ZM248.092 103.936V111H246.556V102.019H248.009L248.092 103.936ZM247.727 106.169L247.087 106.144C247.093 105.53 247.184 104.963 247.361 104.442C247.538 103.917 247.787 103.46 248.108 103.073C248.429 102.685 248.811 102.387 249.254 102.176C249.702 101.96 250.197 101.853 250.74 101.853C251.182 101.853 251.581 101.913 251.935 102.035C252.289 102.151 252.591 102.34 252.84 102.6C253.094 102.86 253.288 103.197 253.421 103.612C253.554 104.022 253.62 104.523 253.62 105.115V111H252.076V105.098C252.076 104.628 252.007 104.251 251.869 103.969C251.73 103.681 251.528 103.474 251.263 103.347C250.997 103.214 250.671 103.147 250.283 103.147C249.901 103.147 249.553 103.228 249.237 103.388C248.927 103.549 248.659 103.77 248.432 104.052C248.211 104.334 248.036 104.658 247.909 105.023C247.787 105.383 247.727 105.765 247.727 106.169ZM261.614 109.257V98.25H263.158V111H261.747L261.614 109.257ZM255.571 106.609V106.435C255.571 105.748 255.654 105.126 255.82 104.567C255.991 104.002 256.232 103.518 256.542 103.114C256.857 102.71 257.231 102.4 257.663 102.185C258.1 101.963 258.587 101.853 259.124 101.853C259.688 101.853 260.181 101.952 260.601 102.151C261.027 102.345 261.387 102.63 261.68 103.006C261.979 103.377 262.214 103.825 262.386 104.351C262.557 104.877 262.676 105.472 262.743 106.136V106.899C262.682 107.558 262.563 108.15 262.386 108.676C262.214 109.201 261.979 109.65 261.68 110.021C261.387 110.391 261.027 110.676 260.601 110.875C260.175 111.069 259.677 111.166 259.107 111.166C258.581 111.166 258.1 111.053 257.663 110.826C257.231 110.599 256.857 110.281 256.542 109.871C256.232 109.462 255.991 108.98 255.82 108.427C255.654 107.868 255.571 107.262 255.571 106.609ZM257.115 106.435V106.609C257.115 107.057 257.159 107.478 257.248 107.871C257.342 108.264 257.486 108.609 257.679 108.908C257.873 109.207 258.119 109.442 258.418 109.614C258.717 109.78 259.074 109.863 259.489 109.863C259.998 109.863 260.416 109.755 260.742 109.539C261.074 109.323 261.34 109.038 261.539 108.684C261.738 108.33 261.893 107.945 262.004 107.53V105.53C261.938 105.225 261.841 104.932 261.713 104.65C261.592 104.362 261.431 104.108 261.232 103.886C261.038 103.659 260.798 103.479 260.51 103.347C260.228 103.214 259.893 103.147 259.505 103.147C259.085 103.147 258.722 103.236 258.418 103.413C258.119 103.585 257.873 103.823 257.679 104.127C257.486 104.426 257.342 104.774 257.248 105.173C257.159 105.566 257.115 105.986 257.115 106.435ZM273.525 102.019V103.197H268.669V102.019H273.525ZM270.313 99.8354H271.849V108.775C271.849 109.08 271.896 109.309 271.99 109.464C272.084 109.619 272.206 109.722 272.355 109.771C272.504 109.821 272.665 109.846 272.836 109.846C272.964 109.846 273.097 109.835 273.235 109.813C273.379 109.785 273.487 109.763 273.559 109.747L273.567 111C273.445 111.039 273.285 111.075 273.085 111.108C272.892 111.147 272.657 111.166 272.38 111.166C272.004 111.166 271.658 111.091 271.342 110.942C271.027 110.792 270.775 110.543 270.587 110.195C270.404 109.841 270.313 109.365 270.313 108.767V99.8354ZM279.054 111.166C278.428 111.166 277.861 111.061 277.352 110.851C276.848 110.635 276.414 110.333 276.049 109.946C275.689 109.558 275.412 109.099 275.219 108.568C275.025 108.037 274.928 107.456 274.928 106.825V106.476C274.928 105.746 275.036 105.095 275.252 104.525C275.468 103.95 275.761 103.463 276.132 103.064C276.503 102.666 276.923 102.364 277.394 102.16C277.864 101.955 278.351 101.853 278.854 101.853C279.496 101.853 280.05 101.963 280.515 102.185C280.985 102.406 281.37 102.716 281.668 103.114C281.967 103.507 282.189 103.972 282.333 104.509C282.476 105.04 282.548 105.621 282.548 106.252V106.941H275.841V105.688H281.013V105.571C280.991 105.173 280.908 104.785 280.764 104.409C280.625 104.033 280.404 103.723 280.1 103.479C279.795 103.236 279.38 103.114 278.854 103.114C278.506 103.114 278.185 103.189 277.892 103.338C277.598 103.482 277.347 103.698 277.136 103.986C276.926 104.274 276.763 104.625 276.646 105.04C276.53 105.455 276.472 105.934 276.472 106.476V106.825C276.472 107.251 276.53 107.652 276.646 108.028C276.768 108.399 276.943 108.726 277.169 109.008C277.402 109.29 277.681 109.511 278.008 109.672C278.34 109.832 278.716 109.913 279.137 109.913C279.679 109.913 280.138 109.802 280.515 109.581C280.891 109.359 281.22 109.063 281.502 108.692L282.432 109.431C282.238 109.724 281.992 110.004 281.693 110.27C281.395 110.535 281.027 110.751 280.589 110.917C280.158 111.083 279.646 111.166 279.054 111.166ZM289.637 109.464V104.841C289.637 104.487 289.565 104.18 289.421 103.919C289.283 103.654 289.073 103.449 288.791 103.305C288.508 103.161 288.16 103.089 287.745 103.089C287.357 103.089 287.017 103.156 286.724 103.289C286.436 103.421 286.209 103.596 286.043 103.812C285.882 104.027 285.802 104.26 285.802 104.509H284.267C284.267 104.188 284.35 103.87 284.516 103.554C284.682 103.239 284.92 102.954 285.229 102.699C285.545 102.439 285.921 102.234 286.358 102.085C286.801 101.93 287.294 101.853 287.836 101.853C288.489 101.853 289.064 101.963 289.562 102.185C290.066 102.406 290.459 102.741 290.741 103.189C291.029 103.632 291.173 104.188 291.173 104.857V109.041C291.173 109.34 291.198 109.658 291.248 109.996C291.303 110.333 291.383 110.624 291.488 110.867V111H289.886C289.809 110.823 289.748 110.588 289.704 110.294C289.659 109.996 289.637 109.719 289.637 109.464ZM289.903 105.555L289.919 106.634H288.367C287.93 106.634 287.54 106.67 287.197 106.742C286.854 106.808 286.566 106.91 286.333 107.049C286.101 107.187 285.924 107.361 285.802 107.572C285.681 107.777 285.62 108.017 285.62 108.294C285.62 108.576 285.683 108.833 285.811 109.066C285.938 109.298 286.129 109.484 286.383 109.622C286.643 109.755 286.962 109.821 287.338 109.821C287.808 109.821 288.223 109.722 288.583 109.522C288.943 109.323 289.228 109.08 289.438 108.792C289.654 108.504 289.77 108.225 289.787 107.954L290.442 108.692C290.404 108.925 290.299 109.182 290.127 109.464C289.955 109.747 289.726 110.018 289.438 110.278C289.156 110.532 288.818 110.745 288.425 110.917C288.038 111.083 287.601 111.166 287.114 111.166C286.505 111.166 285.971 111.047 285.512 110.809C285.058 110.571 284.704 110.253 284.449 109.854C284.2 109.451 284.076 109 284.076 108.501C284.076 108.02 284.17 107.597 284.358 107.231C284.546 106.861 284.817 106.554 285.171 106.31C285.526 106.061 285.952 105.873 286.45 105.746C286.948 105.618 287.504 105.555 288.118 105.555H289.903ZM295.116 103.803V111H293.572V102.019H295.033L295.116 103.803ZM294.8 106.169L294.086 106.144C294.092 105.53 294.172 104.963 294.327 104.442C294.482 103.917 294.712 103.46 295.016 103.073C295.32 102.685 295.7 102.387 296.153 102.176C296.607 101.96 297.133 101.853 297.73 101.853C298.151 101.853 298.538 101.913 298.893 102.035C299.247 102.151 299.554 102.337 299.814 102.591C300.074 102.846 300.276 103.172 300.42 103.571C300.564 103.969 300.636 104.451 300.636 105.015V111H299.1V105.09C299.1 104.619 299.02 104.243 298.859 103.961C298.704 103.679 298.483 103.474 298.195 103.347C297.908 103.214 297.57 103.147 297.183 103.147C296.729 103.147 296.35 103.228 296.045 103.388C295.741 103.549 295.498 103.77 295.315 104.052C295.132 104.334 295 104.658 294.917 105.023C294.839 105.383 294.8 105.765 294.8 106.169ZM300.619 105.322L299.59 105.638C299.595 105.145 299.676 104.672 299.831 104.218C299.991 103.764 300.221 103.361 300.52 103.006C300.824 102.652 301.197 102.373 301.64 102.168C302.083 101.958 302.589 101.853 303.159 101.853C303.641 101.853 304.067 101.916 304.438 102.043C304.814 102.171 305.129 102.367 305.384 102.633C305.644 102.893 305.84 103.228 305.973 103.637C306.106 104.047 306.172 104.534 306.172 105.098V111H304.628V105.082C304.628 104.578 304.548 104.188 304.388 103.911C304.233 103.629 304.011 103.432 303.724 103.322C303.441 103.206 303.104 103.147 302.711 103.147C302.373 103.147 302.075 103.206 301.814 103.322C301.554 103.438 301.336 103.598 301.159 103.803C300.982 104.002 300.846 104.232 300.752 104.492C300.663 104.752 300.619 105.029 300.619 105.322ZM313.726 108.618C313.726 108.396 313.676 108.192 313.577 108.003C313.483 107.81 313.286 107.635 312.987 107.48C312.694 107.32 312.251 107.182 311.659 107.065C311.161 106.96 310.71 106.836 310.306 106.692C309.908 106.548 309.567 106.374 309.285 106.169C309.008 105.964 308.795 105.723 308.646 105.447C308.497 105.17 308.422 104.846 308.422 104.476C308.422 104.121 308.499 103.787 308.654 103.471C308.815 103.156 309.039 102.876 309.327 102.633C309.62 102.389 309.971 102.198 310.381 102.06C310.79 101.922 311.247 101.853 311.75 101.853C312.47 101.853 313.084 101.98 313.593 102.234C314.102 102.489 314.493 102.829 314.764 103.255C315.035 103.676 315.17 104.144 315.17 104.658H313.635C313.635 104.409 313.56 104.168 313.411 103.936C313.267 103.698 313.054 103.502 312.771 103.347C312.495 103.192 312.154 103.114 311.75 103.114C311.324 103.114 310.979 103.181 310.713 103.313C310.453 103.441 310.262 103.604 310.14 103.803C310.024 104.002 309.966 104.213 309.966 104.434C309.966 104.6 309.993 104.75 310.049 104.882C310.11 105.01 310.215 105.129 310.364 105.239C310.514 105.344 310.724 105.444 310.995 105.538C311.266 105.632 311.612 105.726 312.033 105.82C312.769 105.986 313.375 106.186 313.851 106.418C314.326 106.65 314.681 106.935 314.913 107.273C315.146 107.611 315.262 108.02 315.262 108.501C315.262 108.894 315.179 109.254 315.013 109.581C314.852 109.907 314.617 110.189 314.307 110.427C314.003 110.66 313.638 110.842 313.211 110.975C312.791 111.102 312.318 111.166 311.792 111.166C311.001 111.166 310.331 111.025 309.783 110.743C309.235 110.46 308.82 110.095 308.538 109.647C308.256 109.199 308.115 108.726 308.115 108.228H309.659C309.681 108.648 309.803 108.983 310.024 109.232C310.245 109.475 310.516 109.65 310.837 109.755C311.158 109.854 311.477 109.904 311.792 109.904C312.213 109.904 312.564 109.849 312.846 109.738C313.134 109.628 313.353 109.475 313.502 109.282C313.651 109.088 313.726 108.867 313.726 108.618Z" fill="#949494"/>
</svg>
