<svg width="408" height="150" viewBox="0 0 408 150" fill="none" xmlns="http://www.w3.org/2000/svg">
<path d="M0 16C0 7.16345 7.16344 0 16 0H392C400.837 0 408 7.16344 408 16V134C408 142.837 400.837 150 392 150H16C7.16344 150 0 142.837 0 134V16Z" fill="#3E3E3E"/>
<path d="M68.25 94.5C82.7475 94.5 94.5 82.7475 94.5 68.25C94.5 53.7525 82.7475 42 68.25 42C53.7525 42 42 53.7525 42 68.25C42 82.7475 53.7525 94.5 68.25 94.5Z" stroke="black" stroke-width="2" stroke-linecap="round" stroke-linejoin="round"/>
<path d="M86.8105 86.8125L101.998 102" stroke="black" stroke-width="2" stroke-linecap="round" stroke-linejoin="round"/>
<path d="M151.008 51.3945C149.078 50.8398 147.672 50.1602 146.789 49.3555C145.914 48.543 145.477 47.543 145.477 46.3555C145.477 45.0117 146.012 43.9023 147.082 43.0273C148.16 42.1445 149.559 41.7031 151.277 41.7031C152.449 41.7031 153.492 41.9297 154.406 42.3828C155.328 42.8359 156.039 43.4609 156.539 44.2578C157.047 45.0547 157.301 45.9258 157.301 46.8711H155.039C155.039 45.8398 154.711 45.0312 154.055 44.4453C153.398 43.8516 152.473 43.5547 151.277 43.5547C150.168 43.5547 149.301 43.8008 148.676 44.293C148.059 44.7773 147.75 45.4531 147.75 46.3203C147.75 47.0156 148.043 47.6055 148.629 48.0898C149.223 48.5664 150.227 49.0039 151.641 49.4023C153.062 49.8008 154.172 50.2422 154.969 50.7266C155.773 51.2031 156.367 51.7617 156.75 52.4023C157.141 53.043 157.336 53.7969 157.336 54.6641C157.336 56.0469 156.797 57.1562 155.719 57.9922C154.641 58.8203 153.199 59.2344 151.395 59.2344C150.223 59.2344 149.129 59.0117 148.113 58.5664C147.098 58.1133 146.312 57.4961 145.758 56.7148C145.211 55.9336 144.938 55.0469 144.938 54.0547H147.199C147.199 55.0859 147.578 55.9023 148.336 56.5039C149.102 57.0977 150.121 57.3945 151.395 57.3945C152.582 57.3945 153.492 57.1523 154.125 56.668C154.758 56.1836 155.074 55.5234 155.074 54.6875C155.074 53.8516 154.781 53.207 154.195 52.7539C153.609 52.293 152.547 51.8398 151.008 51.3945ZM165.152 59.2344C163.434 59.2344 162.035 58.6719 160.957 57.5469C159.879 56.4141 159.34 54.9023 159.34 53.0117V52.6133C159.34 51.3555 159.578 50.2344 160.055 49.25C160.539 48.2578 161.211 47.4844 162.07 46.9297C162.938 46.3672 163.875 46.0859 164.883 46.0859C166.531 46.0859 167.812 46.6289 168.727 47.7148C169.641 48.8008 170.098 50.3555 170.098 52.3789V53.2812H161.508C161.539 54.5312 161.902 55.543 162.598 56.3164C163.301 57.082 164.191 57.4648 165.27 57.4648C166.035 57.4648 166.684 57.3086 167.215 56.9961C167.746 56.6836 168.211 56.2695 168.609 55.7539L169.934 56.7852C168.871 58.418 167.277 59.2344 165.152 59.2344ZM164.883 47.8672C164.008 47.8672 163.273 48.1875 162.68 48.8281C162.086 49.4609 161.719 50.3516 161.578 51.5H167.93V51.3359C167.867 50.2344 167.57 49.3828 167.039 48.7812C166.508 48.1719 165.789 47.8672 164.883 47.8672ZM180.445 59C180.32 58.75 180.219 58.3047 180.141 57.6641C179.133 58.7109 177.93 59.2344 176.531 59.2344C175.281 59.2344 174.254 58.8828 173.449 58.1797C172.652 57.4688 172.254 56.5703 172.254 55.4844C172.254 54.1641 172.754 53.1406 173.754 52.4141C174.762 51.6797 176.176 51.3125 177.996 51.3125H180.105V50.3164C180.105 49.5586 179.879 48.957 179.426 48.5117C178.973 48.0586 178.305 47.832 177.422 47.832C176.648 47.832 176 48.0273 175.477 48.418C174.953 48.8086 174.691 49.2812 174.691 49.8359H172.512C172.512 49.2031 172.734 48.5938 173.18 48.0078C173.633 47.4141 174.242 46.9453 175.008 46.6016C175.781 46.2578 176.629 46.0859 177.551 46.0859C179.012 46.0859 180.156 46.4531 180.984 47.1875C181.812 47.9141 182.242 48.918 182.273 50.1992V56.0352C182.273 57.1992 182.422 58.125 182.719 58.8125V59H180.445ZM176.848 57.3477C177.527 57.3477 178.172 57.1719 178.781 56.8203C179.391 56.4688 179.832 56.0117 180.105 55.4492V52.8477H178.406C175.75 52.8477 174.422 53.625 174.422 55.1797C174.422 55.8594 174.648 56.3906 175.102 56.7734C175.555 57.1562 176.137 57.3477 176.848 57.3477ZM191.801 48.2656C191.473 48.2109 191.117 48.1836 190.734 48.1836C189.312 48.1836 188.348 48.7891 187.84 50V59H185.672V46.3203H187.781L187.816 47.7852C188.527 46.6523 189.535 46.0859 190.84 46.0859C191.262 46.0859 191.582 46.1406 191.801 46.25V48.2656ZM198.656 57.4648C199.43 57.4648 200.105 57.2305 200.684 56.7617C201.262 56.293 201.582 55.707 201.645 55.0039H203.695C203.656 55.7305 203.406 56.4219 202.945 57.0781C202.484 57.7344 201.867 58.2578 201.094 58.6484C200.328 59.0391 199.516 59.2344 198.656 59.2344C196.93 59.2344 195.555 58.6602 194.531 57.5117C193.516 56.3555 193.008 54.7773 193.008 52.7773V52.4141C193.008 51.1797 193.234 50.082 193.688 49.1211C194.141 48.1602 194.789 47.4141 195.633 46.8828C196.484 46.3516 197.488 46.0859 198.645 46.0859C200.066 46.0859 201.246 46.5117 202.184 47.3633C203.129 48.2148 203.633 49.3203 203.695 50.6797H201.645C201.582 49.8594 201.27 49.1875 200.707 48.6641C200.152 48.1328 199.465 47.8672 198.645 47.8672C197.543 47.8672 196.688 48.2656 196.078 49.0625C195.477 49.8516 195.176 50.9961 195.176 52.4961V52.9062C195.176 54.3672 195.477 55.4922 196.078 56.2812C196.68 57.0703 197.539 57.4648 198.656 57.4648ZM208.301 47.8555C209.262 46.6758 210.512 46.0859 212.051 46.0859C214.73 46.0859 216.082 47.5977 216.105 50.6211V59H213.938V50.6094C213.93 49.6953 213.719 49.0195 213.305 48.582C212.898 48.1445 212.262 47.9258 211.395 47.9258C210.691 47.9258 210.074 48.1133 209.543 48.4883C209.012 48.8633 208.598 49.3555 208.301 49.9648V59H206.133V41H208.301V47.8555Z" fill="#FFFEF8"/>
<path d="M148.964 81.6128C147.597 81.2199 146.601 80.7384 145.976 80.1685C145.356 79.5929 145.046 78.8846 145.046 78.0435C145.046 77.0916 145.425 76.3058 146.183 75.686C146.947 75.0607 147.937 74.748 149.155 74.748C149.985 74.748 150.724 74.9085 151.371 75.2295C152.024 75.5505 152.528 75.9932 152.882 76.5576C153.242 77.1221 153.421 77.7391 153.421 78.4087H151.819C151.819 77.6782 151.587 77.1055 151.122 76.6904C150.657 76.2699 150.001 76.0596 149.155 76.0596C148.369 76.0596 147.755 76.2339 147.312 76.5825C146.875 76.9256 146.656 77.4043 146.656 78.0186C146.656 78.5111 146.864 78.9289 147.279 79.272C147.699 79.6095 148.41 79.9194 149.412 80.2017C150.419 80.4839 151.205 80.7965 151.77 81.1396C152.34 81.4772 152.76 81.8729 153.031 82.3267C153.308 82.7804 153.446 83.3145 153.446 83.9287C153.446 84.9082 153.064 85.694 152.301 86.2861C151.537 86.8727 150.516 87.166 149.238 87.166C148.408 87.166 147.633 87.0083 146.914 86.6929C146.194 86.3719 145.638 85.9347 145.245 85.3813C144.858 84.828 144.664 84.1999 144.664 83.4971H146.266C146.266 84.2275 146.535 84.8058 147.071 85.2319C147.614 85.6525 148.336 85.8628 149.238 85.8628C150.079 85.8628 150.724 85.6912 151.172 85.3481C151.62 85.005 151.844 84.5374 151.844 83.9453C151.844 83.3532 151.637 82.8966 151.222 82.5757C150.807 82.2492 150.054 81.9282 148.964 81.6128ZM158.983 87.166C157.765 87.166 156.775 86.7676 156.011 85.9707C155.248 85.1683 154.866 84.0975 154.866 82.7583V82.4761C154.866 81.5851 155.035 80.791 155.372 80.0938C155.715 79.391 156.191 78.8431 156.8 78.4502C157.414 78.0518 158.078 77.8525 158.792 77.8525C159.96 77.8525 160.867 78.2371 161.515 79.0063C162.162 79.7756 162.486 80.8768 162.486 82.3101V82.9492H156.401C156.424 83.8346 156.681 84.5513 157.173 85.0991C157.671 85.6414 158.302 85.9126 159.066 85.9126C159.608 85.9126 160.068 85.8019 160.444 85.5806C160.82 85.3592 161.149 85.0659 161.432 84.7007L162.37 85.4312C161.617 86.5877 160.488 87.166 158.983 87.166ZM158.792 79.1143C158.172 79.1143 157.652 79.3411 157.231 79.7949C156.811 80.2432 156.551 80.874 156.451 81.6875H160.95V81.5713C160.906 80.791 160.696 80.1878 160.319 79.7617C159.943 79.3301 159.434 79.1143 158.792 79.1143ZM169.815 87C169.727 86.8229 169.655 86.5075 169.6 86.0537C168.886 86.7952 168.034 87.166 167.043 87.166C166.158 87.166 165.43 86.917 164.86 86.4189C164.295 85.9154 164.013 85.279 164.013 84.5098C164.013 83.5745 164.367 82.8496 165.076 82.335C165.79 81.8148 166.791 81.5547 168.081 81.5547H169.575V80.8491C169.575 80.3123 169.414 79.8862 169.093 79.5708C168.772 79.2498 168.299 79.0894 167.674 79.0894C167.126 79.0894 166.667 79.2277 166.296 79.5044C165.925 79.7811 165.74 80.1159 165.74 80.5088H164.196C164.196 80.0605 164.354 79.6289 164.669 79.2139C164.99 78.7933 165.422 78.4613 165.964 78.2178C166.512 77.9743 167.112 77.8525 167.765 77.8525C168.8 77.8525 169.611 78.1126 170.197 78.6328C170.784 79.1475 171.088 79.8586 171.11 80.7661V84.8999C171.11 85.7244 171.215 86.3802 171.426 86.8672V87H169.815ZM167.267 85.8296C167.749 85.8296 168.205 85.7051 168.637 85.4561C169.068 85.207 169.381 84.8833 169.575 84.4849V82.6421H168.371C166.49 82.6421 165.549 83.1927 165.549 84.2939C165.549 84.7754 165.709 85.1517 166.03 85.4229C166.351 85.694 166.764 85.8296 167.267 85.8296ZM177.859 79.3965C177.626 79.3577 177.375 79.3384 177.104 79.3384C176.096 79.3384 175.413 79.7673 175.053 80.625V87H173.518V78.0186H175.012L175.037 79.0562C175.54 78.2537 176.254 77.8525 177.178 77.8525C177.477 77.8525 177.704 77.8913 177.859 77.9688V79.3965ZM182.715 85.9126C183.263 85.9126 183.741 85.7466 184.151 85.4146C184.56 85.0825 184.787 84.6675 184.832 84.1694H186.284C186.257 84.6841 186.079 85.1738 185.753 85.6387C185.426 86.1035 184.989 86.4743 184.441 86.751C183.899 87.0277 183.324 87.166 182.715 87.166C181.492 87.166 180.518 86.7593 179.793 85.9458C179.074 85.1268 178.714 84.009 178.714 82.5923V82.335C178.714 81.4606 178.874 80.6831 179.195 80.0024C179.516 79.3218 179.976 78.7933 180.573 78.417C181.176 78.0407 181.888 77.8525 182.707 77.8525C183.714 77.8525 184.549 78.1541 185.213 78.7573C185.883 79.3605 186.24 80.1436 186.284 81.1064H184.832C184.787 80.5254 184.566 80.0495 184.167 79.6787C183.775 79.3024 183.288 79.1143 182.707 79.1143C181.926 79.1143 181.32 79.3965 180.889 79.9609C180.463 80.5199 180.25 81.3306 180.25 82.3931V82.6836C180.25 83.7184 180.463 84.5153 180.889 85.0742C181.315 85.6331 181.924 85.9126 182.715 85.9126ZM189.546 79.106C190.227 78.2703 191.112 77.8525 192.203 77.8525C194.101 77.8525 195.058 78.9233 195.075 81.0649V87H193.539V81.0566C193.534 80.4092 193.384 79.9305 193.091 79.6206C192.803 79.3107 192.352 79.1558 191.738 79.1558C191.24 79.1558 190.803 79.2886 190.426 79.5542C190.05 79.8198 189.757 80.1685 189.546 80.6001V87H188.011V74.25H189.546V79.106ZM207.136 87C207.047 86.8229 206.975 86.5075 206.92 86.0537C206.206 86.7952 205.354 87.166 204.363 87.166C203.478 87.166 202.75 86.917 202.18 86.4189C201.616 85.9154 201.333 85.279 201.333 84.5098C201.333 83.5745 201.688 82.8496 202.396 82.335C203.11 81.8148 204.111 81.5547 205.401 81.5547H206.895V80.8491C206.895 80.3123 206.735 79.8862 206.414 79.5708C206.093 79.2498 205.619 79.0894 204.994 79.0894C204.446 79.0894 203.987 79.2277 203.616 79.5044C203.245 79.7811 203.06 80.1159 203.06 80.5088H201.516C201.516 80.0605 201.674 79.6289 201.989 79.2139C202.31 78.7933 202.742 78.4613 203.284 78.2178C203.832 77.9743 204.432 77.8525 205.085 77.8525C206.12 77.8525 206.931 78.1126 207.518 78.6328C208.104 79.1475 208.409 79.8586 208.431 80.7661V84.8999C208.431 85.7244 208.536 86.3802 208.746 86.8672V87H207.136ZM204.587 85.8296C205.069 85.8296 205.525 85.7051 205.957 85.4561C206.389 85.207 206.701 84.8833 206.895 84.4849V82.6421H205.691C203.81 82.6421 202.869 83.1927 202.869 84.2939C202.869 84.7754 203.03 85.1517 203.351 85.4229C203.672 85.694 204.084 85.8296 204.587 85.8296ZM214.44 85.9126C214.988 85.9126 215.467 85.7466 215.876 85.4146C216.286 85.0825 216.513 84.6675 216.557 84.1694H218.01C217.982 84.6841 217.805 85.1738 217.479 85.6387C217.152 86.1035 216.715 86.4743 216.167 86.751C215.625 87.0277 215.049 87.166 214.44 87.166C213.217 87.166 212.243 86.7593 211.519 85.9458C210.799 85.1268 210.439 84.009 210.439 82.5923V82.335C210.439 81.4606 210.6 80.6831 210.921 80.0024C211.242 79.3218 211.701 78.7933 212.299 78.417C212.902 78.0407 213.613 77.8525 214.432 77.8525C215.439 77.8525 216.275 78.1541 216.939 78.7573C217.609 79.3605 217.965 80.1436 218.01 81.1064H216.557C216.513 80.5254 216.292 80.0495 215.893 79.6787C215.5 79.3024 215.013 79.1143 214.432 79.1143C213.652 79.1143 213.046 79.3965 212.614 79.9609C212.188 80.5199 211.975 81.3306 211.975 82.3931V82.6836C211.975 83.7184 212.188 84.5153 212.614 85.0742C213.04 85.6331 213.649 85.9126 214.44 85.9126ZM224.078 79.3965C223.845 79.3577 223.593 79.3384 223.322 79.3384C222.315 79.3384 221.632 79.7673 221.272 80.625V87H219.736V78.0186H221.23L221.255 79.0562C221.759 78.2537 222.473 77.8525 223.397 77.8525C223.696 77.8525 223.923 77.8913 224.078 77.9688V79.3965ZM224.924 82.4263C224.924 81.5464 225.096 80.755 225.439 80.0522C225.788 79.3494 226.269 78.8071 226.883 78.4253C227.503 78.0435 228.209 77.8525 229 77.8525C230.223 77.8525 231.211 78.2759 231.963 79.1226C232.722 79.9692 233.101 81.0954 233.101 82.501V82.6089C233.101 83.4832 232.932 84.269 232.594 84.9663C232.262 85.658 231.784 86.1976 231.158 86.585C230.538 86.9723 229.825 87.166 229.017 87.166C227.799 87.166 226.811 86.7427 226.053 85.896C225.301 85.0493 224.924 83.9287 224.924 82.5342V82.4263ZM226.468 82.6089C226.468 83.605 226.698 84.4046 227.157 85.0078C227.622 85.611 228.242 85.9126 229.017 85.9126C229.797 85.9126 230.417 85.6082 230.876 84.9995C231.335 84.3853 231.565 83.5275 231.565 82.4263C231.565 81.4412 231.33 80.6444 230.859 80.0356C230.395 79.4214 229.775 79.1143 229 79.1143C228.242 79.1143 227.63 79.4159 227.166 80.019C226.701 80.6222 226.468 81.4855 226.468 82.6089ZM240.256 84.6177C240.256 84.2026 240.098 83.8817 239.783 83.6548C239.473 83.4224 238.928 83.2231 238.147 83.0571C237.373 82.8911 236.756 82.6919 236.296 82.4595C235.843 82.2271 235.505 81.9504 235.284 81.6294C235.068 81.3084 234.96 80.9266 234.96 80.4839C234.96 79.7479 235.27 79.1253 235.89 78.6162C236.515 78.1071 237.312 77.8525 238.28 77.8525C239.299 77.8525 240.123 78.1154 240.754 78.6411C241.39 79.1668 241.708 79.8392 241.708 80.6582H240.165C240.165 80.2376 239.985 79.8752 239.625 79.5708C239.271 79.2664 238.823 79.1143 238.28 79.1143C237.721 79.1143 237.284 79.236 236.969 79.4795C236.653 79.723 236.496 80.0412 236.496 80.4341C236.496 80.8049 236.642 81.0843 236.936 81.2725C237.229 81.4606 237.757 81.6405 238.521 81.812C239.29 81.9836 239.913 82.1883 240.389 82.4263C240.865 82.6642 241.216 82.952 241.443 83.2896C241.675 83.6216 241.792 84.0283 241.792 84.5098C241.792 85.3122 241.471 85.9569 240.829 86.4438C240.187 86.9253 239.354 87.166 238.33 87.166C237.611 87.166 236.974 87.0387 236.421 86.7842C235.868 86.5296 235.433 86.1755 235.118 85.7217C234.808 85.2624 234.653 84.7671 234.653 84.2358H236.188C236.216 84.7505 236.421 85.16 236.803 85.4644C237.19 85.7632 237.699 85.9126 238.33 85.9126C238.911 85.9126 239.376 85.7964 239.725 85.564C240.079 85.326 240.256 85.0106 240.256 84.6177ZM249.021 84.6177C249.021 84.2026 248.864 83.8817 248.548 83.6548C248.238 83.4224 247.693 83.2231 246.913 83.0571C246.138 82.8911 245.521 82.6919 245.062 82.4595C244.608 82.2271 244.271 81.9504 244.049 81.6294C243.833 81.3084 243.726 80.9266 243.726 80.4839C243.726 79.7479 244.035 79.1253 244.655 78.6162C245.281 78.1071 246.077 77.8525 247.046 77.8525C248.064 77.8525 248.889 78.1154 249.52 78.6411C250.156 79.1668 250.474 79.8392 250.474 80.6582H248.93C248.93 80.2376 248.75 79.8752 248.391 79.5708C248.036 79.2664 247.588 79.1143 247.046 79.1143C246.487 79.1143 246.05 79.236 245.734 79.4795C245.419 79.723 245.261 80.0412 245.261 80.4341C245.261 80.8049 245.408 81.0843 245.701 81.2725C245.994 81.4606 246.523 81.6405 247.287 81.812C248.056 81.9836 248.678 82.1883 249.154 82.4263C249.63 82.6642 249.982 82.952 250.208 83.2896C250.441 83.6216 250.557 84.0283 250.557 84.5098C250.557 85.3122 250.236 85.9569 249.594 86.4438C248.952 86.9253 248.119 87.166 247.096 87.166C246.376 87.166 245.74 87.0387 245.187 86.7842C244.633 86.5296 244.199 86.1755 243.883 85.7217C243.573 85.2624 243.418 84.7671 243.418 84.2358H244.954C244.982 84.7505 245.187 85.16 245.568 85.4644C245.956 85.7632 246.465 85.9126 247.096 85.9126C247.677 85.9126 248.142 85.7964 248.49 85.564C248.844 85.326 249.021 85.0106 249.021 84.6177ZM262.319 87C262.231 86.8229 262.159 86.5075 262.104 86.0537C261.39 86.7952 260.537 87.166 259.547 87.166C258.661 87.166 257.934 86.917 257.364 86.4189C256.799 85.9154 256.517 85.279 256.517 84.5098C256.517 83.5745 256.871 82.8496 257.58 82.335C258.293 81.8148 259.295 81.5547 260.584 81.5547H262.079V80.8491C262.079 80.3123 261.918 79.8862 261.597 79.5708C261.276 79.2498 260.803 79.0894 260.178 79.0894C259.63 79.0894 259.171 79.2277 258.8 79.5044C258.429 79.7811 258.244 80.1159 258.244 80.5088H256.7C256.7 80.0605 256.857 79.6289 257.173 79.2139C257.494 78.7933 257.925 78.4613 258.468 78.2178C259.016 77.9743 259.616 77.8525 260.269 77.8525C261.304 77.8525 262.115 78.1126 262.701 78.6328C263.288 79.1475 263.592 79.8586 263.614 80.7661V84.8999C263.614 85.7244 263.719 86.3802 263.93 86.8672V87H262.319ZM259.771 85.8296C260.252 85.8296 260.709 85.7051 261.141 85.4561C261.572 85.207 261.885 84.8833 262.079 84.4849V82.6421H260.875C258.993 82.6421 258.053 83.1927 258.053 84.2939C258.053 84.7754 258.213 85.1517 258.534 85.4229C258.855 85.694 259.267 85.8296 259.771 85.8296ZM267.69 87H266.154V74.25H267.69V87ZM271.824 87H270.288V74.25H271.824V87ZM148.101 108.75L150.192 102.019H151.836L148.225 112.386C147.666 113.88 146.778 114.627 145.561 114.627L145.27 114.603L144.697 114.495V113.25L145.112 113.283C145.632 113.283 146.036 113.178 146.324 112.967C146.618 112.757 146.858 112.372 147.046 111.813L147.387 110.9L144.183 102.019H145.859L148.101 108.75ZM152.674 106.426C152.674 105.546 152.846 104.755 153.189 104.052C153.538 103.349 154.019 102.807 154.633 102.425C155.253 102.043 155.959 101.853 156.75 101.853C157.973 101.853 158.961 102.276 159.713 103.123C160.472 103.969 160.851 105.095 160.851 106.501V106.609C160.851 107.483 160.682 108.269 160.344 108.966C160.012 109.658 159.534 110.198 158.908 110.585C158.288 110.972 157.575 111.166 156.767 111.166C155.549 111.166 154.561 110.743 153.803 109.896C153.051 109.049 152.674 107.929 152.674 106.534V106.426ZM154.218 106.609C154.218 107.605 154.448 108.405 154.907 109.008C155.372 109.611 155.992 109.913 156.767 109.913C157.547 109.913 158.167 109.608 158.626 109C159.085 108.385 159.315 107.528 159.315 106.426C159.315 105.441 159.08 104.644 158.609 104.036C158.145 103.421 157.525 103.114 156.75 103.114C155.992 103.114 155.38 103.416 154.916 104.019C154.451 104.622 154.218 105.486 154.218 106.609ZM168.321 110.112C167.724 110.815 166.847 111.166 165.69 111.166C164.733 111.166 164.002 110.889 163.499 110.336C163 109.777 162.749 108.952 162.743 107.862V102.019H164.279V107.821C164.279 109.182 164.832 109.863 165.939 109.863C167.112 109.863 167.892 109.426 168.28 108.551V102.019H169.815V111H168.354L168.321 110.112ZM176.498 103.396C176.265 103.358 176.013 103.338 175.742 103.338C174.735 103.338 174.052 103.767 173.692 104.625V111H172.156V102.019H173.65L173.675 103.056C174.179 102.254 174.893 101.853 175.817 101.853C176.116 101.853 176.343 101.891 176.498 101.969V103.396ZM185.736 109.913C186.284 109.913 186.763 109.747 187.172 109.415C187.582 109.083 187.809 108.667 187.853 108.169H189.306C189.278 108.684 189.101 109.174 188.774 109.639C188.448 110.104 188.011 110.474 187.463 110.751C186.921 111.028 186.345 111.166 185.736 111.166C184.513 111.166 183.539 110.759 182.814 109.946C182.095 109.127 181.735 108.009 181.735 106.592V106.335C181.735 105.461 181.896 104.683 182.217 104.002C182.538 103.322 182.997 102.793 183.595 102.417C184.198 102.041 184.909 101.853 185.728 101.853C186.735 101.853 187.571 102.154 188.235 102.757C188.904 103.361 189.261 104.144 189.306 105.106H187.853C187.809 104.525 187.587 104.049 187.189 103.679C186.796 103.302 186.309 103.114 185.728 103.114C184.948 103.114 184.342 103.396 183.91 103.961C183.484 104.52 183.271 105.331 183.271 106.393V106.684C183.271 107.718 183.484 108.515 183.91 109.074C184.336 109.633 184.945 109.913 185.736 109.913ZM190.625 106.426C190.625 105.546 190.797 104.755 191.14 104.052C191.489 103.349 191.97 102.807 192.584 102.425C193.204 102.043 193.91 101.853 194.701 101.853C195.924 101.853 196.912 102.276 197.665 103.123C198.423 103.969 198.802 105.095 198.802 106.501V106.609C198.802 107.483 198.633 108.269 198.295 108.966C197.963 109.658 197.485 110.198 196.859 110.585C196.24 110.972 195.526 111.166 194.718 111.166C193.5 111.166 192.513 110.743 191.754 109.896C191.002 109.049 190.625 107.929 190.625 106.534V106.426ZM192.169 106.609C192.169 107.605 192.399 108.405 192.858 109.008C193.323 109.611 193.943 109.913 194.718 109.913C195.498 109.913 196.118 109.608 196.577 109C197.036 108.385 197.266 107.528 197.266 106.426C197.266 105.441 197.031 104.644 196.561 104.036C196.096 103.421 195.476 103.114 194.701 103.114C193.943 103.114 193.332 103.416 192.867 104.019C192.402 104.622 192.169 105.486 192.169 106.609ZM202.18 102.019L202.23 103.147C202.916 102.284 203.813 101.853 204.919 101.853C206.818 101.853 207.775 102.923 207.792 105.065V111H206.256V105.057C206.25 104.409 206.101 103.931 205.808 103.621C205.52 103.311 205.069 103.156 204.455 103.156C203.957 103.156 203.519 103.289 203.143 103.554C202.767 103.82 202.473 104.168 202.263 104.6V111H200.728V102.019H202.18ZM211.56 102.019L211.61 103.147C212.296 102.284 213.193 101.853 214.299 101.853C216.197 101.853 217.155 102.923 217.171 105.065V111H215.636V105.057C215.63 104.409 215.481 103.931 215.188 103.621C214.9 103.311 214.449 103.156 213.834 103.156C213.336 103.156 212.899 103.289 212.523 103.554C212.147 103.82 211.853 104.168 211.643 104.6V111H210.107V102.019H211.56ZM223.214 111.166C221.997 111.166 221.006 110.768 220.243 109.971C219.479 109.168 219.097 108.097 219.097 106.758V106.476C219.097 105.585 219.266 104.791 219.604 104.094C219.947 103.391 220.423 102.843 221.031 102.45C221.646 102.052 222.31 101.853 223.023 101.853C224.191 101.853 225.099 102.237 225.746 103.006C226.394 103.776 226.717 104.877 226.717 106.31V106.949H220.633C220.655 107.835 220.912 108.551 221.405 109.099C221.903 109.641 222.534 109.913 223.297 109.913C223.84 109.913 224.299 109.802 224.675 109.581C225.052 109.359 225.381 109.066 225.663 108.701L226.601 109.431C225.848 110.588 224.72 111.166 223.214 111.166ZM223.023 103.114C222.404 103.114 221.883 103.341 221.463 103.795C221.042 104.243 220.782 104.874 220.683 105.688H225.182V105.571C225.137 104.791 224.927 104.188 224.551 103.762C224.174 103.33 223.665 103.114 223.023 103.114ZM232.104 109.913C232.652 109.913 233.131 109.747 233.541 109.415C233.95 109.083 234.177 108.667 234.221 108.169H235.674C235.646 108.684 235.469 109.174 235.143 109.639C234.816 110.104 234.379 110.474 233.831 110.751C233.289 111.028 232.713 111.166 232.104 111.166C230.882 111.166 229.908 110.759 229.183 109.946C228.463 109.127 228.104 108.009 228.104 106.592V106.335C228.104 105.461 228.264 104.683 228.585 104.002C228.906 103.322 229.365 102.793 229.963 102.417C230.566 102.041 231.277 101.853 232.096 101.853C233.103 101.853 233.939 102.154 234.603 102.757C235.273 103.361 235.63 104.144 235.674 105.106H234.221C234.177 104.525 233.956 104.049 233.557 103.679C233.164 103.302 232.677 103.114 232.096 103.114C231.316 103.114 230.71 103.396 230.278 103.961C229.852 104.52 229.639 105.331 229.639 106.393V106.684C229.639 107.718 229.852 108.515 230.278 109.074C230.704 109.633 231.313 109.913 232.104 109.913ZM239.484 99.8438V102.019H241.161V103.206H239.484V108.775C239.484 109.135 239.559 109.406 239.708 109.589C239.857 109.766 240.112 109.854 240.472 109.854C240.649 109.854 240.892 109.821 241.202 109.755V111C240.798 111.111 240.405 111.166 240.023 111.166C239.337 111.166 238.82 110.958 238.471 110.543C238.123 110.128 237.948 109.539 237.948 108.775V103.206H236.313V102.019H237.948V99.8438H239.484ZM246.689 111.166C245.472 111.166 244.481 110.768 243.717 109.971C242.954 109.168 242.572 108.097 242.572 106.758V106.476C242.572 105.585 242.741 104.791 243.078 104.094C243.421 103.391 243.897 102.843 244.506 102.45C245.12 102.052 245.784 101.853 246.498 101.853C247.666 101.853 248.573 102.237 249.221 103.006C249.868 103.776 250.192 104.877 250.192 106.31V106.949H244.107C244.13 107.835 244.387 108.551 244.879 109.099C245.377 109.641 246.008 109.913 246.772 109.913C247.314 109.913 247.774 109.802 248.15 109.581C248.526 109.359 248.855 109.066 249.138 108.701L250.076 109.431C249.323 110.588 248.194 111.166 246.689 111.166ZM246.498 103.114C245.878 103.114 245.358 103.341 244.938 103.795C244.517 104.243 244.257 104.874 244.157 105.688H248.656V105.571C248.612 104.791 248.402 104.188 248.025 103.762C247.649 103.33 247.14 103.114 246.498 103.114ZM251.603 106.435C251.603 105.057 251.93 103.95 252.583 103.114C253.236 102.273 254.09 101.853 255.147 101.853C256.199 101.853 257.032 102.212 257.646 102.932V98.25H259.182V111H257.771L257.696 110.037C257.082 110.79 256.227 111.166 255.131 111.166C254.09 111.166 253.241 110.74 252.583 109.888C251.93 109.035 251.603 107.923 251.603 106.551V106.435ZM253.139 106.609C253.139 107.627 253.349 108.424 253.77 109C254.19 109.575 254.771 109.863 255.513 109.863C256.487 109.863 257.198 109.426 257.646 108.551V104.426C257.187 103.579 256.481 103.156 255.529 103.156C254.777 103.156 254.19 103.446 253.77 104.027C253.349 104.608 253.139 105.469 253.139 106.609ZM267.873 99.8438V102.019H269.549V103.206H267.873V108.775C267.873 109.135 267.947 109.406 268.097 109.589C268.246 109.766 268.501 109.854 268.86 109.854C269.037 109.854 269.281 109.821 269.591 109.755V111C269.187 111.111 268.794 111.166 268.412 111.166C267.726 111.166 267.208 110.958 266.86 110.543C266.511 110.128 266.337 109.539 266.337 108.775V103.206H264.702V102.019H266.337V99.8438H267.873ZM270.778 106.426C270.778 105.546 270.949 104.755 271.292 104.052C271.641 103.349 272.123 102.807 272.737 102.425C273.357 102.043 274.062 101.853 274.854 101.853C276.076 101.853 277.064 102.276 277.817 103.123C278.575 103.969 278.954 105.095 278.954 106.501V106.609C278.954 107.483 278.785 108.269 278.448 108.966C278.116 109.658 277.637 110.198 277.012 110.585C276.392 110.972 275.678 111.166 274.87 111.166C273.653 111.166 272.665 110.743 271.907 109.896C271.154 109.049 270.778 107.929 270.778 106.534V106.426ZM272.322 106.609C272.322 107.605 272.551 108.405 273.011 109.008C273.476 109.611 274.095 109.913 274.87 109.913C275.65 109.913 276.27 109.608 276.729 109C277.189 108.385 277.418 107.528 277.418 106.426C277.418 105.441 277.183 104.644 276.713 104.036C276.248 103.421 275.628 103.114 274.854 103.114C274.095 103.114 273.484 103.416 273.019 104.019C272.554 104.622 272.322 105.486 272.322 106.609ZM280.473 106.426C280.473 105.546 280.645 104.755 280.988 104.052C281.336 103.349 281.818 102.807 282.432 102.425C283.052 102.043 283.757 101.853 284.549 101.853C285.772 101.853 286.76 102.276 287.512 103.123C288.27 103.969 288.649 105.095 288.649 106.501V106.609C288.649 107.483 288.481 108.269 288.143 108.966C287.811 109.658 287.332 110.198 286.707 110.585C286.087 110.972 285.373 111.166 284.565 111.166C283.348 111.166 282.36 110.743 281.602 109.896C280.849 109.049 280.473 107.929 280.473 106.534V106.426ZM282.017 106.609C282.017 107.605 282.247 108.405 282.706 109.008C283.171 109.611 283.791 109.913 284.565 109.913C285.346 109.913 285.965 109.608 286.425 109C286.884 108.385 287.114 107.528 287.114 106.426C287.114 105.441 286.879 104.644 286.408 104.036C285.943 103.421 285.324 103.114 284.549 103.114C283.791 103.114 283.179 103.416 282.714 104.019C282.25 104.622 282.017 105.486 282.017 106.609ZM292.244 111H290.708V98.25H292.244V111ZM299.938 108.618C299.938 108.203 299.781 107.882 299.465 107.655C299.155 107.422 298.61 107.223 297.83 107.057C297.055 106.891 296.438 106.692 295.979 106.459C295.525 106.227 295.188 105.95 294.966 105.629C294.75 105.308 294.643 104.927 294.643 104.484C294.643 103.748 294.952 103.125 295.572 102.616C296.198 102.107 296.994 101.853 297.963 101.853C298.981 101.853 299.806 102.115 300.437 102.641C301.073 103.167 301.391 103.839 301.391 104.658H299.847C299.847 104.238 299.667 103.875 299.308 103.571C298.953 103.266 298.505 103.114 297.963 103.114C297.404 103.114 296.967 103.236 296.651 103.479C296.336 103.723 296.178 104.041 296.178 104.434C296.178 104.805 296.325 105.084 296.618 105.272C296.911 105.461 297.44 105.64 298.204 105.812C298.973 105.984 299.595 106.188 300.071 106.426C300.547 106.664 300.899 106.952 301.125 107.29C301.358 107.622 301.474 108.028 301.474 108.51C301.474 109.312 301.153 109.957 300.511 110.444C299.869 110.925 299.036 111.166 298.013 111.166C297.293 111.166 296.657 111.039 296.104 110.784C295.55 110.53 295.116 110.175 294.8 109.722C294.49 109.262 294.335 108.767 294.335 108.236H295.871C295.899 108.75 296.104 109.16 296.485 109.464C296.873 109.763 297.382 109.913 298.013 109.913C298.594 109.913 299.059 109.796 299.407 109.564C299.761 109.326 299.938 109.011 299.938 108.618Z" fill="#949494"/>
</svg>
