<svg width="33" height="33" viewBox="0 0 33 33" fill="none" xmlns="http://www.w3.org/2000/svg">
<g clip-path="url(#clip0_1_1770)">
<path d="M24.8579 0.625H8.85791C4.43963 0.625 0.85791 4.20672 0.85791 8.625V24.625C0.85791 29.0433 4.43963 32.625 8.85791 32.625H24.8579C29.2762 32.625 32.8579 29.0433 32.8579 24.625V8.625C32.8579 4.20672 29.2762 0.625 24.8579 0.625Z" fill="#292929"/>
<path d="M18.8892 8.375C17.6262 8.375 16.6692 8.71354 16.0181 9.39062C15.328 10.1068 14.983 11.1875 14.983 12.6328V15.25H11.858V18.375H14.983V25.875H18.108V18.375H20.608L21.233 15.25H18.108V13.1602C18.108 12.5872 18.2121 12.1706 18.4205 11.9102C18.6418 11.6367 19.0064 11.5 19.5142 11.5H21.233V8.51172C20.595 8.42057 19.8137 8.375 18.8892 8.375Z" fill="#BFBFBF"/>
</g>
<defs>
<clipPath id="clip0_1_1770">
<rect width="33" height="32" fill="white" transform="translate(0 0.625)"/>
</clipPath>
</defs>
</svg>
