<svg width="33" height="33" viewBox="0 0 33 33" fill="none" xmlns="http://www.w3.org/2000/svg">
<g clip-path="url(#clip0_1_1767)">
<path d="M24.8579 0.625H8.85791C4.43963 0.625 0.85791 4.20672 0.85791 8.625V24.625C0.85791 29.0433 4.43963 32.625 8.85791 32.625H24.8579C29.2762 32.625 32.8579 29.0433 32.8579 24.625V8.625C32.8579 4.20672 29.2762 0.625 24.8579 0.625Z" fill="#292929"/>
<path d="M14.8658 9.62486C14.6705 9.61184 14.4817 9.64439 14.2994 9.72252C14.1171 9.78762 13.9608 9.89179 13.8306 10.035C13.7134 10.1783 13.6223 10.3345 13.5572 10.5038C13.453 10.7772 13.4075 11.1028 13.4205 11.4804C13.4335 12.0403 13.5637 12.7629 13.8111 13.6483C13.9413 14.1301 14.1171 14.677 14.3384 15.289C14.2473 15.2759 14.1431 15.2694 14.0259 15.2694C13.8046 15.2825 13.5897 15.3541 13.3814 15.4843C13.147 15.6405 12.9517 15.8358 12.7955 16.0702C12.6522 16.2916 12.5676 16.5259 12.5416 16.7733C12.5025 17.1119 12.5611 17.496 12.7173 17.9257C12.3397 17.9647 12.0338 18.095 11.7994 18.3163C11.4218 18.6809 11.233 19.2278 11.233 19.9569C11.233 20.9856 11.4804 21.871 11.9752 22.6132C12.4048 23.2512 12.9713 23.733 13.6744 24.0585C14.2082 24.3059 14.8072 24.4687 15.4713 24.5468C15.8228 24.5989 16.2395 24.6249 16.7213 24.6249H16.7603C17.9192 24.6249 18.9088 24.345 19.7291 23.7851C20.3671 23.3554 20.8684 22.7499 21.233 21.9687C21.6496 21.0832 21.858 20.022 21.858 18.7851V18.6679C21.884 18.3423 21.8775 18.0559 21.8384 17.8085C21.7733 17.3788 21.6236 17.0012 21.3892 16.6757C21.272 16.5194 21.0963 16.3502 20.8619 16.1679C21.1353 15.2564 21.3567 14.384 21.5259 13.5507C21.7082 12.6392 21.7929 11.9101 21.7798 11.3632C21.7668 10.9726 21.7147 10.6601 21.6236 10.4256C21.5585 10.2564 21.4543 10.1066 21.3111 9.97642C21.1679 9.83319 21.0051 9.74205 20.8228 9.70298C20.4322 9.61184 20.0546 9.67043 19.69 9.87877C19.4166 10.035 19.1561 10.2824 18.9088 10.621C18.5311 11.1418 18.1991 11.8384 17.9127 12.7108C17.8736 12.841 17.815 13.0364 17.7369 13.2968L17.6978 13.4726C17.5806 13.147 17.4634 12.841 17.3463 12.5546C16.9686 11.6561 16.591 10.966 16.2134 10.4842C15.953 10.1587 15.6861 9.92434 15.4127 9.78111C15.2304 9.68996 15.0481 9.63788 14.8658 9.62486ZM14.7681 10.8554C14.7811 10.8554 14.7942 10.8619 14.8072 10.8749L14.8463 10.8944C14.9504 10.9465 15.0806 11.0702 15.2369 11.2655C15.5494 11.6692 15.8619 12.2551 16.1744 13.0233C16.4999 13.7785 16.7668 14.5207 16.9752 15.2499H16.9361C16.7278 15.2499 16.5259 15.289 16.3306 15.3671C16.1353 15.4452 15.966 15.5559 15.8228 15.6991C15.4973 14.8918 15.2239 14.1041 15.0025 13.3358C14.7942 12.5676 14.6835 11.9426 14.6705 11.4608C14.6575 11.2395 14.677 11.0637 14.7291 10.9335L14.7681 10.8554ZM20.3931 10.953C20.4192 10.953 20.4452 10.953 20.4713 10.953C20.5103 11.0832 20.5298 11.2265 20.5298 11.3827C20.5429 11.8124 20.4647 12.4504 20.2955 13.2968C20.1522 14.0259 19.9634 14.7942 19.7291 15.6015C19.3645 15.4843 18.9673 15.3996 18.5377 15.3476C18.6809 14.5793 18.8697 13.8306 19.1041 13.1015C19.3515 12.3332 19.6184 11.7538 19.9048 11.3632C20.0481 11.1679 20.1783 11.0377 20.2955 10.9726C20.3215 10.9595 20.3541 10.953 20.3931 10.953ZM16.9361 16.4999C17.9778 16.4999 18.8046 16.6041 19.4166 16.8124C19.8723 16.9687 20.1978 17.177 20.3931 17.4374C20.4973 17.5806 20.5689 17.7499 20.608 17.9452C20.621 18.0624 20.621 18.2447 20.608 18.4921V18.7851C20.608 19.8658 20.4452 20.7512 20.1197 21.4413C19.8723 21.9882 19.5077 22.4244 19.0259 22.7499C18.414 23.1666 17.6588 23.3749 16.7603 23.3749C15.7056 23.3749 14.8528 23.2252 14.2017 22.9257C13.6548 22.6783 13.2512 22.3593 12.9908 21.9687C12.6522 21.4608 12.483 20.7903 12.483 19.9569C12.483 19.7486 12.509 19.5728 12.5611 19.4296C12.5871 19.3254 12.6197 19.2538 12.6588 19.2147C12.7108 19.1627 12.7629 19.1366 12.815 19.1366C12.8671 19.1236 12.9452 19.1301 13.0494 19.1561C13.2577 19.2082 13.5051 19.345 13.7916 19.5663C14.1171 19.8267 14.4231 20.1457 14.7095 20.5233C14.8397 20.6926 14.9765 20.9009 15.1197 21.1483C15.0936 21.1744 15.0546 21.2004 15.0025 21.2265C14.9634 21.2525 14.9244 21.2655 14.8853 21.2655C14.7811 21.2655 14.6575 21.2069 14.5142 21.0897C14.384 20.9595 14.1952 20.7056 13.9478 20.328L12.8931 21.0116C13.1796 21.4543 13.4465 21.7864 13.6939 22.0077C14.0715 22.3463 14.4686 22.5155 14.8853 22.5155C15.1197 22.5155 15.341 22.47 15.5494 22.3788C15.7577 22.2746 15.9335 22.1314 16.0767 21.9491C16.1158 21.9101 16.1483 21.8384 16.1744 21.7343L16.2134 21.6171C16.3176 21.9035 16.4218 22.1249 16.5259 22.2811C16.6301 22.4374 16.7603 22.5806 16.9166 22.7108L17.1119 22.8671L17.7955 21.8319L17.7369 21.7929C17.6848 21.7408 17.6262 21.6692 17.5611 21.578C17.3658 21.2916 17.2681 20.927 17.2681 20.4843C17.2681 20.289 17.3007 20.1262 17.3658 19.996C17.4569 19.8267 17.6327 19.6575 17.8931 19.4882C18.0364 19.397 18.1991 19.3189 18.3814 19.2538L18.5963 19.1952C18.7395 19.1692 18.8567 19.1041 18.9478 18.9999C19.039 18.8827 19.0845 18.7525 19.0845 18.6093C19.0845 18.466 19.0455 18.3358 18.9673 18.2187C18.8892 18.1015 18.7785 18.0233 18.6353 17.9843L16.858 17.4569C16.8059 17.4439 16.7603 17.4179 16.7213 17.3788L16.6822 17.3397L16.6041 17.203C16.565 17.1119 16.552 17.0077 16.565 16.8905C16.578 16.7733 16.6171 16.6822 16.6822 16.6171C16.7473 16.539 16.8319 16.4999 16.9361 16.4999ZM14.0455 16.5194C14.0585 16.5064 14.0715 16.5064 14.0845 16.5194L14.2213 16.5585C14.4035 16.6236 14.6119 16.7798 14.8463 17.0272C15.0936 17.2616 15.3345 17.5741 15.5689 17.9647C15.8163 18.3423 16.0246 18.7395 16.1939 19.1561C16.246 19.2994 16.259 19.397 16.233 19.4491C16.2069 19.5012 16.1353 19.5533 16.0181 19.6054C15.914 19.6575 15.7968 19.6835 15.6666 19.6835C15.6405 19.6835 15.621 19.677 15.608 19.664C15.5559 19.6249 15.5624 19.6249 15.6275 19.664C15.6405 19.69 15.6666 19.7226 15.7056 19.7616L15.6666 19.7811C15.2759 19.2473 14.8853 18.8306 14.4947 18.5311L14.2798 18.2382C14.1106 18.0038 13.9869 17.7825 13.9088 17.5741C13.8046 17.3267 13.7655 17.1054 13.7916 16.9101C13.8046 16.8189 13.8241 16.7473 13.8502 16.6952C13.8762 16.6431 13.9413 16.5845 14.0455 16.5194Z" fill="#BFBFBF"/>
</g>
<defs>
<clipPath id="clip0_1_1767">
<rect width="33" height="32" fill="white" transform="translate(0 0.625)"/>
</clipPath>
</defs>
</svg>
