<svg width="33" height="33" viewBox="0 0 33 33" fill="none" xmlns="http://www.w3.org/2000/svg">
<g clip-path="url(#clip0_1_1773)">
<path d="M24.8579 0.625H8.85791C4.43963 0.625 0.85791 4.20672 0.85791 8.625V24.625C0.85791 29.0433 4.43963 32.625 8.85791 32.625H24.8579C29.2762 32.625 32.8579 29.0433 32.8579 24.625V8.625C32.8579 4.20672 29.2762 0.625 24.8579 0.625Z" fill="#292929"/>
<path d="M12.2681 9.625C11.8124 9.625 11.4218 9.78776 11.0963 10.1133C10.7707 10.4258 10.608 10.8164 10.608 11.2852C10.608 11.7409 10.7707 12.1315 11.0963 12.457C11.4218 12.7826 11.8059 12.9453 12.2486 12.9453C12.7043 12.9453 13.095 12.7826 13.4205 12.457C13.746 12.1315 13.9088 11.7409 13.9088 11.2852C13.9088 10.8294 13.746 10.4388 13.4205 10.1133C13.108 9.78776 12.7239 9.625 12.2681 9.625ZM20.315 14C19.677 14 19.1236 14.1497 18.6548 14.4492C18.2772 14.6966 17.9778 15.0286 17.7564 15.4453H17.7173V14.1953H14.983V23.375H17.8345V18.8242C17.8345 18.3294 17.8606 17.9518 17.9127 17.6914C17.9908 17.3008 18.134 17.0078 18.3423 16.8125C18.5897 16.5911 18.9413 16.4805 19.397 16.4805C19.8528 16.4805 20.1978 16.6107 20.4322 16.8711C20.6275 17.0794 20.7577 17.3919 20.8228 17.8086C20.8619 18.056 20.8814 18.4206 20.8814 18.9023V23.375H23.733V18.3359C23.733 17.4115 23.6483 16.6693 23.4791 16.1094C23.2838 15.4323 22.9517 14.918 22.483 14.5664C21.9621 14.1888 21.2395 14 20.315 14ZM10.8423 14.1953V23.375H13.6939V14.1953H10.8423Z" fill="#BFBFBF"/>
</g>
<defs>
<clipPath id="clip0_1_1773">
<rect width="33" height="32" fill="white" transform="translate(0 0.625)"/>
</clipPath>
</defs>
</svg>
