<svg width="408" height="150" viewBox="0 0 408 150" fill="none" xmlns="http://www.w3.org/2000/svg">
<path d="M0 16C0 7.16345 7.16344 0 16 0H392C400.837 0 408 7.16344 408 16V134C408 142.837 400.837 150 392 150H16C7.16344 150 0 142.837 0 134V16Z" fill="#3E3E3E"/>
<path d="M72 72L102 42" stroke="black" stroke-width="2" stroke-linecap="round" stroke-linejoin="round"/>
<path d="M93.2122 50.7868C87.898 45.4831 80.7867 42.3671 73.2852 42.0554C65.7837 41.7436 58.4384 44.2588 52.7025 49.1033C46.9666 53.9478 43.2579 60.7687 42.3101 68.2167C41.3624 75.6646 43.2446 83.197 47.5844 89.3236C51.9242 95.4503 58.4055 99.7249 65.746 101.302C73.0865 102.879 80.7515 101.643 87.2247 97.8394C93.6978 94.0357 98.5075 87.9409 100.702 80.7609C102.897 73.5808 102.317 65.8385 99.0766 59.0657" stroke="black" stroke-width="2" stroke-linecap="round" stroke-linejoin="round"/>
<path d="M82.6067 61.3933C80.1268 58.9135 76.8564 57.3811 73.3639 57.0623C69.8714 56.7436 66.3776 57.6587 63.4898 59.6485C60.602 61.6384 58.5027 64.5773 57.5568 67.9544C56.611 71.3314 56.8783 74.9331 58.3124 78.1335C59.7465 81.3339 62.2567 83.9307 65.4066 85.4724C68.5566 87.0141 72.1472 87.4033 75.5544 86.5725C78.9615 85.7416 81.9699 83.7431 84.0565 80.9244C86.1431 78.1056 87.176 74.6448 86.9758 71.1436" stroke="black" stroke-width="2" stroke-linecap="round" stroke-linejoin="round"/>
<path d="M158.578 56.7617C158 57.5898 157.191 58.2109 156.152 58.625C155.121 59.0312 153.918 59.2344 152.543 59.2344C151.152 59.2344 149.918 58.9102 148.84 58.2617C147.762 57.6055 146.926 56.6758 146.332 55.4727C145.746 54.2695 145.445 52.875 145.43 51.2891V49.8008C145.43 47.2305 146.027 45.2383 147.223 43.8242C148.426 42.4102 150.113 41.7031 152.285 41.7031C154.066 41.7031 155.5 42.1602 156.586 43.0742C157.672 43.9805 158.336 45.2695 158.578 46.9414H156.328C155.906 44.6836 154.562 43.5547 152.297 43.5547C150.789 43.5547 149.645 44.0859 148.863 45.1484C148.09 46.2031 147.699 47.7344 147.691 49.7422V51.1367C147.691 53.0508 148.129 54.5742 149.004 55.707C149.879 56.832 151.062 57.3945 152.555 57.3945C153.398 57.3945 154.137 57.3008 154.77 57.1133C155.402 56.9258 155.926 56.6094 156.34 56.1641V52.332H152.391V50.5039H158.578V56.7617ZM161.426 52.543C161.426 51.3008 161.668 50.1836 162.152 49.1914C162.645 48.1992 163.324 47.4336 164.191 46.8945C165.066 46.3555 166.062 46.0859 167.18 46.0859C168.906 46.0859 170.301 46.6836 171.363 47.8789C172.434 49.0742 172.969 50.6641 172.969 52.6484V52.8008C172.969 54.0352 172.73 55.1445 172.254 56.1289C171.785 57.1055 171.109 57.8672 170.227 58.4141C169.352 58.9609 168.344 59.2344 167.203 59.2344C165.484 59.2344 164.09 58.6367 163.02 57.4414C161.957 56.2461 161.426 54.6641 161.426 52.6953V52.543ZM163.605 52.8008C163.605 54.207 163.93 55.3359 164.578 56.1875C165.234 57.0391 166.109 57.4648 167.203 57.4648C168.305 57.4648 169.18 57.0352 169.828 56.1758C170.477 55.3086 170.801 54.0977 170.801 52.543C170.801 51.1523 170.469 50.0273 169.805 49.168C169.148 48.3008 168.273 47.8672 167.18 47.8672C166.109 47.8672 165.246 48.293 164.59 49.1445C163.934 49.9961 163.605 51.2148 163.605 52.8008ZM183.516 59C183.391 58.75 183.289 58.3047 183.211 57.6641C182.203 58.7109 181 59.2344 179.602 59.2344C178.352 59.2344 177.324 58.8828 176.52 58.1797C175.723 57.4688 175.324 56.5703 175.324 55.4844C175.324 54.1641 175.824 53.1406 176.824 52.4141C177.832 51.6797 179.246 51.3125 181.066 51.3125H183.176V50.3164C183.176 49.5586 182.949 48.957 182.496 48.5117C182.043 48.0586 181.375 47.832 180.492 47.832C179.719 47.832 179.07 48.0273 178.547 48.418C178.023 48.8086 177.762 49.2812 177.762 49.8359H175.582C175.582 49.2031 175.805 48.5938 176.25 48.0078C176.703 47.4141 177.312 46.9453 178.078 46.6016C178.852 46.2578 179.699 46.0859 180.621 46.0859C182.082 46.0859 183.227 46.4531 184.055 47.1875C184.883 47.9141 185.312 48.918 185.344 50.1992V56.0352C185.344 57.1992 185.492 58.125 185.789 58.8125V59H183.516ZM179.918 57.3477C180.598 57.3477 181.242 57.1719 181.852 56.8203C182.461 56.4688 182.902 56.0117 183.176 55.4492V52.8477H181.477C178.82 52.8477 177.492 53.625 177.492 55.1797C177.492 55.8594 177.719 56.3906 178.172 56.7734C178.625 57.1562 179.207 57.3477 179.918 57.3477ZM191.098 59H188.93V41H191.098V59ZM201.961 55.6367C201.961 55.0508 201.738 54.5977 201.293 54.2773C200.855 53.9492 200.086 53.668 198.984 53.4336C197.891 53.1992 197.02 52.918 196.371 52.5898C195.73 52.2617 195.254 51.8711 194.941 51.418C194.637 50.9648 194.484 50.4258 194.484 49.8008C194.484 48.7617 194.922 47.8828 195.797 47.1641C196.68 46.4453 197.805 46.0859 199.172 46.0859C200.609 46.0859 201.773 46.457 202.664 47.1992C203.562 47.9414 204.012 48.8906 204.012 50.0469H201.832C201.832 49.4531 201.578 48.9414 201.07 48.5117C200.57 48.082 199.938 47.8672 199.172 47.8672C198.383 47.8672 197.766 48.0391 197.32 48.3828C196.875 48.7266 196.652 49.1758 196.652 49.7305C196.652 50.2539 196.859 50.6484 197.273 50.9141C197.688 51.1797 198.434 51.4336 199.512 51.6758C200.598 51.918 201.477 52.207 202.148 52.543C202.82 52.8789 203.316 53.2852 203.637 53.7617C203.965 54.2305 204.129 54.8047 204.129 55.4844C204.129 56.6172 203.676 57.5273 202.77 58.2148C201.863 58.8945 200.688 59.2344 199.242 59.2344C198.227 59.2344 197.328 59.0547 196.547 58.6953C195.766 58.3359 195.152 57.8359 194.707 57.1953C194.27 56.5469 194.051 55.8477 194.051 55.0977H196.219C196.258 55.8242 196.547 56.4023 197.086 56.832C197.633 57.2539 198.352 57.4648 199.242 57.4648C200.062 57.4648 200.719 57.3008 201.211 56.9727C201.711 56.6367 201.961 56.1914 201.961 55.6367Z" fill="#FFFEF8"/>
<path d="M148.964 81.6128C147.597 81.2199 146.601 80.7384 145.976 80.1685C145.356 79.5929 145.046 78.8846 145.046 78.0435C145.046 77.0916 145.425 76.3058 146.183 75.686C146.947 75.0607 147.937 74.748 149.155 74.748C149.985 74.748 150.724 74.9085 151.371 75.2295C152.024 75.5505 152.528 75.9932 152.882 76.5576C153.242 77.1221 153.421 77.7391 153.421 78.4087H151.819C151.819 77.6782 151.587 77.1055 151.122 76.6904C150.657 76.2699 150.001 76.0596 149.155 76.0596C148.369 76.0596 147.755 76.2339 147.312 76.5825C146.875 76.9256 146.656 77.4043 146.656 78.0186C146.656 78.5111 146.864 78.9289 147.279 79.272C147.699 79.6095 148.41 79.9194 149.412 80.2017C150.419 80.4839 151.205 80.7965 151.77 81.1396C152.34 81.4772 152.76 81.8729 153.031 82.3267C153.308 82.7804 153.446 83.3145 153.446 83.9287C153.446 84.9082 153.064 85.694 152.301 86.2861C151.537 86.8727 150.516 87.166 149.238 87.166C148.408 87.166 147.633 87.0083 146.914 86.6929C146.194 86.3719 145.638 85.9347 145.245 85.3813C144.858 84.828 144.664 84.1999 144.664 83.4971H146.266C146.266 84.2275 146.535 84.8058 147.071 85.2319C147.614 85.6525 148.336 85.8628 149.238 85.8628C150.079 85.8628 150.724 85.6912 151.172 85.3481C151.62 85.005 151.844 84.5374 151.844 83.9453C151.844 83.3532 151.637 82.8966 151.222 82.5757C150.807 82.2492 150.054 81.9282 148.964 81.6128ZM158.983 87.166C157.765 87.166 156.775 86.7676 156.011 85.9707C155.248 85.1683 154.866 84.0975 154.866 82.7583V82.4761C154.866 81.5851 155.035 80.791 155.372 80.0938C155.715 79.391 156.191 78.8431 156.8 78.4502C157.414 78.0518 158.078 77.8525 158.792 77.8525C159.96 77.8525 160.867 78.2371 161.515 79.0063C162.162 79.7756 162.486 80.8768 162.486 82.3101V82.9492H156.401C156.424 83.8346 156.681 84.5513 157.173 85.0991C157.671 85.6414 158.302 85.9126 159.066 85.9126C159.608 85.9126 160.068 85.8019 160.444 85.5806C160.82 85.3592 161.149 85.0659 161.432 84.7007L162.37 85.4312C161.617 86.5877 160.488 87.166 158.983 87.166ZM158.792 79.1143C158.172 79.1143 157.652 79.3411 157.231 79.7949C156.811 80.2432 156.551 80.874 156.451 81.6875H160.95V81.5713C160.906 80.791 160.696 80.1878 160.319 79.7617C159.943 79.3301 159.434 79.1143 158.792 79.1143ZM166.354 75.8438V78.0186H168.031V79.2056H166.354V84.7754C166.354 85.1351 166.429 85.4062 166.578 85.5889C166.728 85.766 166.982 85.8545 167.342 85.8545C167.519 85.8545 167.762 85.8213 168.072 85.7549V87C167.668 87.1107 167.275 87.166 166.894 87.166C166.207 87.166 165.69 86.9585 165.341 86.5435C164.993 86.1284 164.818 85.5391 164.818 84.7754V79.2056H163.183V78.0186H164.818V75.8438H166.354ZM179.594 87C179.505 86.8229 179.433 86.5075 179.378 86.0537C178.664 86.7952 177.812 87.166 176.821 87.166C175.936 87.166 175.208 86.917 174.638 86.4189C174.074 85.9154 173.792 85.279 173.792 84.5098C173.792 83.5745 174.146 82.8496 174.854 82.335C175.568 81.8148 176.569 81.5547 177.859 81.5547H179.353V80.8491C179.353 80.3123 179.193 79.8862 178.872 79.5708C178.551 79.2498 178.077 79.0894 177.452 79.0894C176.904 79.0894 176.445 79.2277 176.074 79.5044C175.703 79.7811 175.518 80.1159 175.518 80.5088H173.974C173.974 80.0605 174.132 79.6289 174.447 79.2139C174.768 78.7933 175.2 78.4613 175.742 78.2178C176.29 77.9743 176.89 77.8525 177.543 77.8525C178.578 77.8525 179.389 78.1126 179.976 78.6328C180.562 79.1475 180.867 79.8586 180.889 80.7661V84.8999C180.889 85.7244 180.994 86.3802 181.204 86.8672V87H179.594ZM177.045 85.8296C177.527 85.8296 177.983 85.7051 178.415 85.4561C178.847 85.207 179.159 84.8833 179.353 84.4849V82.6421H178.149C176.268 82.6421 175.327 83.1927 175.327 84.2939C175.327 84.7754 175.488 85.1517 175.809 85.4229C176.13 85.694 176.542 85.8296 177.045 85.8296ZM184.749 78.0186L184.798 79.1475C185.485 78.2842 186.381 77.8525 187.488 77.8525C189.386 77.8525 190.343 78.9233 190.36 81.0649V87H188.824V81.0566C188.819 80.4092 188.669 79.9305 188.376 79.6206C188.088 79.3107 187.637 79.1558 187.023 79.1558C186.525 79.1558 186.088 79.2886 185.711 79.5542C185.335 79.8198 185.042 80.1685 184.832 80.6001V87H183.296V78.0186H184.749ZM192.302 82.4346C192.302 81.0566 192.629 79.9499 193.282 79.1143C193.935 78.2731 194.79 77.8525 195.847 77.8525C196.898 77.8525 197.731 78.2122 198.345 78.9316V74.25H199.881V87H198.47L198.395 86.0371C197.781 86.7897 196.926 87.166 195.83 87.166C194.79 87.166 193.94 86.7399 193.282 85.8877C192.629 85.0355 192.302 83.9232 192.302 82.5508V82.4346ZM193.838 82.6089C193.838 83.6271 194.048 84.424 194.469 84.9995C194.889 85.575 195.47 85.8628 196.212 85.8628C197.186 85.8628 197.897 85.4256 198.345 84.5513V80.4258C197.886 79.5791 197.18 79.1558 196.229 79.1558C195.476 79.1558 194.889 79.4463 194.469 80.0273C194.048 80.6084 193.838 81.4689 193.838 82.6089ZM208.572 75.8438V78.0186H210.249V79.2056H208.572V84.7754C208.572 85.1351 208.646 85.4062 208.796 85.5889C208.945 85.766 209.2 85.8545 209.56 85.8545C209.737 85.8545 209.98 85.8213 210.29 85.7549V87C209.886 87.1107 209.493 87.166 209.111 87.166C208.425 87.166 207.908 86.9585 207.559 86.5435C207.21 86.1284 207.036 85.5391 207.036 84.7754V79.2056H205.401V78.0186H207.036V75.8438H208.572ZM216.391 79.3965C216.159 79.3577 215.907 79.3384 215.636 79.3384C214.629 79.3384 213.945 79.7673 213.585 80.625V87H212.05V78.0186H213.544L213.569 79.0562C214.072 78.2537 214.786 77.8525 215.71 77.8525C216.009 77.8525 216.236 77.8913 216.391 77.9688V79.3965ZM223.023 87C222.935 86.8229 222.863 86.5075 222.808 86.0537C222.094 86.7952 221.242 87.166 220.251 87.166C219.366 87.166 218.638 86.917 218.068 86.4189C217.503 85.9154 217.221 85.279 217.221 84.5098C217.221 83.5745 217.575 82.8496 218.284 82.335C218.998 81.8148 219.999 81.5547 221.289 81.5547H222.783V80.8491C222.783 80.3123 222.622 79.8862 222.301 79.5708C221.98 79.2498 221.507 79.0894 220.882 79.0894C220.334 79.0894 219.875 79.2277 219.504 79.5044C219.133 79.7811 218.948 80.1159 218.948 80.5088H217.404C217.404 80.0605 217.562 79.6289 217.877 79.2139C218.198 78.7933 218.63 78.4613 219.172 78.2178C219.72 77.9743 220.32 77.8525 220.973 77.8525C222.008 77.8525 222.819 78.1126 223.405 78.6328C223.992 79.1475 224.296 79.8586 224.318 80.7661V84.8999C224.318 85.7244 224.424 86.3802 224.634 86.8672V87H223.023ZM220.475 85.8296C220.957 85.8296 221.413 85.7051 221.845 85.4561C222.276 85.207 222.589 84.8833 222.783 84.4849V82.6421H221.579C219.698 82.6421 218.757 83.1927 218.757 84.2939C218.757 84.7754 218.917 85.1517 219.238 85.4229C219.559 85.694 219.972 85.8296 220.475 85.8296ZM230.328 85.9126C230.876 85.9126 231.355 85.7466 231.764 85.4146C232.174 85.0825 232.401 84.6675 232.445 84.1694H233.897C233.87 84.6841 233.693 85.1738 233.366 85.6387C233.04 86.1035 232.603 86.4743 232.055 86.751C231.512 87.0277 230.937 87.166 230.328 87.166C229.105 87.166 228.131 86.7593 227.406 85.9458C226.687 85.1268 226.327 84.009 226.327 82.5923V82.335C226.327 81.4606 226.488 80.6831 226.809 80.0024C227.13 79.3218 227.589 78.7933 228.187 78.417C228.79 78.0407 229.501 77.8525 230.32 77.8525C231.327 77.8525 232.163 78.1541 232.827 78.7573C233.496 79.3605 233.853 80.1436 233.897 81.1064H232.445C232.401 80.5254 232.179 80.0495 231.781 79.6787C231.388 79.3024 230.901 79.1143 230.32 79.1143C229.54 79.1143 228.934 79.3965 228.502 79.9609C228.076 80.5199 227.863 81.3306 227.863 82.3931V82.6836C227.863 83.7184 228.076 84.5153 228.502 85.0742C228.928 85.6331 229.537 85.9126 230.328 85.9126ZM238.131 82.8413L237.168 83.8457V87H235.632V74.25H237.168V81.9614L237.99 80.9736L240.787 78.0186H242.655L239.16 81.7705L243.062 87H241.26L238.131 82.8413ZM248.092 82.4346C248.092 81.0345 248.416 79.9222 249.063 79.0977C249.71 78.2676 250.568 77.8525 251.636 77.8525C252.732 77.8525 253.587 78.2399 254.201 79.0146L254.276 78.0186H255.679V86.7842C255.679 87.9463 255.333 88.8621 254.641 89.5317C253.955 90.2013 253.031 90.5361 251.869 90.5361C251.221 90.5361 250.588 90.3978 249.968 90.1211C249.348 89.8444 248.875 89.4653 248.548 88.9839L249.345 88.0625C250.004 88.876 250.809 89.2827 251.761 89.2827C252.508 89.2827 253.089 89.0724 253.504 88.6519C253.924 88.2313 254.135 87.6392 254.135 86.8755V86.1035C253.521 86.8118 252.682 87.166 251.62 87.166C250.568 87.166 249.716 86.7427 249.063 85.896C248.416 85.0493 248.092 83.8955 248.092 82.4346ZM249.636 82.6089C249.636 83.6216 249.843 84.4185 250.258 84.9995C250.673 85.575 251.254 85.8628 252.001 85.8628C252.97 85.8628 253.681 85.4229 254.135 84.543V80.4424C253.664 79.5846 252.959 79.1558 252.018 79.1558C251.271 79.1558 250.687 79.4463 250.267 80.0273C249.846 80.6084 249.636 81.4689 249.636 82.6089ZM257.596 82.4263C257.596 81.5464 257.768 80.755 258.111 80.0522C258.459 79.3494 258.941 78.8071 259.555 78.4253C260.175 78.0435 260.881 77.8525 261.672 77.8525C262.895 77.8525 263.883 78.2759 264.635 79.1226C265.393 79.9692 265.772 81.0954 265.772 82.501V82.6089C265.772 83.4832 265.604 84.269 265.266 84.9663C264.934 85.658 264.455 86.1976 263.83 86.585C263.21 86.9723 262.496 87.166 261.688 87.166C260.471 87.166 259.483 86.7427 258.725 85.896C257.972 85.0493 257.596 83.9287 257.596 82.5342V82.4263ZM259.14 82.6089C259.14 83.605 259.37 84.4046 259.829 85.0078C260.294 85.611 260.914 85.9126 261.688 85.9126C262.469 85.9126 263.089 85.6082 263.548 84.9995C264.007 84.3853 264.237 83.5275 264.237 82.4263C264.237 81.4412 264.002 80.6444 263.531 80.0356C263.066 79.4214 262.447 79.1143 261.672 79.1143C260.914 79.1143 260.302 79.4159 259.837 80.019C259.373 80.6222 259.14 81.4855 259.14 82.6089ZM273.243 87C273.155 86.8229 273.083 86.5075 273.027 86.0537C272.313 86.7952 271.461 87.166 270.471 87.166C269.585 87.166 268.858 86.917 268.288 86.4189C267.723 85.9154 267.441 85.279 267.441 84.5098C267.441 83.5745 267.795 82.8496 268.503 82.335C269.217 81.8148 270.219 81.5547 271.508 81.5547H273.002V80.8491C273.002 80.3123 272.842 79.8862 272.521 79.5708C272.2 79.2498 271.727 79.0894 271.102 79.0894C270.554 79.0894 270.094 79.2277 269.724 79.5044C269.353 79.7811 269.167 80.1159 269.167 80.5088H267.624C267.624 80.0605 267.781 79.6289 268.097 79.2139C268.418 78.7933 268.849 78.4613 269.392 78.2178C269.939 77.9743 270.54 77.8525 271.193 77.8525C272.228 77.8525 273.038 78.1126 273.625 78.6328C274.212 79.1475 274.516 79.8586 274.538 80.7661V84.8999C274.538 85.7244 274.643 86.3802 274.854 86.8672V87H273.243ZM270.695 85.8296C271.176 85.8296 271.633 85.7051 272.064 85.4561C272.496 85.207 272.809 84.8833 273.002 84.4849V82.6421H271.799C269.917 82.6421 268.977 83.1927 268.977 84.2939C268.977 84.7754 269.137 85.1517 269.458 85.4229C269.779 85.694 270.191 85.8296 270.695 85.8296ZM278.614 87H277.078V74.25H278.614V87ZM286.309 84.6177C286.309 84.2026 286.151 83.8817 285.835 83.6548C285.526 83.4224 284.98 83.2231 284.2 83.0571C283.425 82.8911 282.808 82.6919 282.349 82.4595C281.895 82.2271 281.558 81.9504 281.336 81.6294C281.121 81.3084 281.013 80.9266 281.013 80.4839C281.013 79.7479 281.323 79.1253 281.942 78.6162C282.568 78.1071 283.365 77.8525 284.333 77.8525C285.351 77.8525 286.176 78.1154 286.807 78.6411C287.443 79.1668 287.761 79.8392 287.761 80.6582H286.217C286.217 80.2376 286.037 79.8752 285.678 79.5708C285.324 79.2664 284.875 79.1143 284.333 79.1143C283.774 79.1143 283.337 79.236 283.021 79.4795C282.706 79.723 282.548 80.0412 282.548 80.4341C282.548 80.8049 282.695 81.0843 282.988 81.2725C283.282 81.4606 283.81 81.6405 284.574 81.812C285.343 81.9836 285.965 82.1883 286.441 82.4263C286.917 82.6642 287.269 82.952 287.496 83.2896C287.728 83.6216 287.844 84.0283 287.844 84.5098C287.844 85.3122 287.523 85.9569 286.881 86.4438C286.239 86.9253 285.407 87.166 284.383 87.166C283.663 87.166 283.027 87.0387 282.474 86.7842C281.92 86.5296 281.486 86.1755 281.17 85.7217C280.861 85.2624 280.706 84.7671 280.706 84.2358H282.241C282.269 84.7505 282.474 85.16 282.855 85.4644C283.243 85.7632 283.752 85.9126 284.383 85.9126C284.964 85.9126 285.429 85.7964 285.777 85.564C286.132 85.326 286.309 85.0106 286.309 84.6177ZM296.145 75.8438V78.0186H297.822V79.2056H296.145V84.7754C296.145 85.1351 296.22 85.4062 296.369 85.5889C296.519 85.766 296.773 85.8545 297.133 85.8545C297.31 85.8545 297.553 85.8213 297.863 85.7549V87C297.459 87.1107 297.066 87.166 296.685 87.166C295.998 87.166 295.481 86.9585 295.132 86.5435C294.784 86.1284 294.609 85.5391 294.609 84.7754V79.2056H292.974V78.0186H294.609V75.8438H296.145ZM301.159 79.106C301.839 78.2703 302.725 77.8525 303.815 77.8525C305.713 77.8525 306.67 78.9233 306.687 81.0649V87H305.151V81.0566C305.146 80.4092 304.996 79.9305 304.703 79.6206C304.415 79.3107 303.964 79.1558 303.35 79.1558C302.852 79.1558 302.415 79.2886 302.039 79.5542C301.662 79.8198 301.369 80.1685 301.159 80.6001V87H299.623V74.25H301.159V79.106ZM314.531 87C314.443 86.8229 314.371 86.5075 314.315 86.0537C313.602 86.7952 312.749 87.166 311.759 87.166C310.873 87.166 310.146 86.917 309.576 86.4189C309.011 85.9154 308.729 85.279 308.729 84.5098C308.729 83.5745 309.083 82.8496 309.792 82.335C310.505 81.8148 311.507 81.5547 312.796 81.5547H314.291V80.8491C314.291 80.3123 314.13 79.8862 313.809 79.5708C313.488 79.2498 313.015 79.0894 312.39 79.0894C311.842 79.0894 311.382 79.2277 311.012 79.5044C310.641 79.7811 310.456 80.1159 310.456 80.5088H308.912C308.912 80.0605 309.069 79.6289 309.385 79.2139C309.706 78.7933 310.137 78.4613 310.68 78.2178C311.228 77.9743 311.828 77.8525 312.481 77.8525C313.516 77.8525 314.326 78.1126 314.913 78.6328C315.5 79.1475 315.804 79.8586 315.826 80.7661V84.8999C315.826 85.7244 315.931 86.3802 316.142 86.8672V87H314.531ZM311.983 85.8296C312.464 85.8296 312.921 85.7051 313.353 85.4561C313.784 85.207 314.097 84.8833 314.291 84.4849V82.6421H313.087C311.205 82.6421 310.265 83.1927 310.265 84.2939C310.265 84.7754 310.425 85.1517 310.746 85.4229C311.067 85.694 311.479 85.8296 311.983 85.8296ZM320.317 75.8438V78.0186H321.994V79.2056H320.317V84.7754C320.317 85.1351 320.392 85.4062 320.541 85.5889C320.69 85.766 320.945 85.8545 321.305 85.8545C321.482 85.8545 321.725 85.8213 322.035 85.7549V87C321.631 87.1107 321.238 87.166 320.856 87.166C320.17 87.166 319.653 86.9585 319.304 86.5435C318.956 86.1284 318.781 85.5391 318.781 84.7754V79.2056H317.146V78.0186H318.781V75.8438H320.317ZM333.557 87C333.468 86.8229 333.396 86.5075 333.341 86.0537C332.627 86.7952 331.775 87.166 330.784 87.166C329.899 87.166 329.171 86.917 328.601 86.4189C328.037 85.9154 327.754 85.279 327.754 84.5098C327.754 83.5745 328.109 82.8496 328.817 82.335C329.531 81.8148 330.532 81.5547 331.822 81.5547H333.316V80.8491C333.316 80.3123 333.155 79.8862 332.834 79.5708C332.514 79.2498 332.04 79.0894 331.415 79.0894C330.867 79.0894 330.408 79.2277 330.037 79.5044C329.666 79.7811 329.481 80.1159 329.481 80.5088H327.937C327.937 80.0605 328.095 79.6289 328.41 79.2139C328.731 78.7933 329.163 78.4613 329.705 78.2178C330.253 77.9743 330.853 77.8525 331.506 77.8525C332.541 77.8525 333.352 78.1126 333.938 78.6328C334.525 79.1475 334.829 79.8586 334.852 80.7661V84.8999C334.852 85.7244 334.957 86.3802 335.167 86.8672V87H333.557ZM331.008 85.8296C331.49 85.8296 331.946 85.7051 332.378 85.4561C332.81 85.207 333.122 84.8833 333.316 84.4849V82.6421H332.112C330.231 82.6421 329.29 83.1927 329.29 84.2939C329.29 84.7754 329.451 85.1517 329.771 85.4229C330.092 85.694 330.505 85.8296 331.008 85.8296ZM341.6 79.3965C341.368 79.3577 341.116 79.3384 340.845 79.3384C339.838 79.3384 339.154 79.7673 338.794 80.625V87H337.259V78.0186H338.753L338.778 79.0562C339.281 78.2537 339.995 77.8525 340.919 77.8525C341.218 77.8525 341.445 77.8913 341.6 77.9688V79.3965ZM346.581 87.166C345.363 87.166 344.373 86.7676 343.609 85.9707C342.845 85.1683 342.463 84.0975 342.463 82.7583V82.4761C342.463 81.5851 342.632 80.791 342.97 80.0938C343.313 79.391 343.789 78.8431 344.397 78.4502C345.012 78.0518 345.676 77.8525 346.39 77.8525C347.557 77.8525 348.465 78.2371 349.112 79.0063C349.76 79.7756 350.083 80.8768 350.083 82.3101V82.9492H343.999C344.021 83.8346 344.278 84.5513 344.771 85.0991C345.269 85.6414 345.9 85.9126 346.664 85.9126C347.206 85.9126 347.665 85.8019 348.042 85.5806C348.418 85.3592 348.747 85.0659 349.029 84.7007L349.967 85.4312C349.215 86.5877 348.086 87.166 346.581 87.166ZM346.39 79.1143C345.77 79.1143 345.25 79.3411 344.829 79.7949C344.409 80.2432 344.148 80.874 344.049 81.6875H348.548V81.5713C348.504 80.791 348.293 80.1878 347.917 79.7617C347.541 79.3301 347.032 79.1143 346.39 79.1143ZM148.125 108.917L150.35 102.019H151.919L148.698 111H147.528L144.274 102.019H145.843L148.125 108.917ZM155.065 111H153.529V102.019H155.065V111ZM153.405 99.6362C153.405 99.3872 153.479 99.1769 153.629 99.0054C153.784 98.8338 154.011 98.748 154.31 98.748C154.608 98.748 154.835 98.8338 154.99 99.0054C155.145 99.1769 155.223 99.3872 155.223 99.6362C155.223 99.8853 155.145 100.093 154.99 100.259C154.835 100.425 154.608 100.508 154.31 100.508C154.011 100.508 153.784 100.425 153.629 100.259C153.479 100.093 153.405 99.8853 153.405 99.6362ZM162.76 108.618C162.76 108.203 162.602 107.882 162.287 107.655C161.977 107.422 161.432 107.223 160.651 107.057C159.877 106.891 159.26 106.692 158.8 106.459C158.347 106.227 158.009 105.95 157.788 105.629C157.572 105.308 157.464 104.927 157.464 104.484C157.464 103.748 157.774 103.125 158.394 102.616C159.019 102.107 159.816 101.853 160.784 101.853C161.802 101.853 162.627 102.115 163.258 102.641C163.894 103.167 164.212 103.839 164.212 104.658H162.668C162.668 104.238 162.489 103.875 162.129 103.571C161.775 103.266 161.326 103.114 160.784 103.114C160.225 103.114 159.788 103.236 159.473 103.479C159.157 103.723 159 104.041 159 104.434C159 104.805 159.146 105.084 159.439 105.272C159.733 105.461 160.261 105.64 161.025 105.812C161.794 105.984 162.417 106.188 162.893 106.426C163.368 106.664 163.72 106.952 163.947 107.29C164.179 107.622 164.295 108.028 164.295 108.51C164.295 109.312 163.974 109.957 163.333 110.444C162.691 110.925 161.858 111.166 160.834 111.166C160.115 111.166 159.478 111.039 158.925 110.784C158.371 110.53 157.937 110.175 157.622 109.722C157.312 109.262 157.157 108.767 157.157 108.236H158.692C158.72 108.75 158.925 109.16 159.307 109.464C159.694 109.763 160.203 109.913 160.834 109.913C161.415 109.913 161.88 109.796 162.229 109.564C162.583 109.326 162.76 109.011 162.76 108.618ZM167.964 111H166.429V102.019H167.964V111ZM166.304 99.6362C166.304 99.3872 166.379 99.1769 166.528 99.0054C166.683 98.8338 166.91 98.748 167.209 98.748C167.508 98.748 167.735 98.8338 167.89 99.0054C168.045 99.1769 168.122 99.3872 168.122 99.6362C168.122 99.8853 168.045 100.093 167.89 100.259C167.735 100.425 167.508 100.508 167.209 100.508C166.91 100.508 166.683 100.425 166.528 100.259C166.379 100.093 166.304 99.8853 166.304 99.6362ZM178.033 106.609C178.033 107.981 177.718 109.085 177.087 109.921C176.456 110.751 175.609 111.166 174.547 111.166C173.412 111.166 172.535 110.765 171.916 109.962L171.841 111H170.43V98.25H171.965V103.006C172.585 102.237 173.44 101.853 174.53 101.853C175.62 101.853 176.475 102.265 177.095 103.089C177.721 103.914 178.033 105.043 178.033 106.476V106.609ZM176.498 106.435C176.498 105.389 176.296 104.581 175.892 104.011C175.488 103.441 174.907 103.156 174.148 103.156C173.136 103.156 172.408 103.626 171.965 104.567V108.452C172.436 109.392 173.169 109.863 174.165 109.863C174.901 109.863 175.474 109.578 175.883 109.008C176.293 108.438 176.498 107.58 176.498 106.435ZM181.644 111H180.108V98.25H181.644V111ZM187.836 111.166C186.619 111.166 185.628 110.768 184.865 109.971C184.101 109.168 183.719 108.097 183.719 106.758V106.476C183.719 105.585 183.888 104.791 184.226 104.094C184.569 103.391 185.045 102.843 185.653 102.45C186.268 102.052 186.932 101.853 187.646 101.853C188.813 101.853 189.721 102.237 190.368 103.006C191.016 103.776 191.339 104.877 191.339 106.31V106.949H185.255C185.277 107.835 185.534 108.551 186.027 109.099C186.525 109.641 187.156 109.913 187.919 109.913C188.462 109.913 188.921 109.802 189.297 109.581C189.674 109.359 190.003 109.066 190.285 108.701L191.223 109.431C190.471 110.588 189.342 111.166 187.836 111.166ZM187.646 103.114C187.026 103.114 186.506 103.341 186.085 103.795C185.664 104.243 185.404 104.874 185.305 105.688H189.804V105.571C189.759 104.791 189.549 104.188 189.173 103.762C188.797 103.33 188.287 103.114 187.646 103.114ZM199.424 99.8438V102.019H201.101V103.206H199.424V108.775C199.424 109.135 199.499 109.406 199.648 109.589C199.798 109.766 200.052 109.854 200.412 109.854C200.589 109.854 200.833 109.821 201.143 109.755V111C200.739 111.111 200.346 111.166 199.964 111.166C199.278 111.166 198.76 110.958 198.412 110.543C198.063 110.128 197.889 109.539 197.889 108.775V103.206H196.253V102.019H197.889V99.8438H199.424ZM202.33 106.426C202.33 105.546 202.501 104.755 202.844 104.052C203.193 103.349 203.674 102.807 204.289 102.425C204.908 102.043 205.614 101.853 206.405 101.853C207.628 101.853 208.616 102.276 209.369 103.123C210.127 103.969 210.506 105.095 210.506 106.501V106.609C210.506 107.483 210.337 108.269 210 108.966C209.667 109.658 209.189 110.198 208.563 110.585C207.944 110.972 207.23 111.166 206.422 111.166C205.204 111.166 204.217 110.743 203.458 109.896C202.706 109.049 202.33 107.929 202.33 106.534V106.426ZM203.874 106.609C203.874 107.605 204.103 108.405 204.562 109.008C205.027 109.611 205.647 109.913 206.422 109.913C207.202 109.913 207.822 109.608 208.281 109C208.741 108.385 208.97 107.528 208.97 106.426C208.97 105.441 208.735 104.644 208.265 104.036C207.8 103.421 207.18 103.114 206.405 103.114C205.647 103.114 205.036 103.416 204.571 104.019C204.106 104.622 203.874 105.486 203.874 106.609ZM220.375 111.166C219.158 111.166 218.167 110.768 217.404 109.971C216.64 109.168 216.258 108.097 216.258 106.758V106.476C216.258 105.585 216.427 104.791 216.765 104.094C217.108 103.391 217.584 102.843 218.192 102.45C218.807 102.052 219.471 101.853 220.185 101.853C221.352 101.853 222.26 102.237 222.907 103.006C223.555 103.776 223.878 104.877 223.878 106.31V106.949H217.794C217.816 107.835 218.073 108.551 218.566 109.099C219.064 109.641 219.695 109.913 220.458 109.913C221.001 109.913 221.46 109.802 221.836 109.581C222.213 109.359 222.542 109.066 222.824 108.701L223.762 109.431C223.01 110.588 221.881 111.166 220.375 111.166ZM220.185 103.114C219.565 103.114 219.045 103.341 218.624 103.795C218.203 104.243 217.943 104.874 217.844 105.688H222.343V105.571C222.299 104.791 222.088 104.188 221.712 103.762C221.336 103.33 220.826 103.114 220.185 103.114ZM228.51 108.917L230.735 102.019H232.304L229.083 111H227.913L224.659 102.019H226.228L228.51 108.917ZM237.392 111.166C236.175 111.166 235.184 110.768 234.42 109.971C233.657 109.168 233.275 108.097 233.275 106.758V106.476C233.275 105.585 233.444 104.791 233.781 104.094C234.124 103.391 234.6 102.843 235.209 102.45C235.823 102.052 236.487 101.853 237.201 101.853C238.369 101.853 239.276 102.237 239.924 103.006C240.571 103.776 240.895 104.877 240.895 106.31V106.949H234.811C234.833 107.835 235.09 108.551 235.583 109.099C236.081 109.641 236.711 109.913 237.475 109.913C238.017 109.913 238.477 109.802 238.853 109.581C239.229 109.359 239.559 109.066 239.841 108.701L240.779 109.431C240.026 110.588 238.897 111.166 237.392 111.166ZM237.201 103.114C236.581 103.114 236.061 103.341 235.641 103.795C235.22 104.243 234.96 104.874 234.86 105.688H239.359V105.571C239.315 104.791 239.105 104.188 238.729 103.762C238.352 103.33 237.843 103.114 237.201 103.114ZM247.021 103.396C246.789 103.358 246.537 103.338 246.266 103.338C245.258 103.338 244.575 103.767 244.215 104.625V111H242.68V102.019H244.174L244.199 103.056C244.702 102.254 245.416 101.853 246.34 101.853C246.639 101.853 246.866 101.891 247.021 101.969V103.396ZM251.528 108.75L253.62 102.019H255.264L251.653 112.386C251.094 113.88 250.206 114.627 248.988 114.627L248.698 114.603L248.125 114.495V113.25L248.54 113.283C249.06 113.283 249.464 113.178 249.752 112.967C250.045 112.757 250.286 112.372 250.474 111.813L250.814 110.9L247.61 102.019H249.287L251.528 108.75ZM256.102 106.426C256.102 105.546 256.274 104.755 256.617 104.052C256.965 103.349 257.447 102.807 258.061 102.425C258.681 102.043 259.386 101.853 260.178 101.853C261.401 101.853 262.389 102.276 263.141 103.123C263.899 103.969 264.278 105.095 264.278 106.501V106.609C264.278 107.483 264.11 108.269 263.772 108.966C263.44 109.658 262.961 110.198 262.336 110.585C261.716 110.972 261.002 111.166 260.194 111.166C258.977 111.166 257.989 110.743 257.231 109.896C256.478 109.049 256.102 107.929 256.102 106.534V106.426ZM257.646 106.609C257.646 107.605 257.876 108.405 258.335 109.008C258.8 109.611 259.42 109.913 260.194 109.913C260.975 109.913 261.594 109.608 262.054 109C262.513 108.385 262.743 107.528 262.743 106.426C262.743 105.441 262.507 104.644 262.037 104.036C261.572 103.421 260.952 103.114 260.178 103.114C259.42 103.114 258.808 103.416 258.343 104.019C257.878 104.622 257.646 105.486 257.646 106.609ZM267.657 102.019L267.707 103.147C268.393 102.284 269.289 101.853 270.396 101.853C272.294 101.853 273.251 102.923 273.268 105.065V111H271.732V105.057C271.727 104.409 271.577 103.931 271.284 103.621C270.996 103.311 270.545 103.156 269.931 103.156C269.433 103.156 268.996 103.289 268.62 103.554C268.243 103.82 267.95 104.168 267.74 104.6V111H266.204V102.019H267.657ZM279.311 111.166C278.094 111.166 277.103 110.768 276.339 109.971C275.576 109.168 275.194 108.097 275.194 106.758V106.476C275.194 105.585 275.363 104.791 275.7 104.094C276.043 103.391 276.519 102.843 277.128 102.45C277.742 102.052 278.406 101.853 279.12 101.853C280.288 101.853 281.195 102.237 281.843 103.006C282.49 103.776 282.814 104.877 282.814 106.31V106.949H276.729C276.752 107.835 277.009 108.551 277.501 109.099C278 109.641 278.63 109.913 279.394 109.913C279.936 109.913 280.396 109.802 280.772 109.581C281.148 109.359 281.478 109.066 281.76 108.701L282.698 109.431C281.945 110.588 280.816 111.166 279.311 111.166ZM279.12 103.114C278.5 103.114 277.98 103.341 277.56 103.795C277.139 104.243 276.879 104.874 276.779 105.688H281.278V105.571C281.234 104.791 281.024 104.188 280.647 103.762C280.271 103.33 279.762 103.114 279.12 103.114Z" fill="#949494"/>
</svg>
