<svg width="408" height="150" viewBox="0 0 408 150" fill="none" xmlns="http://www.w3.org/2000/svg">
<path d="M0 16C0 7.16345 7.16344 0 16 0H392C400.837 0 408 7.16344 408 16V134C408 142.837 400.837 150 392 150H16C7.16344 150 0 142.837 0 134V16Z" fill="#3E3E3E"/>
<path d="M94.5 102C98.6421 102 102 98.6421 102 94.5C102 90.3579 98.6421 87 94.5 87C90.3579 87 87 90.3579 87 94.5C87 98.6421 90.3579 102 94.5 102Z" stroke="black" stroke-width="2" stroke-linecap="round" stroke-linejoin="round"/>
<path d="M54.5 49.5H84.5C87.1522 49.5 89.6957 50.5536 91.5711 52.4289C93.4464 54.3043 94.5 56.8478 94.5 59.5C94.5 62.1522 93.4464 64.6957 91.5711 66.5711C89.6957 68.4464 87.1522 69.5 84.5 69.5H54.5C51.1848 69.5 48.0054 70.817 45.6612 73.1612C43.317 75.5054 42 78.6848 42 82C42 85.3152 43.317 88.4946 45.6612 90.8388C48.0054 93.183 51.1848 94.5 54.5 94.5H87" stroke="black" stroke-width="2" stroke-linecap="round" stroke-linejoin="round"/>
<path d="M149.66 53.6211L149.988 55.8711L150.469 53.8438L153.844 41.9375H155.742L159.035 53.8438L159.504 55.9062L159.867 53.6094L162.516 41.9375H164.777L160.641 59H158.59L155.074 46.5664L154.805 45.2656L154.535 46.5664L150.891 59H148.84L144.715 41.9375H146.965L149.66 53.6211ZM165.996 52.543C165.996 51.3008 166.238 50.1836 166.723 49.1914C167.215 48.1992 167.895 47.4336 168.762 46.8945C169.637 46.3555 170.633 46.0859 171.75 46.0859C173.477 46.0859 174.871 46.6836 175.934 47.8789C177.004 49.0742 177.539 50.6641 177.539 52.6484V52.8008C177.539 54.0352 177.301 55.1445 176.824 56.1289C176.355 57.1055 175.68 57.8672 174.797 58.4141C173.922 58.9609 172.914 59.2344 171.773 59.2344C170.055 59.2344 168.66 58.6367 167.59 57.4414C166.527 56.2461 165.996 54.6641 165.996 52.6953V52.543ZM168.176 52.8008C168.176 54.207 168.5 55.3359 169.148 56.1875C169.805 57.0391 170.68 57.4648 171.773 57.4648C172.875 57.4648 173.75 57.0352 174.398 56.1758C175.047 55.3086 175.371 54.0977 175.371 52.543C175.371 51.1523 175.039 50.0273 174.375 49.168C173.719 48.3008 172.844 47.8672 171.75 47.8672C170.68 47.8672 169.816 48.293 169.16 49.1445C168.504 49.9961 168.176 51.2148 168.176 52.8008ZM186.387 48.2656C186.059 48.2109 185.703 48.1836 185.32 48.1836C183.898 48.1836 182.934 48.7891 182.426 50V59H180.258V46.3203H182.367L182.402 47.7852C183.113 46.6523 184.121 46.0859 185.426 46.0859C185.848 46.0859 186.168 46.1406 186.387 46.25V48.2656ZM191.93 53.1289L190.57 54.5469V59H188.402V41H190.57V51.8867L191.73 50.4922L195.68 46.3203H198.316L193.383 51.6172L198.891 59H196.348L191.93 53.1289ZM208.477 42.8398C207.508 42.6836 206.727 42.6055 206.133 42.6055C204.57 42.6055 203.789 43.4258 203.789 45.0664V46.3203H206.496V47.9961H203.789V59H201.621V47.9961H199.617V46.3203H201.621V44.9375C201.629 43.5859 202.008 42.5508 202.758 41.832C203.508 41.1133 204.574 40.7539 205.957 40.7539C206.746 40.7539 208.309 40.9922 210.645 41.4688V59H208.477V42.8398ZM213.621 52.543C213.621 51.3008 213.863 50.1836 214.348 49.1914C214.84 48.1992 215.52 47.4336 216.387 46.8945C217.262 46.3555 218.258 46.0859 219.375 46.0859C221.102 46.0859 222.496 46.6836 223.559 47.8789C224.629 49.0742 225.164 50.6641 225.164 52.6484V52.8008C225.164 54.0352 224.926 55.1445 224.449 56.1289C223.98 57.1055 223.305 57.8672 222.422 58.4141C221.547 58.9609 220.539 59.2344 219.398 59.2344C217.68 59.2344 216.285 58.6367 215.215 57.4414C214.152 56.2461 213.621 54.6641 213.621 52.6953V52.543ZM215.801 52.8008C215.801 54.207 216.125 55.3359 216.773 56.1875C217.43 57.0391 218.305 57.4648 219.398 57.4648C220.5 57.4648 221.375 57.0352 222.023 56.1758C222.672 55.3086 222.996 54.0977 222.996 52.543C222.996 51.1523 222.664 50.0273 222 49.168C221.344 48.3008 220.469 47.8672 219.375 47.8672C218.305 47.8672 217.441 48.293 216.785 49.1445C216.129 49.9961 215.801 51.2148 215.801 52.8008ZM239.109 56.0117L241.547 46.3203H243.715L240.023 59H238.266L235.184 49.3906L232.184 59H230.426L226.746 46.3203H228.902L231.398 55.8125L234.352 46.3203H236.098L239.109 56.0117ZM253.312 55.6367C253.312 55.0508 253.09 54.5977 252.645 54.2773C252.207 53.9492 251.438 53.668 250.336 53.4336C249.242 53.1992 248.371 52.918 247.723 52.5898C247.082 52.2617 246.605 51.8711 246.293 51.418C245.988 50.9648 245.836 50.4258 245.836 49.8008C245.836 48.7617 246.273 47.8828 247.148 47.1641C248.031 46.4453 249.156 46.0859 250.523 46.0859C251.961 46.0859 253.125 46.457 254.016 47.1992C254.914 47.9414 255.363 48.8906 255.363 50.0469H253.184C253.184 49.4531 252.93 48.9414 252.422 48.5117C251.922 48.082 251.289 47.8672 250.523 47.8672C249.734 47.8672 249.117 48.0391 248.672 48.3828C248.227 48.7266 248.004 49.1758 248.004 49.7305C248.004 50.2539 248.211 50.6484 248.625 50.9141C249.039 51.1797 249.785 51.4336 250.863 51.6758C251.949 51.918 252.828 52.207 253.5 52.543C254.172 52.8789 254.668 53.2852 254.988 53.7617C255.316 54.2305 255.48 54.8047 255.48 55.4844C255.48 56.6172 255.027 57.5273 254.121 58.2148C253.215 58.8945 252.039 59.2344 250.594 59.2344C249.578 59.2344 248.68 59.0547 247.898 58.6953C247.117 58.3359 246.504 57.8359 246.059 57.1953C245.621 56.5469 245.402 55.8477 245.402 55.0977H247.57C247.609 55.8242 247.898 56.4023 248.438 56.832C248.984 57.2539 249.703 57.4648 250.594 57.4648C251.414 57.4648 252.07 57.3008 252.562 56.9727C253.062 56.6367 253.312 56.1914 253.312 55.6367Z" fill="#FFFEF8"/>
<path d="M152.234 81.4136H146.997V85.6968H153.081V87H145.403V74.9141H152.998V76.2256H146.997V80.1104H152.234V81.4136ZM160.369 87C160.281 86.8229 160.209 86.5075 160.153 86.0537C159.439 86.7952 158.587 87.166 157.597 87.166C156.711 87.166 155.984 86.917 155.414 86.4189C154.849 85.9154 154.567 85.279 154.567 84.5098C154.567 83.5745 154.921 82.8496 155.629 82.335C156.343 81.8148 157.345 81.5547 158.634 81.5547H160.128V80.8491C160.128 80.3123 159.968 79.8862 159.647 79.5708C159.326 79.2498 158.853 79.0894 158.228 79.0894C157.68 79.0894 157.22 79.2277 156.85 79.5044C156.479 79.7811 156.293 80.1159 156.293 80.5088H154.75C154.75 80.0605 154.907 79.6289 155.223 79.2139C155.544 78.7933 155.975 78.4613 156.518 78.2178C157.065 77.9743 157.666 77.8525 158.319 77.8525C159.354 77.8525 160.164 78.1126 160.751 78.6328C161.338 79.1475 161.642 79.8586 161.664 80.7661V84.8999C161.664 85.7244 161.769 86.3802 161.979 86.8672V87H160.369ZM157.821 85.8296C158.302 85.8296 158.759 85.7051 159.19 85.4561C159.622 85.207 159.935 84.8833 160.128 84.4849V82.6421H158.925C157.043 82.6421 156.103 83.1927 156.103 84.2939C156.103 84.7754 156.263 85.1517 156.584 85.4229C156.905 85.694 157.317 85.8296 157.821 85.8296ZM169.301 84.6177C169.301 84.2026 169.143 83.8817 168.828 83.6548C168.518 83.4224 167.973 83.2231 167.192 83.0571C166.418 82.8911 165.801 82.6919 165.341 82.4595C164.888 82.2271 164.55 81.9504 164.329 81.6294C164.113 81.3084 164.005 80.9266 164.005 80.4839C164.005 79.7479 164.315 79.1253 164.935 78.6162C165.56 78.1071 166.357 77.8525 167.325 77.8525C168.343 77.8525 169.168 78.1154 169.799 78.6411C170.435 79.1668 170.753 79.8392 170.753 80.6582H169.209C169.209 80.2376 169.03 79.8752 168.67 79.5708C168.316 79.2664 167.868 79.1143 167.325 79.1143C166.766 79.1143 166.329 79.236 166.014 79.4795C165.698 79.723 165.541 80.0412 165.541 80.4341C165.541 80.8049 165.687 81.0843 165.98 81.2725C166.274 81.4606 166.802 81.6405 167.566 81.812C168.335 81.9836 168.958 82.1883 169.434 82.4263C169.91 82.6642 170.261 82.952 170.488 83.2896C170.72 83.6216 170.836 84.0283 170.836 84.5098C170.836 85.3122 170.515 85.9569 169.874 86.4438C169.232 86.9253 168.399 87.166 167.375 87.166C166.656 87.166 166.019 87.0387 165.466 86.7842C164.912 86.5296 164.478 86.1755 164.163 85.7217C163.853 85.2624 163.698 84.7671 163.698 84.2358H165.233C165.261 84.7505 165.466 85.16 165.848 85.4644C166.235 85.7632 166.744 85.9126 167.375 85.9126C167.956 85.9126 168.421 85.7964 168.77 85.564C169.124 85.326 169.301 85.0106 169.301 84.6177ZM174.505 87H172.97V78.0186H174.505V87ZM172.845 75.6362C172.845 75.3872 172.92 75.1769 173.069 75.0054C173.224 74.8338 173.451 74.748 173.75 74.748C174.049 74.748 174.276 74.8338 174.431 75.0054C174.586 75.1769 174.663 75.3872 174.663 75.6362C174.663 75.8853 174.586 76.0928 174.431 76.2588C174.276 76.4248 174.049 76.5078 173.75 76.5078C173.451 76.5078 173.224 76.4248 173.069 76.2588C172.92 76.0928 172.845 75.8853 172.845 75.6362ZM178.639 87H177.104V74.25H178.639V87ZM184.043 84.7505L186.135 78.0186H187.778L184.167 88.3862C183.609 89.8804 182.72 90.6274 181.503 90.6274L181.212 90.6025L180.64 90.4946V89.2495L181.055 89.2827C181.575 89.2827 181.979 89.1776 182.267 88.9673C182.56 88.757 182.801 88.3724 182.989 87.8135L183.329 86.9004L180.125 78.0186H181.802L184.043 84.7505ZM193 82.4346C193 81.0566 193.326 79.9499 193.979 79.1143C194.632 78.2731 195.487 77.8525 196.544 77.8525C197.595 77.8525 198.428 78.2122 199.042 78.9316V74.25H200.578V87H199.167L199.092 86.0371C198.478 86.7897 197.623 87.166 196.527 87.166C195.487 87.166 194.638 86.7399 193.979 85.8877C193.326 85.0355 193 83.9232 193 82.5508V82.4346ZM194.535 82.6089C194.535 83.6271 194.745 84.424 195.166 84.9995C195.587 85.575 196.168 85.8628 196.909 85.8628C197.883 85.8628 198.594 85.4256 199.042 84.5513V80.4258C198.583 79.5791 197.878 79.1558 196.926 79.1558C196.173 79.1558 195.587 79.4463 195.166 80.0273C194.745 80.6084 194.535 81.4689 194.535 82.6089ZM202.562 82.4263C202.562 81.5464 202.734 80.755 203.077 80.0522C203.425 79.3494 203.907 78.8071 204.521 78.4253C205.141 78.0435 205.846 77.8525 206.638 77.8525C207.861 77.8525 208.848 78.2759 209.601 79.1226C210.359 79.9692 210.738 81.0954 210.738 82.501V82.6089C210.738 83.4832 210.569 84.269 210.232 84.9663C209.9 85.658 209.421 86.1976 208.796 86.585C208.176 86.9723 207.462 87.166 206.654 87.166C205.437 87.166 204.449 86.7427 203.691 85.896C202.938 85.0493 202.562 83.9287 202.562 82.5342V82.4263ZM204.106 82.6089C204.106 83.605 204.336 84.4046 204.795 85.0078C205.26 85.611 205.88 85.9126 206.654 85.9126C207.435 85.9126 208.054 85.6082 208.514 84.9995C208.973 84.3853 209.203 83.5275 209.203 82.4263C209.203 81.4412 208.967 80.6444 208.497 80.0356C208.032 79.4214 207.412 79.1143 206.638 79.1143C205.88 79.1143 205.268 79.4159 204.803 80.019C204.338 80.6222 204.106 81.4855 204.106 82.6089ZM216.267 85.9126C216.814 85.9126 217.293 85.7466 217.703 85.4146C218.112 85.0825 218.339 84.6675 218.383 84.1694H219.836C219.808 84.6841 219.631 85.1738 219.305 85.6387C218.978 86.1035 218.541 86.4743 217.993 86.751C217.451 87.0277 216.875 87.166 216.267 87.166C215.044 87.166 214.07 86.7593 213.345 85.9458C212.625 85.1268 212.266 84.009 212.266 82.5923V82.335C212.266 81.4606 212.426 80.6831 212.747 80.0024C213.068 79.3218 213.527 78.7933 214.125 78.417C214.728 78.0407 215.439 77.8525 216.258 77.8525C217.265 77.8525 218.101 78.1541 218.765 78.7573C219.435 79.3605 219.792 80.1436 219.836 81.1064H218.383C218.339 80.5254 218.118 80.0495 217.719 79.6787C217.326 79.3024 216.839 79.1143 216.258 79.1143C215.478 79.1143 214.872 79.3965 214.44 79.9609C214.014 80.5199 213.801 81.3306 213.801 82.3931V82.6836C213.801 83.7184 214.014 84.5153 214.44 85.0742C214.867 85.6331 215.475 85.9126 216.267 85.9126ZM227.107 86.1118C226.51 86.8146 225.633 87.166 224.476 87.166C223.519 87.166 222.788 86.8893 222.285 86.3359C221.787 85.777 221.535 84.9525 221.529 83.8623V78.0186H223.065V83.8208C223.065 85.1821 223.618 85.8628 224.725 85.8628C225.898 85.8628 226.679 85.4256 227.066 84.5513V78.0186H228.602V87H227.141L227.107 86.1118ZM232.387 78.0186L232.428 79.0146C233.087 78.2399 233.975 77.8525 235.093 77.8525C236.349 77.8525 237.204 78.334 237.658 79.2969C237.957 78.8652 238.344 78.5166 238.82 78.251C239.301 77.9854 239.868 77.8525 240.521 77.8525C242.492 77.8525 243.493 78.8957 243.526 80.9819V87H241.991V81.0732C241.991 80.4313 241.844 79.9526 241.551 79.6372C241.257 79.3162 240.765 79.1558 240.073 79.1558C239.503 79.1558 239.03 79.3273 238.654 79.6704C238.278 80.008 238.059 80.4645 237.998 81.04V87H236.454V81.1147C236.454 79.8088 235.815 79.1558 234.537 79.1558C233.529 79.1558 232.84 79.5846 232.47 80.4424V87H230.934V78.0186H232.387ZM249.578 87.166C248.36 87.166 247.37 86.7676 246.606 85.9707C245.842 85.1683 245.46 84.0975 245.46 82.7583V82.4761C245.46 81.5851 245.629 80.791 245.967 80.0938C246.31 79.391 246.786 78.8431 247.395 78.4502C248.009 78.0518 248.673 77.8525 249.387 77.8525C250.554 77.8525 251.462 78.2371 252.109 79.0063C252.757 79.7756 253.081 80.8768 253.081 82.3101V82.9492H246.996C247.018 83.8346 247.276 84.5513 247.768 85.0991C248.266 85.6414 248.897 85.9126 249.661 85.9126C250.203 85.9126 250.662 85.8019 251.039 85.5806C251.415 85.3592 251.744 85.0659 252.026 84.7007L252.964 85.4312C252.212 86.5877 251.083 87.166 249.578 87.166ZM249.387 79.1143C248.767 79.1143 248.247 79.3411 247.826 79.7949C247.406 80.2432 247.146 80.874 247.046 81.6875H251.545V81.5713C251.501 80.791 251.29 80.1878 250.914 79.7617C250.538 79.3301 250.029 79.1143 249.387 79.1143ZM256.318 78.0186L256.368 79.1475C257.054 78.2842 257.95 77.8525 259.057 77.8525C260.955 77.8525 261.913 78.9233 261.929 81.0649V87H260.394V81.0566C260.388 80.4092 260.239 79.9305 259.945 79.6206C259.658 79.3107 259.207 79.1558 258.592 79.1558C258.094 79.1558 257.657 79.2886 257.281 79.5542C256.904 79.8198 256.611 80.1685 256.401 80.6001V87H254.865V78.0186H256.318ZM266.329 75.8438V78.0186H268.005V79.2056H266.329V84.7754C266.329 85.1351 266.403 85.4062 266.553 85.5889C266.702 85.766 266.957 85.8545 267.316 85.8545C267.493 85.8545 267.737 85.8213 268.047 85.7549V87C267.643 87.1107 267.25 87.166 266.868 87.166C266.182 87.166 265.665 86.9585 265.316 86.5435C264.967 86.1284 264.793 85.5391 264.793 84.7754V79.2056H263.158V78.0186H264.793V75.8438H266.329ZM269.757 89.4072L268.885 88.8096C269.405 88.0846 269.677 87.3376 269.699 86.5684V85.1821H271.201V86.3857C271.201 86.9447 271.063 87.5036 270.786 88.0625C270.515 88.6214 270.172 89.0697 269.757 89.4072ZM282.905 87C282.817 86.8229 282.745 86.5075 282.689 86.0537C281.976 86.7952 281.123 87.166 280.133 87.166C279.247 87.166 278.52 86.917 277.95 86.4189C277.385 85.9154 277.103 85.279 277.103 84.5098C277.103 83.5745 277.457 82.8496 278.166 82.335C278.879 81.8148 279.881 81.5547 281.17 81.5547H282.665V80.8491C282.665 80.3123 282.504 79.8862 282.183 79.5708C281.862 79.2498 281.389 79.0894 280.764 79.0894C280.216 79.0894 279.757 79.2277 279.386 79.5044C279.015 79.7811 278.83 80.1159 278.83 80.5088H277.286C277.286 80.0605 277.443 79.6289 277.759 79.2139C278.08 78.7933 278.511 78.4613 279.054 78.2178C279.602 77.9743 280.202 77.8525 280.855 77.8525C281.89 77.8525 282.701 78.1126 283.287 78.6328C283.874 79.1475 284.178 79.8586 284.2 80.7661V84.8999C284.2 85.7244 284.305 86.3802 284.516 86.8672V87H282.905ZM280.357 85.8296C280.838 85.8296 281.295 85.7051 281.727 85.4561C282.158 85.207 282.471 84.8833 282.665 84.4849V82.6421H281.461C279.579 82.6421 278.639 83.1927 278.639 84.2939C278.639 84.7754 278.799 85.1517 279.12 85.4229C279.441 85.694 279.853 85.8296 280.357 85.8296ZM291.837 84.6177C291.837 84.2026 291.679 83.8817 291.364 83.6548C291.054 83.4224 290.509 83.2231 289.729 83.0571C288.954 82.8911 288.337 82.6919 287.877 82.4595C287.424 82.2271 287.086 81.9504 286.865 81.6294C286.649 81.3084 286.541 80.9266 286.541 80.4839C286.541 79.7479 286.851 79.1253 287.471 78.6162C288.096 78.1071 288.893 77.8525 289.861 77.8525C290.88 77.8525 291.704 78.1154 292.335 78.6411C292.971 79.1668 293.29 79.8392 293.29 80.6582H291.746C291.746 80.2376 291.566 79.8752 291.206 79.5708C290.852 79.2664 290.404 79.1143 289.861 79.1143C289.302 79.1143 288.865 79.236 288.55 79.4795C288.234 79.723 288.077 80.0412 288.077 80.4341C288.077 80.8049 288.223 81.0843 288.517 81.2725C288.81 81.4606 289.338 81.6405 290.102 81.812C290.871 81.9836 291.494 82.1883 291.97 82.4263C292.446 82.6642 292.797 82.952 293.024 83.2896C293.256 83.6216 293.373 84.0283 293.373 84.5098C293.373 85.3122 293.052 85.9569 292.41 86.4438C291.768 86.9253 290.935 87.166 289.911 87.166C289.192 87.166 288.555 87.0387 288.002 86.7842C287.449 86.5296 287.014 86.1755 286.699 85.7217C286.389 85.2624 286.234 84.7671 286.234 84.2358H287.77C287.797 84.7505 288.002 85.16 288.384 85.4644C288.771 85.7632 289.28 85.9126 289.911 85.9126C290.492 85.9126 290.957 85.7964 291.306 85.564C291.66 85.326 291.837 85.0106 291.837 84.6177ZM300.603 84.6177C300.603 84.2026 300.445 83.8817 300.129 83.6548C299.819 83.4224 299.274 83.2231 298.494 83.0571C297.719 82.8911 297.102 82.6919 296.643 82.4595C296.189 82.2271 295.852 81.9504 295.63 81.6294C295.415 81.3084 295.307 80.9266 295.307 80.4839C295.307 79.7479 295.617 79.1253 296.236 78.6162C296.862 78.1071 297.659 77.8525 298.627 77.8525C299.645 77.8525 300.47 78.1154 301.101 78.6411C301.737 79.1668 302.055 79.8392 302.055 80.6582H300.511C300.511 80.2376 300.331 79.8752 299.972 79.5708C299.618 79.2664 299.169 79.1143 298.627 79.1143C298.068 79.1143 297.631 79.236 297.315 79.4795C297 79.723 296.842 80.0412 296.842 80.4341C296.842 80.8049 296.989 81.0843 297.282 81.2725C297.576 81.4606 298.104 81.6405 298.868 81.812C299.637 81.9836 300.259 82.1883 300.735 82.4263C301.211 82.6642 301.563 82.952 301.79 83.2896C302.022 83.6216 302.138 84.0283 302.138 84.5098C302.138 85.3122 301.817 85.9569 301.175 86.4438C300.533 86.9253 299.701 87.166 298.677 87.166C297.957 87.166 297.321 87.0387 296.768 86.7842C296.214 86.5296 295.78 86.1755 295.464 85.7217C295.154 85.2624 295 84.7671 295 84.2358H296.535C296.563 84.7505 296.768 85.16 297.149 85.4644C297.537 85.7632 298.046 85.9126 298.677 85.9126C299.258 85.9126 299.723 85.7964 300.071 85.564C300.425 85.326 300.603 85.0106 300.603 84.6177ZM305.807 87H304.271V78.0186H305.807V87ZM304.147 75.6362C304.147 75.3872 304.222 75.1769 304.371 75.0054C304.526 74.8338 304.753 74.748 305.052 74.748C305.351 74.748 305.577 74.8338 305.732 75.0054C305.887 75.1769 305.965 75.3872 305.965 75.6362C305.965 75.8853 305.887 76.0928 305.732 76.2588C305.577 76.4248 305.351 76.5078 305.052 76.5078C304.753 76.5078 304.526 76.4248 304.371 76.2588C304.222 76.0928 304.147 75.8853 304.147 75.6362ZM307.907 82.4346C307.907 81.0345 308.231 79.9222 308.878 79.0977C309.526 78.2676 310.384 77.8525 311.452 77.8525C312.547 77.8525 313.402 78.2399 314.017 79.0146L314.091 78.0186H315.494V86.7842C315.494 87.9463 315.148 88.8621 314.457 89.5317C313.77 90.2013 312.846 90.5361 311.684 90.5361C311.037 90.5361 310.403 90.3978 309.783 90.1211C309.163 89.8444 308.69 89.4653 308.364 88.9839L309.161 88.0625C309.819 88.876 310.624 89.2827 311.576 89.2827C312.323 89.2827 312.904 89.0724 313.319 88.6519C313.74 88.2313 313.95 87.6392 313.95 86.8755V86.1035C313.336 86.8118 312.498 87.166 311.435 87.166C310.384 87.166 309.531 86.7427 308.878 85.896C308.231 85.0493 307.907 83.8955 307.907 82.4346ZM309.451 82.6089C309.451 83.6216 309.659 84.4185 310.074 84.9995C310.489 85.575 311.07 85.8628 311.817 85.8628C312.785 85.8628 313.496 85.4229 313.95 84.543V80.4424C313.48 79.5846 312.774 79.1558 311.833 79.1558C311.086 79.1558 310.503 79.4463 310.082 80.0273C309.661 80.6084 309.451 81.4689 309.451 82.6089ZM319.271 78.0186L319.321 79.1475C320.007 78.2842 320.903 77.8525 322.01 77.8525C323.908 77.8525 324.866 78.9233 324.882 81.0649V87H323.347V81.0566C323.341 80.4092 323.192 79.9305 322.898 79.6206C322.611 79.3107 322.16 79.1558 321.545 79.1558C321.047 79.1558 320.61 79.2886 320.234 79.5542C319.858 79.8198 319.564 80.1685 319.354 80.6001V87H317.818V78.0186H319.271ZM327.148 89.4072L326.277 88.8096C326.797 88.0846 327.068 87.3376 327.09 86.5684V85.1821H328.593V86.3857C328.593 86.9447 328.454 87.5036 328.178 88.0625C327.907 88.6214 327.563 89.0697 327.148 89.4072ZM150.707 111C150.618 110.823 150.547 110.507 150.491 110.054C149.777 110.795 148.925 111.166 147.935 111.166C147.049 111.166 146.321 110.917 145.751 110.419C145.187 109.915 144.905 109.279 144.905 108.51C144.905 107.575 145.259 106.85 145.967 106.335C146.681 105.815 147.683 105.555 148.972 105.555H150.466V104.849C150.466 104.312 150.306 103.886 149.985 103.571C149.664 103.25 149.191 103.089 148.565 103.089C148.018 103.089 147.558 103.228 147.188 103.504C146.817 103.781 146.631 104.116 146.631 104.509H145.087C145.087 104.061 145.245 103.629 145.561 103.214C145.882 102.793 146.313 102.461 146.855 102.218C147.403 101.974 148.004 101.853 148.657 101.853C149.692 101.853 150.502 102.113 151.089 102.633C151.675 103.147 151.98 103.859 152.002 104.766V108.9C152.002 109.724 152.107 110.38 152.317 110.867V111H150.707ZM148.159 109.83C148.64 109.83 149.097 109.705 149.528 109.456C149.96 109.207 150.273 108.883 150.466 108.485V106.642H149.263C147.381 106.642 146.44 107.193 146.44 108.294C146.44 108.775 146.601 109.152 146.922 109.423C147.243 109.694 147.655 109.83 148.159 109.83ZM155.862 102.019L155.912 103.147C156.598 102.284 157.494 101.853 158.601 101.853C160.499 101.853 161.457 102.923 161.473 105.065V111H159.938V105.057C159.932 104.409 159.783 103.931 159.489 103.621C159.201 103.311 158.75 103.156 158.136 103.156C157.638 103.156 157.201 103.289 156.825 103.554C156.448 103.82 156.155 104.168 155.945 104.6V111H154.409V102.019H155.862ZM163.416 106.435C163.416 105.057 163.742 103.95 164.395 103.114C165.048 102.273 165.903 101.853 166.96 101.853C168.011 101.853 168.844 102.212 169.458 102.932V98.25H170.994V111H169.583L169.508 110.037C168.894 110.79 168.039 111.166 166.943 111.166C165.903 111.166 165.054 110.74 164.395 109.888C163.742 109.035 163.416 107.923 163.416 106.551V106.435ZM164.951 106.609C164.951 107.627 165.161 108.424 165.582 109C166.003 109.575 166.584 109.863 167.325 109.863C168.299 109.863 169.01 109.426 169.458 108.551V104.426C168.999 103.579 168.294 103.156 167.342 103.156C166.589 103.156 166.003 103.446 165.582 104.027C165.161 104.608 164.951 105.469 164.951 106.609ZM179.685 99.8438V102.019H181.362V103.206H179.685V108.775C179.685 109.135 179.76 109.406 179.909 109.589C180.059 109.766 180.313 109.854 180.673 109.854C180.85 109.854 181.093 109.821 181.403 109.755V111C180.999 111.111 180.606 111.166 180.225 111.166C179.538 111.166 179.021 110.958 178.672 110.543C178.324 110.128 178.149 109.539 178.149 108.775V103.206H176.514V102.019H178.149V99.8438H179.685ZM187.504 103.396C187.272 103.358 187.02 103.338 186.749 103.338C185.742 103.338 185.058 103.767 184.699 104.625V111H183.163V102.019H184.657L184.682 103.056C185.186 102.254 185.9 101.853 186.824 101.853C187.123 101.853 187.349 101.891 187.504 101.969V103.396ZM194.137 111C194.048 110.823 193.976 110.507 193.921 110.054C193.207 110.795 192.355 111.166 191.364 111.166C190.479 111.166 189.751 110.917 189.181 110.419C188.617 109.915 188.334 109.279 188.334 108.51C188.334 107.575 188.689 106.85 189.397 106.335C190.111 105.815 191.112 105.555 192.402 105.555H193.896V104.849C193.896 104.312 193.736 103.886 193.415 103.571C193.094 103.25 192.62 103.089 191.995 103.089C191.447 103.089 190.988 103.228 190.617 103.504C190.246 103.781 190.061 104.116 190.061 104.509H188.517C188.517 104.061 188.675 103.629 188.99 103.214C189.311 102.793 189.743 102.461 190.285 102.218C190.833 101.974 191.433 101.853 192.086 101.853C193.121 101.853 193.932 102.113 194.519 102.633C195.105 103.147 195.41 103.859 195.432 104.766V108.9C195.432 109.724 195.537 110.38 195.747 110.867V111H194.137ZM191.588 109.83C192.07 109.83 192.526 109.705 192.958 109.456C193.39 109.207 193.702 108.883 193.896 108.485V106.642H192.692C190.811 106.642 189.87 107.193 189.87 108.294C189.87 108.775 190.031 109.152 190.352 109.423C190.673 109.694 191.085 109.83 191.588 109.83ZM201.441 109.913C201.989 109.913 202.468 109.747 202.877 109.415C203.287 109.083 203.514 108.667 203.558 108.169H205.011C204.983 108.684 204.806 109.174 204.479 109.639C204.153 110.104 203.716 110.474 203.168 110.751C202.626 111.028 202.05 111.166 201.441 111.166C200.218 111.166 199.244 110.759 198.52 109.946C197.8 109.127 197.44 108.009 197.44 106.592V106.335C197.44 105.461 197.601 104.683 197.922 104.002C198.243 103.322 198.702 102.793 199.3 102.417C199.903 102.041 200.614 101.853 201.433 101.853C202.44 101.853 203.276 102.154 203.94 102.757C204.61 103.361 204.966 104.144 205.011 105.106H203.558C203.514 104.525 203.292 104.049 202.894 103.679C202.501 103.302 202.014 103.114 201.433 103.114C200.653 103.114 200.047 103.396 199.615 103.961C199.189 104.52 198.976 105.331 198.976 106.393V106.684C198.976 107.718 199.189 108.515 199.615 109.074C200.041 109.633 200.65 109.913 201.441 109.913ZM209.244 106.841L208.281 107.846V111H206.746V98.25H208.281V105.961L209.103 104.974L211.9 102.019H213.768L210.273 105.771L214.175 111H212.374L209.244 106.841ZM227.157 106.609C227.157 107.976 226.845 109.077 226.219 109.913C225.594 110.748 224.747 111.166 223.679 111.166C222.589 111.166 221.731 110.82 221.106 110.128V114.453H219.57V102.019H220.973L221.048 103.015C221.673 102.24 222.542 101.853 223.654 101.853C224.733 101.853 225.586 102.259 226.211 103.073C226.842 103.886 227.157 105.018 227.157 106.468V106.609ZM225.622 106.435C225.622 105.422 225.406 104.622 224.974 104.036C224.542 103.449 223.95 103.156 223.198 103.156C222.268 103.156 221.571 103.568 221.106 104.393V108.684C221.565 109.503 222.268 109.913 223.214 109.913C223.95 109.913 224.534 109.622 224.966 109.041C225.403 108.454 225.622 107.586 225.622 106.435ZM233.458 103.396C233.225 103.358 232.973 103.338 232.702 103.338C231.695 103.338 231.012 103.767 230.652 104.625V111H229.116V102.019H230.61L230.635 103.056C231.139 102.254 231.853 101.853 232.777 101.853C233.076 101.853 233.303 101.891 233.458 101.969V103.396ZM234.304 106.426C234.304 105.546 234.476 104.755 234.819 104.052C235.167 103.349 235.649 102.807 236.263 102.425C236.883 102.043 237.589 101.853 238.38 101.853C239.603 101.853 240.591 102.276 241.343 103.123C242.101 103.969 242.48 105.095 242.48 106.501V106.609C242.48 107.483 242.312 108.269 241.974 108.966C241.642 109.658 241.163 110.198 240.538 110.585C239.918 110.972 239.204 111.166 238.396 111.166C237.179 111.166 236.191 110.743 235.433 109.896C234.681 109.049 234.304 107.929 234.304 106.534V106.426ZM235.848 106.609C235.848 107.605 236.078 108.405 236.537 109.008C237.002 109.611 237.622 109.913 238.396 109.913C239.177 109.913 239.797 109.608 240.256 109C240.715 108.385 240.945 107.528 240.945 106.426C240.945 105.441 240.71 104.644 240.239 104.036C239.774 103.421 239.155 103.114 238.38 103.114C237.622 103.114 237.01 103.416 236.545 104.019C236.081 104.622 235.848 105.486 235.848 106.609ZM248.009 109.913C248.557 109.913 249.035 109.747 249.445 109.415C249.854 109.083 250.081 108.667 250.125 108.169H251.578C251.55 108.684 251.373 109.174 251.047 109.639C250.72 110.104 250.283 110.474 249.735 110.751C249.193 111.028 248.618 111.166 248.009 111.166C246.786 111.166 245.812 110.759 245.087 109.946C244.368 109.127 244.008 108.009 244.008 106.592V106.335C244.008 105.461 244.168 104.683 244.489 104.002C244.81 103.322 245.27 102.793 245.867 102.417C246.47 102.041 247.181 101.853 248 101.853C249.008 101.853 249.843 102.154 250.507 102.757C251.177 103.361 251.534 104.144 251.578 105.106H250.125C250.081 104.525 249.86 104.049 249.461 103.679C249.069 103.302 248.582 103.114 248 103.114C247.22 103.114 246.614 103.396 246.183 103.961C245.757 104.52 245.543 105.331 245.543 106.393V106.684C245.543 107.718 245.757 108.515 246.183 109.074C246.609 109.633 247.217 109.913 248.009 109.913ZM257.032 111.166C255.814 111.166 254.824 110.768 254.06 109.971C253.296 109.168 252.915 108.097 252.915 106.758V106.476C252.915 105.585 253.083 104.791 253.421 104.094C253.764 103.391 254.24 102.843 254.849 102.45C255.463 102.052 256.127 101.853 256.841 101.853C258.008 101.853 258.916 102.237 259.563 103.006C260.211 103.776 260.535 104.877 260.535 106.31V106.949H254.45C254.472 107.835 254.73 108.551 255.222 109.099C255.72 109.641 256.351 109.913 257.115 109.913C257.657 109.913 258.116 109.802 258.493 109.581C258.869 109.359 259.198 109.066 259.48 108.701L260.418 109.431C259.666 110.588 258.537 111.166 257.032 111.166ZM256.841 103.114C256.221 103.114 255.701 103.341 255.28 103.795C254.86 104.243 254.6 104.874 254.5 105.688H258.999V105.571C258.955 104.791 258.744 104.188 258.368 103.762C257.992 103.33 257.483 103.114 256.841 103.114ZM267.549 108.618C267.549 108.203 267.391 107.882 267.076 107.655C266.766 107.422 266.221 107.223 265.44 107.057C264.666 106.891 264.049 106.692 263.589 106.459C263.136 106.227 262.798 105.95 262.577 105.629C262.361 105.308 262.253 104.927 262.253 104.484C262.253 103.748 262.563 103.125 263.183 102.616C263.808 102.107 264.605 101.853 265.573 101.853C266.591 101.853 267.416 102.115 268.047 102.641C268.683 103.167 269.001 103.839 269.001 104.658H267.458C267.458 104.238 267.278 103.875 266.918 103.571C266.564 103.266 266.116 103.114 265.573 103.114C265.014 103.114 264.577 103.236 264.262 103.479C263.946 103.723 263.789 104.041 263.789 104.434C263.789 104.805 263.935 105.084 264.229 105.272C264.522 105.461 265.05 105.64 265.814 105.812C266.583 105.984 267.206 106.188 267.682 106.426C268.158 106.664 268.509 106.952 268.736 107.29C268.968 107.622 269.084 108.028 269.084 108.51C269.084 109.312 268.764 109.957 268.122 110.444C267.48 110.925 266.647 111.166 265.623 111.166C264.904 111.166 264.267 111.039 263.714 110.784C263.16 110.53 262.726 110.175 262.411 109.722C262.101 109.262 261.946 108.767 261.946 108.236H263.481C263.509 108.75 263.714 109.16 264.096 109.464C264.483 109.763 264.992 109.913 265.623 109.913C266.204 109.913 266.669 109.796 267.018 109.564C267.372 109.326 267.549 109.011 267.549 108.618ZM276.314 108.618C276.314 108.203 276.157 107.882 275.841 107.655C275.531 107.422 274.986 107.223 274.206 107.057C273.431 106.891 272.814 106.692 272.355 106.459C271.901 106.227 271.564 105.95 271.342 105.629C271.126 105.308 271.019 104.927 271.019 104.484C271.019 103.748 271.328 103.125 271.948 102.616C272.574 102.107 273.37 101.853 274.339 101.853C275.357 101.853 276.182 102.115 276.812 102.641C277.449 103.167 277.767 103.839 277.767 104.658H276.223C276.223 104.238 276.043 103.875 275.684 103.571C275.329 103.266 274.881 103.114 274.339 103.114C273.78 103.114 273.343 103.236 273.027 103.479C272.712 103.723 272.554 104.041 272.554 104.434C272.554 104.805 272.701 105.084 272.994 105.272C273.287 105.461 273.816 105.64 274.58 105.812C275.349 105.984 275.971 106.188 276.447 106.426C276.923 106.664 277.275 106.952 277.501 107.29C277.734 107.622 277.85 108.028 277.85 108.51C277.85 109.312 277.529 109.957 276.887 110.444C276.245 110.925 275.412 111.166 274.389 111.166C273.669 111.166 273.033 111.039 272.479 110.784C271.926 110.53 271.492 110.175 271.176 109.722C270.866 109.262 270.711 108.767 270.711 108.236H272.247C272.275 108.75 272.479 109.16 272.861 109.464C273.249 109.763 273.758 109.913 274.389 109.913C274.97 109.913 275.435 109.796 275.783 109.564C276.137 109.326 276.314 109.011 276.314 108.618ZM283.578 111.166C282.36 111.166 281.37 110.768 280.606 109.971C279.842 109.168 279.46 108.097 279.46 106.758V106.476C279.46 105.585 279.629 104.791 279.967 104.094C280.31 103.391 280.786 102.843 281.395 102.45C282.009 102.052 282.673 101.853 283.387 101.853C284.554 101.853 285.462 102.237 286.109 103.006C286.757 103.776 287.081 104.877 287.081 106.31V106.949H280.996C281.018 107.835 281.276 108.551 281.768 109.099C282.266 109.641 282.897 109.913 283.661 109.913C284.203 109.913 284.662 109.802 285.039 109.581C285.415 109.359 285.744 109.066 286.026 108.701L286.964 109.431C286.212 110.588 285.083 111.166 283.578 111.166ZM283.387 103.114C282.767 103.114 282.247 103.341 281.826 103.795C281.406 104.243 281.146 104.874 281.046 105.688H285.545V105.571C285.501 104.791 285.29 104.188 284.914 103.762C284.538 103.33 284.029 103.114 283.387 103.114ZM294.095 108.618C294.095 108.203 293.937 107.882 293.622 107.655C293.312 107.422 292.767 107.223 291.986 107.057C291.212 106.891 290.595 106.692 290.135 106.459C289.681 106.227 289.344 105.95 289.123 105.629C288.907 105.308 288.799 104.927 288.799 104.484C288.799 103.748 289.109 103.125 289.729 102.616C290.354 102.107 291.151 101.853 292.119 101.853C293.137 101.853 293.962 102.115 294.593 102.641C295.229 103.167 295.547 103.839 295.547 104.658H294.003C294.003 104.238 293.824 103.875 293.464 103.571C293.11 103.266 292.661 103.114 292.119 103.114C291.56 103.114 291.123 103.236 290.808 103.479C290.492 103.723 290.334 104.041 290.334 104.434C290.334 104.805 290.481 105.084 290.774 105.272C291.068 105.461 291.596 105.64 292.36 105.812C293.129 105.984 293.752 106.188 294.228 106.426C294.703 106.664 295.055 106.952 295.282 107.29C295.514 107.622 295.63 108.028 295.63 108.51C295.63 109.312 295.309 109.957 294.667 110.444C294.026 110.925 293.193 111.166 292.169 111.166C291.45 111.166 290.813 111.039 290.26 110.784C289.706 110.53 289.272 110.175 288.957 109.722C288.647 109.262 288.492 108.767 288.492 108.236H290.027C290.055 108.75 290.26 109.16 290.642 109.464C291.029 109.763 291.538 109.913 292.169 109.913C292.75 109.913 293.215 109.796 293.563 109.564C293.918 109.326 294.095 109.011 294.095 108.618Z" fill="#949494"/>
</svg>
