<svg width="33" height="33" viewBox="0 0 33 33" fill="none" xmlns="http://www.w3.org/2000/svg">
<g clip-path="url(#clip0_1_1764)">
<path d="M24.8579 0.625H8.85791C4.43963 0.625 0.85791 4.20672 0.85791 8.625V24.625C0.85791 29.0433 4.43963 32.625 8.85791 32.625H24.8579C29.2762 32.625 32.8579 29.0433 32.8579 24.625V8.625C32.8579 4.20672 29.2762 0.625 24.8579 0.625Z" fill="#292929"/>
<path d="M14.0258 10.25C13.2967 10.25 12.6196 10.4323 11.9946 10.7969C11.3826 11.1615 10.8943 11.6562 10.5297 12.2812C10.1652 12.8932 9.98291 13.5638 9.98291 14.293V19.957C9.98291 20.6862 10.1652 21.3633 10.5297 21.9883C10.8943 22.6003 11.3826 23.0885 11.9946 23.4531C12.6196 23.8177 13.2967 24 14.0258 24H19.6899C20.4191 24 21.0896 23.8177 21.7016 23.4531C22.3266 23.0885 22.8214 22.6003 23.186 21.9883C23.5506 21.3633 23.7329 20.6862 23.7329 19.957V14.293C23.7329 13.5638 23.5506 12.8932 23.186 12.2812C22.8214 11.6562 22.3266 11.1615 21.7016 10.7969C21.0896 10.4323 20.4191 10.25 19.6899 10.25H14.0258ZM14.0258 11.5H19.6899C20.1977 11.5 20.6665 11.6237 21.0962 11.8711C21.5258 12.1185 21.8644 12.457 22.1118 12.8867C22.3592 13.3164 22.4829 13.7852 22.4829 14.293V19.957C22.4829 20.4648 22.3592 20.9336 22.1118 21.3633C21.8644 21.793 21.5258 22.1315 21.0962 22.3789C20.6665 22.6263 20.1977 22.75 19.6899 22.75H14.0258C13.518 22.75 13.0493 22.6263 12.6196 22.3789C12.1899 22.1315 11.8514 21.793 11.604 21.3633C11.3566 20.9336 11.2329 20.4648 11.2329 19.957V14.293C11.2329 13.7852 11.3566 13.3164 11.604 12.8867C11.8514 12.457 12.1899 12.1185 12.6196 11.8711C13.0493 11.6237 13.518 11.5 14.0258 11.5ZM20.5493 12.8672C20.393 12.8672 20.2563 12.9258 20.1391 13.043C20.035 13.1471 19.9829 13.2773 19.9829 13.4336C19.9829 13.5898 20.035 13.7266 20.1391 13.8438C20.2563 13.9479 20.393 14 20.5493 14C20.7055 14 20.8357 13.9479 20.9399 13.8438C21.0571 13.7266 21.1157 13.5898 21.1157 13.4336C21.1157 13.2773 21.0571 13.1471 20.9399 13.043C20.8357 12.9258 20.7055 12.8672 20.5493 12.8672ZM16.8579 13.375C16.1808 13.375 15.5558 13.5443 14.9829 13.8828C14.41 14.2214 13.9542 14.6771 13.6157 15.25C13.2771 15.8229 13.1079 16.4479 13.1079 17.125C13.1079 17.8021 13.2771 18.4271 13.6157 19C13.9542 19.5729 14.41 20.0286 14.9829 20.3672C15.5558 20.7057 16.1808 20.875 16.8579 20.875C17.535 20.875 18.16 20.7057 18.7329 20.3672C19.3058 20.0286 19.7615 19.5729 20.1001 19C20.4386 18.4271 20.6079 17.8021 20.6079 17.125C20.6079 16.4479 20.4386 15.8229 20.1001 15.25C19.7615 14.6771 19.3058 14.2214 18.7329 13.8828C18.16 13.5443 17.535 13.375 16.8579 13.375ZM16.8579 14.625C17.3136 14.625 17.7303 14.7357 18.1079 14.957C18.4985 15.1784 18.8045 15.4844 19.0258 15.875C19.2472 16.2526 19.3579 16.6693 19.3579 17.125C19.3579 17.5807 19.2472 18.0039 19.0258 18.3945C18.8045 18.7721 18.4985 19.0716 18.1079 19.293C17.7303 19.5143 17.3136 19.625 16.8579 19.625C16.4021 19.625 15.979 19.5143 15.5883 19.293C15.2107 19.0716 14.9113 18.7721 14.6899 18.3945C14.4685 18.0039 14.3579 17.5807 14.3579 17.125C14.3579 16.6693 14.4685 16.2526 14.6899 15.875C14.9113 15.4844 15.2107 15.1784 15.5883 14.957C15.979 14.7357 16.4021 14.625 16.8579 14.625Z" fill="#BFBFBF"/>
</g>
<defs>
<clipPath id="clip0_1_1764">
<rect width="33" height="32" fill="white" transform="translate(0 0.625)"/>
</clipPath>
</defs>
</svg>
