<svg width="33" height="33" viewBox="0 0 33 33" fill="none" xmlns="http://www.w3.org/2000/svg">
<g clip-path="url(#clip0_1_1776)">
<path d="M24.8579 0.625H8.85791C4.43963 0.625 0.85791 4.20672 0.85791 8.625V24.625C0.85791 29.0433 4.43963 32.625 8.85791 32.625H24.8579C29.2762 32.625 32.8579 29.0433 32.8579 24.625V8.625C32.8579 4.20672 29.2762 0.625 24.8579 0.625Z" fill="#292929"/>
<path d="M24.3579 12.4766C23.798 12.724 23.212 12.8867 22.6001 12.9648C22.9126 12.7695 23.186 12.5286 23.4204 12.2422C23.6547 11.9427 23.8305 11.6108 23.9477 11.2462C23.3357 11.6108 22.6847 11.8646 21.9946 12.0078C21.7081 11.6953 21.3696 11.4544 20.979 11.2852C20.5883 11.1159 20.1782 11.0312 19.7485 11.0312C19.1886 11.0312 18.6743 11.168 18.2055 11.4414C17.7368 11.7148 17.3592 12.0924 17.0727 12.5742C16.7993 13.043 16.6626 13.5508 16.6626 14.0977C16.6626 14.3451 16.6886 14.5794 16.7407 14.8008C15.4907 14.7487 14.3058 14.4297 13.186 13.8438C12.1053 13.2969 11.1743 12.5482 10.393 11.5977C10.1196 12.0664 9.98291 12.5807 9.98291 13.1406C9.98291 13.6615 10.1066 14.1497 10.354 14.6055C10.6014 15.0612 10.9334 15.4258 11.3501 15.6992C10.8553 15.6862 10.393 15.5561 9.96338 15.3087V15.3477C9.96338 16.0898 10.1977 16.7474 10.6665 17.3203C11.1352 17.8802 11.7212 18.2318 12.4243 18.375C12.1639 18.4401 11.8969 18.4727 11.6235 18.4727C11.4282 18.4727 11.2329 18.4596 11.0376 18.4336C11.2329 19.0456 11.5909 19.5535 12.1118 19.9571C12.6456 20.3478 13.2446 20.5495 13.9087 20.5625C13.3748 20.9792 12.7824 21.3048 12.1313 21.5392C11.4803 21.7735 10.8032 21.8906 10.1001 21.8906C9.8527 21.8776 9.60531 21.8582 9.35791 21.8321C10.048 22.2748 10.7902 22.6133 11.5844 22.8477C12.3917 23.0951 13.2185 23.2188 14.0649 23.2188C15.4321 23.2188 16.6886 22.9518 17.8344 22.418C18.8761 21.9362 19.7876 21.2527 20.5688 20.3673C21.298 19.547 21.8644 18.6095 22.268 17.5548C22.6456 16.5261 22.8344 15.4974 22.8344 14.4688L22.8149 14.0587C23.4269 13.629 23.9412 13.1016 24.3579 12.4766Z" fill="#BFBFBF"/>
</g>
<defs>
<clipPath id="clip0_1_1776">
<rect width="33" height="32" fill="white" transform="translate(0 0.625)"/>
</clipPath>
</defs>
</svg>
