<svg width="408" height="150" viewBox="0 0 408 150" fill="none" xmlns="http://www.w3.org/2000/svg">
<path d="M0 16C0 7.16345 7.16344 0 16 0H392C400.837 0 408 7.16344 408 16V134C408 142.837 400.837 150 392 150H16C7.16344 150 0 142.837 0 134V16Z" fill="#3E3E3E"/>
<path d="M61.3945 89.6778C57.8589 100.284 43.7168 100.284 43.7168 100.284C43.7168 100.284 43.7168 86.1423 54.3234 82.6067" stroke="black" stroke-width="2" stroke-linecap="round" stroke-linejoin="round"/>
<path d="M93.2137 64.9289L72.0005 86.1421L57.8584 71.9999L79.0716 50.7867C87.1041 42.7542 95.1367 42.8325 98.5623 43.3436C99.0898 43.4223 99.578 43.6682 99.9551 44.0453C100.332 44.4224 100.578 44.9106 100.657 45.4381C101.168 48.8638 101.246 56.8963 93.2137 64.9289Z" stroke="black" stroke-width="2" stroke-linecap="round" stroke-linejoin="round"/>
<path d="M89.6777 68.4646V88.6423C89.6777 88.9706 89.613 89.2957 89.4874 89.599C89.3617 89.9023 89.1776 90.1779 88.9454 90.4101L78.8386 100.517C78.5187 100.837 78.1179 101.064 77.679 101.174C77.24 101.284 76.7795 101.273 76.3464 101.142C75.9133 101.011 75.524 100.764 75.2198 100.429C74.9157 100.094 74.7082 99.6831 74.6194 99.2394L72 86.1423" stroke="black" stroke-width="2" stroke-linecap="round" stroke-linejoin="round"/>
<path d="M75.5354 54.3225H55.3578C55.0295 54.3225 54.7044 54.3872 54.4011 54.5128C54.0978 54.6384 53.8222 54.8226 53.59 55.0547L43.4832 65.1615C43.1632 65.4815 42.9361 65.8823 42.8261 66.3212C42.716 66.7601 42.7271 67.2207 42.8582 67.6537C42.9894 68.0868 43.2356 68.4762 43.5706 68.7803C43.9057 69.0845 44.317 69.292 44.7607 69.3807L57.8578 72.0002" stroke="black" stroke-width="2" stroke-linecap="round" stroke-linejoin="round"/>
<path d="M148.054 52.5986V59H145.898V42.6484H151.929C153.718 42.6484 155.118 43.1051 156.129 44.0186C157.147 44.932 157.656 46.1411 157.656 47.646C157.656 49.2332 157.158 50.4574 156.163 51.3184C155.174 52.1719 153.756 52.5986 151.906 52.5986H148.054ZM148.054 50.8354H151.929C153.082 50.8354 153.965 50.5659 154.579 50.0269C155.193 49.4803 155.5 48.6942 155.5 47.6685C155.5 46.6951 155.193 45.9165 154.579 45.3325C153.965 44.7485 153.123 44.4453 152.052 44.4229H148.054V50.8354ZM165.956 48.7129C165.641 48.6605 165.3 48.6343 164.934 48.6343C163.571 48.6343 162.646 49.2145 162.16 50.375V59H160.082V46.8486H162.104L162.137 48.2524C162.819 47.1668 163.784 46.624 165.035 46.624C165.439 46.624 165.746 46.6764 165.956 46.7812V48.7129ZM167.101 52.812C167.101 51.6216 167.333 50.5509 167.797 49.6001C168.269 48.6493 168.92 47.9155 169.751 47.3989C170.59 46.8823 171.545 46.624 172.615 46.624C174.27 46.624 175.606 47.1968 176.625 48.3423C177.65 49.4878 178.163 51.0114 178.163 52.9131V53.0591C178.163 54.242 177.935 55.3052 177.478 56.2485C177.029 57.1844 176.381 57.9144 175.535 58.4385C174.697 58.9626 173.731 59.2246 172.638 59.2246C170.991 59.2246 169.654 58.6519 168.628 57.5063C167.61 56.3608 167.101 54.8447 167.101 52.958V52.812ZM169.19 53.0591C169.19 54.4067 169.501 55.4886 170.122 56.3047C170.751 57.1208 171.59 57.5288 172.638 57.5288C173.693 57.5288 174.532 57.117 175.153 56.2935C175.775 55.4624 176.085 54.3019 176.085 52.812C176.085 51.4793 175.767 50.4012 175.131 49.5776C174.502 48.7466 173.663 48.3311 172.615 48.3311C171.59 48.3311 170.762 48.7391 170.133 49.5552C169.504 50.3713 169.19 51.5392 169.19 53.0591ZM182.914 46.8486V60.4038C182.914 62.7397 181.854 63.9077 179.735 63.9077C179.279 63.9077 178.856 63.8403 178.466 63.7056V62.0435C178.706 62.1034 179.02 62.1333 179.41 62.1333C179.874 62.1333 180.226 62.006 180.465 61.7515C180.712 61.5044 180.836 61.0701 180.836 60.4487V46.8486H182.914ZM180.623 43.6255C180.623 43.2961 180.724 43.0153 180.926 42.7832C181.135 42.5436 181.439 42.4238 181.835 42.4238C182.24 42.4238 182.547 42.5399 182.756 42.772C182.966 43.0041 183.071 43.2886 183.071 43.6255C183.071 43.9624 182.966 44.2432 182.756 44.4678C182.547 44.6924 182.24 44.8047 181.835 44.8047C181.431 44.8047 181.128 44.6924 180.926 44.4678C180.724 44.2432 180.623 43.9624 180.623 43.6255ZM191.314 59.2246C189.667 59.2246 188.327 58.6855 187.293 57.6074C186.26 56.5218 185.744 55.0731 185.744 53.2612V52.8794C185.744 51.674 185.972 50.5996 186.429 49.6562C186.893 48.7054 187.537 47.9642 188.36 47.4326C189.191 46.8936 190.09 46.624 191.056 46.624C192.635 46.624 193.863 47.1444 194.739 48.1851C195.615 49.2257 196.053 50.7157 196.053 52.6548V53.5195H187.821C187.851 54.7174 188.199 55.687 188.866 56.4282C189.54 57.1619 190.393 57.5288 191.426 57.5288C192.16 57.5288 192.781 57.3791 193.291 57.0796C193.8 56.7801 194.245 56.3833 194.627 55.8892L195.896 56.8774C194.878 58.4422 193.35 59.2246 191.314 59.2246ZM191.056 48.3311C190.217 48.3311 189.513 48.638 188.944 49.252C188.375 49.8584 188.023 50.7119 187.889 51.8125H193.976V51.6553C193.916 50.5996 193.631 49.7835 193.122 49.207C192.613 48.623 191.924 48.3311 191.056 48.3311ZM203.342 57.5288C204.083 57.5288 204.731 57.3042 205.285 56.855C205.839 56.4058 206.146 55.8442 206.206 55.1704H208.171C208.133 55.8667 207.894 56.5293 207.452 57.1582C207.01 57.7871 206.419 58.2887 205.678 58.6631C204.944 59.0374 204.165 59.2246 203.342 59.2246C201.687 59.2246 200.369 58.6743 199.389 57.5737C198.415 56.4657 197.929 54.9533 197.929 53.0366V52.6885C197.929 51.5055 198.146 50.4536 198.58 49.5327C199.014 48.6118 199.636 47.8968 200.444 47.3877C201.26 46.8786 202.222 46.624 203.331 46.624C204.693 46.624 205.824 47.0321 206.722 47.8481C207.628 48.6642 208.111 49.7236 208.171 51.0264H206.206C206.146 50.2402 205.846 49.5964 205.307 49.0947C204.776 48.5856 204.117 48.3311 203.331 48.3311C202.275 48.3311 201.455 48.7129 200.871 49.4766C200.295 50.2327 200.006 51.3296 200.006 52.7671V53.1602C200.006 54.5602 200.295 55.6383 200.871 56.3945C201.448 57.1507 202.271 57.5288 203.342 57.5288ZM213.326 43.9062V46.8486H215.594V48.4546H213.326V55.9902C213.326 56.4769 213.427 56.8438 213.629 57.0908C213.831 57.3304 214.175 57.4502 214.662 57.4502C214.902 57.4502 215.231 57.4053 215.65 57.3154V59C215.104 59.1497 214.572 59.2246 214.056 59.2246C213.127 59.2246 212.427 58.9438 211.956 58.3823C211.484 57.8208 211.248 57.0234 211.248 55.9902V48.4546H209.036V46.8486H211.248V43.9062H213.326ZM225.106 55.7769C225.106 55.2153 224.893 54.7811 224.466 54.4741C224.047 54.1597 223.31 53.8901 222.254 53.6655C221.206 53.4409 220.371 53.1714 219.75 52.8569C219.136 52.5425 218.679 52.1681 218.379 51.7339C218.087 51.2996 217.941 50.783 217.941 50.1841C217.941 49.1883 218.361 48.346 219.199 47.6572C220.045 46.9684 221.123 46.624 222.434 46.624C223.811 46.624 224.927 46.9797 225.78 47.6909C226.641 48.4022 227.072 49.3118 227.072 50.4199H224.983C224.983 49.8509 224.74 49.3605 224.253 48.9487C223.774 48.5369 223.167 48.3311 222.434 48.3311C221.677 48.3311 221.086 48.4958 220.659 48.8252C220.232 49.1546 220.019 49.5851 220.019 50.1167C220.019 50.6183 220.217 50.9964 220.614 51.251C221.011 51.5055 221.726 51.7489 222.759 51.981C223.8 52.2131 224.642 52.4901 225.286 52.812C225.93 53.134 226.405 53.5233 226.712 53.98C227.027 54.4292 227.184 54.9795 227.184 55.6309C227.184 56.7165 226.75 57.5887 225.881 58.2476C225.013 58.8989 223.886 59.2246 222.501 59.2246C221.528 59.2246 220.667 59.0524 219.918 58.708C219.169 58.3636 218.582 57.8844 218.155 57.2705C217.736 56.6491 217.526 55.979 217.526 55.2603H219.604C219.641 55.9565 219.918 56.5106 220.435 56.9224C220.959 57.3267 221.647 57.5288 222.501 57.5288C223.287 57.5288 223.916 57.3716 224.388 57.0571C224.867 56.7352 225.106 56.3084 225.106 55.7769Z" fill="#FFFEF8"/>
<path d="M153.753 76.2256H149.869V87H148.283V76.2256H144.407V74.9141H153.753V76.2256ZM159.016 79.3965C158.784 79.3577 158.532 79.3384 158.261 79.3384C157.254 79.3384 156.57 79.7673 156.21 80.625V87H154.675V78.0186H156.169L156.194 79.0562C156.697 78.2537 157.411 77.8525 158.335 77.8525C158.634 77.8525 158.861 77.8913 159.016 77.9688V79.3965ZM165.648 87C165.56 86.8229 165.488 86.5075 165.433 86.0537C164.719 86.7952 163.867 87.166 162.876 87.166C161.991 87.166 161.263 86.917 160.693 86.4189C160.128 85.9154 159.846 85.279 159.846 84.5098C159.846 83.5745 160.2 82.8496 160.909 82.335C161.623 81.8148 162.624 81.5547 163.914 81.5547H165.408V80.8491C165.408 80.3123 165.247 79.8862 164.926 79.5708C164.605 79.2498 164.132 79.0894 163.507 79.0894C162.959 79.0894 162.5 79.2277 162.129 79.5044C161.758 79.7811 161.573 80.1159 161.573 80.5088H160.029C160.029 80.0605 160.187 79.6289 160.502 79.2139C160.823 78.7933 161.255 78.4613 161.797 78.2178C162.345 77.9743 162.945 77.8525 163.598 77.8525C164.633 77.8525 165.444 78.1126 166.03 78.6328C166.617 79.1475 166.921 79.8586 166.943 80.7661V84.8999C166.943 85.7244 167.049 86.3802 167.259 86.8672V87H165.648ZM163.1 85.8296C163.582 85.8296 164.038 85.7051 164.47 85.4561C164.901 85.207 165.214 84.8833 165.408 84.4849V82.6421H164.204C162.323 82.6421 161.382 83.1927 161.382 84.2939C161.382 84.7754 161.542 85.1517 161.863 85.4229C162.184 85.694 162.597 85.8296 163.1 85.8296ZM172.953 85.9126C173.501 85.9126 173.98 85.7466 174.389 85.4146C174.799 85.0825 175.026 84.6675 175.07 84.1694H176.522C176.495 84.6841 176.318 85.1738 175.991 85.6387C175.665 86.1035 175.228 86.4743 174.68 86.751C174.137 87.0277 173.562 87.166 172.953 87.166C171.73 87.166 170.756 86.7593 170.031 85.9458C169.312 85.1268 168.952 84.009 168.952 82.5923V82.335C168.952 81.4606 169.113 80.6831 169.434 80.0024C169.755 79.3218 170.214 78.7933 170.812 78.417C171.415 78.0407 172.126 77.8525 172.945 77.8525C173.952 77.8525 174.788 78.1541 175.452 78.7573C176.121 79.3605 176.478 80.1436 176.522 81.1064H175.07C175.026 80.5254 174.804 80.0495 174.406 79.6787C174.013 79.3024 173.526 79.1143 172.945 79.1143C172.165 79.1143 171.559 79.3965 171.127 79.9609C170.701 80.5199 170.488 81.3306 170.488 82.3931V82.6836C170.488 83.7184 170.701 84.5153 171.127 85.0742C171.553 85.6331 172.162 85.9126 172.953 85.9126ZM180.756 82.8413L179.793 83.8457V87H178.257V74.25H179.793V81.9614L180.615 80.9736L183.412 78.0186H185.28L181.785 81.7705L185.687 87H183.885L180.756 82.8413ZM196.627 87C196.538 86.8229 196.466 86.5075 196.411 86.0537C195.697 86.7952 194.845 87.166 193.854 87.166C192.969 87.166 192.241 86.917 191.671 86.4189C191.107 85.9154 190.825 85.279 190.825 84.5098C190.825 83.5745 191.179 82.8496 191.887 82.335C192.601 81.8148 193.603 81.5547 194.892 81.5547H196.386V80.8491C196.386 80.3123 196.226 79.8862 195.905 79.5708C195.584 79.2498 195.111 79.0894 194.485 79.0894C193.938 79.0894 193.478 79.2277 193.107 79.5044C192.737 79.7811 192.551 80.1159 192.551 80.5088H191.007C191.007 80.0605 191.165 79.6289 191.48 79.2139C191.801 78.7933 192.233 78.4613 192.775 78.2178C193.323 77.9743 193.924 77.8525 194.577 77.8525C195.611 77.8525 196.422 78.1126 197.009 78.6328C197.595 79.1475 197.9 79.8586 197.922 80.7661V84.8999C197.922 85.7244 198.027 86.3802 198.237 86.8672V87H196.627ZM194.079 85.8296C194.56 85.8296 195.017 85.7051 195.448 85.4561C195.88 85.207 196.193 84.8833 196.386 84.4849V82.6421H195.183C193.301 82.6421 192.36 83.1927 192.36 84.2939C192.36 84.7754 192.521 85.1517 192.842 85.4229C193.163 85.694 193.575 85.8296 194.079 85.8296ZM203.932 85.9126C204.479 85.9126 204.958 85.7466 205.368 85.4146C205.777 85.0825 206.004 84.6675 206.048 84.1694H207.501C207.473 84.6841 207.296 85.1738 206.97 85.6387C206.643 86.1035 206.206 86.4743 205.658 86.751C205.116 87.0277 204.54 87.166 203.932 87.166C202.709 87.166 201.735 86.7593 201.01 85.9458C200.29 85.1268 199.931 84.009 199.931 82.5923V82.335C199.931 81.4606 200.091 80.6831 200.412 80.0024C200.733 79.3218 201.192 78.7933 201.79 78.417C202.393 78.0407 203.104 77.8525 203.923 77.8525C204.931 77.8525 205.766 78.1541 206.43 78.7573C207.1 79.3605 207.457 80.1436 207.501 81.1064H206.048C206.004 80.5254 205.783 80.0495 205.384 79.6787C204.991 79.3024 204.504 79.1143 203.923 79.1143C203.143 79.1143 202.537 79.3965 202.105 79.9609C201.679 80.5199 201.466 81.3306 201.466 82.3931V82.6836C201.466 83.7184 201.679 84.5153 202.105 85.0742C202.532 85.6331 203.14 85.9126 203.932 85.9126ZM211.311 75.8438V78.0186H212.988V79.2056H211.311V84.7754C211.311 85.1351 211.386 85.4062 211.535 85.5889C211.685 85.766 211.939 85.8545 212.299 85.8545C212.476 85.8545 212.719 85.8213 213.029 85.7549V87C212.625 87.1107 212.232 87.166 211.851 87.166C211.164 87.166 210.647 86.9585 210.298 86.5435C209.95 86.1284 209.775 85.5391 209.775 84.7754V79.2056H208.14V78.0186H209.775V75.8438H211.311ZM216.458 87H214.922V78.0186H216.458V87ZM214.797 75.6362C214.797 75.3872 214.872 75.1769 215.021 75.0054C215.176 74.8338 215.403 74.748 215.702 74.748C216.001 74.748 216.228 74.8338 216.383 75.0054C216.538 75.1769 216.615 75.3872 216.615 75.6362C216.615 75.8853 216.538 76.0928 216.383 76.2588C216.228 76.4248 216.001 76.5078 215.702 76.5078C215.403 76.5078 215.176 76.4248 215.021 76.2588C214.872 76.0928 214.797 75.8853 214.797 75.6362ZM221.886 84.9165L224.111 78.0186H225.68L222.459 87H221.289L218.035 78.0186H219.604L221.886 84.9165ZM228.826 87H227.29V78.0186H228.826V87ZM227.166 75.6362C227.166 75.3872 227.24 75.1769 227.39 75.0054C227.545 74.8338 227.771 74.748 228.07 74.748C228.369 74.748 228.596 74.8338 228.751 75.0054C228.906 75.1769 228.983 75.3872 228.983 75.6362C228.983 75.8853 228.906 76.0928 228.751 76.2588C228.596 76.4248 228.369 76.5078 228.07 76.5078C227.771 76.5078 227.545 76.4248 227.39 76.2588C227.24 76.0928 227.166 75.8853 227.166 75.6362ZM233.375 75.8438V78.0186H235.051V79.2056H233.375V84.7754C233.375 85.1351 233.449 85.4062 233.599 85.5889C233.748 85.766 234.003 85.8545 234.362 85.8545C234.539 85.8545 234.783 85.8213 235.093 85.7549V87C234.689 87.1107 234.296 87.166 233.914 87.166C233.228 87.166 232.71 86.9585 232.362 86.5435C232.013 86.1284 231.839 85.5391 231.839 84.7754V79.2056H230.204V78.0186H231.839V75.8438H233.375ZM239.791 84.7505L241.883 78.0186H243.526L239.916 88.3862C239.357 89.8804 238.468 90.6274 237.251 90.6274L236.96 90.6025L236.388 90.4946V89.2495L236.803 89.2827C237.323 89.2827 237.727 89.1776 238.015 88.9673C238.308 88.757 238.549 88.3724 238.737 87.8135L239.077 86.9004L235.873 78.0186H237.55L239.791 84.7505ZM254.666 87C254.577 86.8229 254.506 86.5075 254.45 86.0537C253.736 86.7952 252.884 87.166 251.894 87.166C251.008 87.166 250.28 86.917 249.71 86.4189C249.146 85.9154 248.864 85.279 248.864 84.5098C248.864 83.5745 249.218 82.8496 249.926 82.335C250.64 81.8148 251.642 81.5547 252.931 81.5547H254.425V80.8491C254.425 80.3123 254.265 79.8862 253.944 79.5708C253.623 79.2498 253.15 79.0894 252.524 79.0894C251.977 79.0894 251.517 79.2277 251.146 79.5044C250.776 79.7811 250.59 80.1159 250.59 80.5088H249.046C249.046 80.0605 249.204 79.6289 249.52 79.2139C249.84 78.7933 250.272 78.4613 250.814 78.2178C251.362 77.9743 251.963 77.8525 252.616 77.8525C253.651 77.8525 254.461 78.1126 255.048 78.6328C255.634 79.1475 255.939 79.8586 255.961 80.7661V84.8999C255.961 85.7244 256.066 86.3802 256.276 86.8672V87H254.666ZM252.118 85.8296C252.599 85.8296 253.056 85.7051 253.487 85.4561C253.919 85.207 254.232 84.8833 254.425 84.4849V82.6421H253.222C251.34 82.6421 250.399 83.1927 250.399 84.2939C250.399 84.7754 250.56 85.1517 250.881 85.4229C251.202 85.694 251.614 85.8296 252.118 85.8296ZM261.971 85.9126C262.519 85.9126 262.997 85.7466 263.407 85.4146C263.816 85.0825 264.043 84.6675 264.087 84.1694H265.54C265.512 84.6841 265.335 85.1738 265.009 85.6387C264.682 86.1035 264.245 86.4743 263.697 86.751C263.155 87.0277 262.579 87.166 261.971 87.166C260.748 87.166 259.774 86.7593 259.049 85.9458C258.329 85.1268 257.97 84.009 257.97 82.5923V82.335C257.97 81.4606 258.13 80.6831 258.451 80.0024C258.772 79.3218 259.231 78.7933 259.829 78.417C260.432 78.0407 261.143 77.8525 261.962 77.8525C262.97 77.8525 263.805 78.1541 264.469 78.7573C265.139 79.3605 265.496 80.1436 265.54 81.1064H264.087C264.043 80.5254 263.822 80.0495 263.423 79.6787C263.03 79.3024 262.543 79.1143 261.962 79.1143C261.182 79.1143 260.576 79.3965 260.145 79.9609C259.718 80.5199 259.505 81.3306 259.505 82.3931V82.6836C259.505 83.7184 259.718 84.5153 260.145 85.0742C260.571 85.6331 261.179 85.9126 261.971 85.9126ZM271.608 79.3965C271.375 79.3577 271.124 79.3384 270.853 79.3384C269.845 79.3384 269.162 79.7673 268.802 80.625V87H267.267V78.0186H268.761L268.786 79.0562C269.289 78.2537 270.003 77.8525 270.927 77.8525C271.226 77.8525 271.453 77.8913 271.608 77.9688V79.3965ZM272.455 82.4263C272.455 81.5464 272.626 80.755 272.969 80.0522C273.318 79.3494 273.799 78.8071 274.414 78.4253C275.033 78.0435 275.739 77.8525 276.53 77.8525C277.753 77.8525 278.741 78.2759 279.494 79.1226C280.252 79.9692 280.631 81.0954 280.631 82.501V82.6089C280.631 83.4832 280.462 84.269 280.125 84.9663C279.792 85.658 279.314 86.1976 278.688 86.585C278.069 86.9723 277.355 87.166 276.547 87.166C275.329 87.166 274.342 86.7427 273.583 85.896C272.831 85.0493 272.455 83.9287 272.455 82.5342V82.4263ZM273.999 82.6089C273.999 83.605 274.228 84.4046 274.688 85.0078C275.152 85.611 275.772 85.9126 276.547 85.9126C277.327 85.9126 277.947 85.6082 278.406 84.9995C278.866 84.3853 279.095 83.5275 279.095 82.4263C279.095 81.4412 278.86 80.6444 278.39 80.0356C277.925 79.4214 277.305 79.1143 276.53 79.1143C275.772 79.1143 275.161 79.4159 274.696 80.019C274.231 80.6222 273.999 81.4855 273.999 82.6089ZM287.786 84.6177C287.786 84.2026 287.628 83.8817 287.313 83.6548C287.003 83.4224 286.458 83.2231 285.678 83.0571C284.903 82.8911 284.286 82.6919 283.827 82.4595C283.373 82.2271 283.035 81.9504 282.814 81.6294C282.598 81.3084 282.49 80.9266 282.49 80.4839C282.49 79.7479 282.8 79.1253 283.42 78.6162C284.045 78.1071 284.842 77.8525 285.811 77.8525C286.829 77.8525 287.653 78.1154 288.284 78.6411C288.921 79.1668 289.239 79.8392 289.239 80.6582H287.695C287.695 80.2376 287.515 79.8752 287.155 79.5708C286.801 79.2664 286.353 79.1143 285.811 79.1143C285.252 79.1143 284.814 79.236 284.499 79.4795C284.184 79.723 284.026 80.0412 284.026 80.4341C284.026 80.8049 284.173 81.0843 284.466 81.2725C284.759 81.4606 285.288 81.6405 286.051 81.812C286.82 81.9836 287.443 82.1883 287.919 82.4263C288.395 82.6642 288.746 82.952 288.973 83.2896C289.206 83.6216 289.322 84.0283 289.322 84.5098C289.322 85.3122 289.001 85.9569 288.359 86.4438C287.717 86.9253 286.884 87.166 285.86 87.166C285.141 87.166 284.505 87.0387 283.951 86.7842C283.398 86.5296 282.963 86.1755 282.648 85.7217C282.338 85.2624 282.183 84.7671 282.183 84.2358H283.719C283.746 84.7505 283.951 85.16 284.333 85.4644C284.72 85.7632 285.229 85.9126 285.86 85.9126C286.441 85.9126 286.906 85.7964 287.255 85.564C287.609 85.326 287.786 85.0106 287.786 84.6177ZM296.552 84.6177C296.552 84.2026 296.394 83.8817 296.079 83.6548C295.769 83.4224 295.224 83.2231 294.443 83.0571C293.669 82.8911 293.052 82.6919 292.592 82.4595C292.139 82.2271 291.801 81.9504 291.58 81.6294C291.364 81.3084 291.256 80.9266 291.256 80.4839C291.256 79.7479 291.566 79.1253 292.186 78.6162C292.811 78.1071 293.608 77.8525 294.576 77.8525C295.594 77.8525 296.419 78.1154 297.05 78.6411C297.686 79.1668 298.004 79.8392 298.004 80.6582H296.46C296.46 80.2376 296.281 79.8752 295.921 79.5708C295.567 79.2664 295.118 79.1143 294.576 79.1143C294.017 79.1143 293.58 79.236 293.265 79.4795C292.949 79.723 292.792 80.0412 292.792 80.4341C292.792 80.8049 292.938 81.0843 293.231 81.2725C293.525 81.4606 294.053 81.6405 294.817 81.812C295.586 81.9836 296.209 82.1883 296.685 82.4263C297.16 82.6642 297.512 82.952 297.739 83.2896C297.971 83.6216 298.087 84.0283 298.087 84.5098C298.087 85.3122 297.766 85.9569 297.125 86.4438C296.483 86.9253 295.65 87.166 294.626 87.166C293.907 87.166 293.27 87.0387 292.717 86.7842C292.163 86.5296 291.729 86.1755 291.414 85.7217C291.104 85.2624 290.949 84.7671 290.949 84.2358H292.484C292.512 84.7505 292.717 85.16 293.099 85.4644C293.486 85.7632 293.995 85.9126 294.626 85.9126C295.207 85.9126 295.672 85.7964 296.021 85.564C296.375 85.326 296.552 85.0106 296.552 84.6177ZM147.246 99.8438V102.019H148.922V103.206H147.246V108.775C147.246 109.135 147.32 109.406 147.47 109.589C147.619 109.766 147.874 109.854 148.233 109.854C148.41 109.854 148.654 109.821 148.964 109.755V111C148.56 111.111 148.167 111.166 147.785 111.166C147.099 111.166 146.582 110.958 146.233 110.543C145.884 110.128 145.71 109.539 145.71 108.775V103.206H144.075V102.019H145.71V99.8438H147.246ZM154.451 111.166C153.233 111.166 152.243 110.768 151.479 109.971C150.715 109.168 150.333 108.097 150.333 106.758V106.476C150.333 105.585 150.502 104.791 150.84 104.094C151.183 103.391 151.659 102.843 152.268 102.45C152.882 102.052 153.546 101.853 154.26 101.853C155.427 101.853 156.335 102.237 156.982 103.006C157.63 103.776 157.954 104.877 157.954 106.31V106.949H151.869C151.891 107.835 152.149 108.551 152.641 109.099C153.139 109.641 153.77 109.913 154.534 109.913C155.076 109.913 155.535 109.802 155.912 109.581C156.288 109.359 156.617 109.066 156.899 108.701L157.837 109.431C157.085 110.588 155.956 111.166 154.451 111.166ZM154.26 103.114C153.64 103.114 153.12 103.341 152.699 103.795C152.279 104.243 152.019 104.874 151.919 105.688H156.418V105.571C156.374 104.791 156.163 104.188 155.787 103.762C155.411 103.33 154.902 103.114 154.26 103.114ZM165.283 111C165.195 110.823 165.123 110.507 165.067 110.054C164.354 110.795 163.501 111.166 162.511 111.166C161.625 111.166 160.898 110.917 160.328 110.419C159.763 109.915 159.481 109.279 159.481 108.51C159.481 107.575 159.835 106.85 160.543 106.335C161.257 105.815 162.259 105.555 163.548 105.555H165.042V104.849C165.042 104.312 164.882 103.886 164.561 103.571C164.24 103.25 163.767 103.089 163.142 103.089C162.594 103.089 162.134 103.228 161.764 103.504C161.393 103.781 161.208 104.116 161.208 104.509H159.664C159.664 104.061 159.821 103.629 160.137 103.214C160.458 102.793 160.889 102.461 161.432 102.218C161.979 101.974 162.58 101.853 163.233 101.853C164.268 101.853 165.078 102.113 165.665 102.633C166.252 103.147 166.556 103.859 166.578 104.766V108.9C166.578 109.724 166.683 110.38 166.894 110.867V111H165.283ZM162.735 109.83C163.216 109.83 163.673 109.705 164.104 109.456C164.536 109.207 164.849 108.883 165.042 108.485V106.642H163.839C161.957 106.642 161.017 107.193 161.017 108.294C161.017 108.775 161.177 109.152 161.498 109.423C161.819 109.694 162.231 109.83 162.735 109.83ZM170.43 102.019L170.471 103.015C171.13 102.24 172.018 101.853 173.136 101.853C174.392 101.853 175.247 102.334 175.701 103.297C176 102.865 176.387 102.517 176.863 102.251C177.344 101.985 177.911 101.853 178.564 101.853C180.535 101.853 181.536 102.896 181.569 104.982V111H180.034V105.073C180.034 104.431 179.887 103.953 179.594 103.637C179.3 103.316 178.808 103.156 178.116 103.156C177.546 103.156 177.073 103.327 176.697 103.67C176.32 104.008 176.102 104.465 176.041 105.04V111H174.497V105.115C174.497 103.809 173.858 103.156 172.58 103.156C171.572 103.156 170.883 103.585 170.513 104.442V111H168.977V102.019H170.43ZM189.123 108.618C189.123 108.203 188.965 107.882 188.65 107.655C188.34 107.422 187.795 107.223 187.015 107.057C186.24 106.891 185.623 106.692 185.164 106.459C184.71 106.227 184.372 105.95 184.151 105.629C183.935 105.308 183.827 104.927 183.827 104.484C183.827 103.748 184.137 103.125 184.757 102.616C185.382 102.107 186.179 101.853 187.147 101.853C188.166 101.853 188.99 102.115 189.621 102.641C190.257 103.167 190.576 103.839 190.576 104.658H189.032C189.032 104.238 188.852 103.875 188.492 103.571C188.138 103.266 187.69 103.114 187.147 103.114C186.589 103.114 186.151 103.236 185.836 103.479C185.521 103.723 185.363 104.041 185.363 104.434C185.363 104.805 185.509 105.084 185.803 105.272C186.096 105.461 186.625 105.64 187.388 105.812C188.157 105.984 188.78 106.188 189.256 106.426C189.732 106.664 190.083 106.952 190.31 107.29C190.542 107.622 190.659 108.028 190.659 108.51C190.659 109.312 190.338 109.957 189.696 110.444C189.054 110.925 188.221 111.166 187.197 111.166C186.478 111.166 185.841 111.039 185.288 110.784C184.735 110.53 184.3 110.175 183.985 109.722C183.675 109.262 183.52 108.767 183.52 108.236H185.056C185.083 108.75 185.288 109.16 185.67 109.464C186.057 109.763 186.566 109.913 187.197 109.913C187.778 109.913 188.243 109.796 188.592 109.564C188.946 109.326 189.123 109.011 189.123 108.618ZM202.421 111C202.332 110.823 202.26 110.507 202.205 110.054C201.491 110.795 200.639 111.166 199.648 111.166C198.763 111.166 198.035 110.917 197.465 110.419C196.901 109.915 196.619 109.279 196.619 108.51C196.619 107.575 196.973 106.85 197.681 106.335C198.395 105.815 199.397 105.555 200.686 105.555H202.18V104.849C202.18 104.312 202.02 103.886 201.699 103.571C201.378 103.25 200.905 103.089 200.279 103.089C199.731 103.089 199.272 103.228 198.901 103.504C198.531 103.781 198.345 104.116 198.345 104.509H196.801C196.801 104.061 196.959 103.629 197.274 103.214C197.595 102.793 198.027 102.461 198.569 102.218C199.117 101.974 199.718 101.853 200.371 101.853C201.405 101.853 202.216 102.113 202.803 102.633C203.389 103.147 203.694 103.859 203.716 104.766V108.9C203.716 109.724 203.821 110.38 204.031 110.867V111H202.421ZM199.873 109.83C200.354 109.83 200.811 109.705 201.242 109.456C201.674 109.207 201.986 108.883 202.18 108.485V106.642H200.977C199.095 106.642 198.154 107.193 198.154 108.294C198.154 108.775 198.315 109.152 198.636 109.423C198.957 109.694 199.369 109.83 199.873 109.83ZM207.576 102.019L207.625 103.147C208.312 102.284 209.208 101.853 210.315 101.853C212.213 101.853 213.17 102.923 213.187 105.065V111H211.651V105.057C211.646 104.409 211.496 103.931 211.203 103.621C210.915 103.311 210.464 103.156 209.85 103.156C209.352 103.156 208.915 103.289 208.539 103.554C208.162 103.82 207.869 104.168 207.659 104.6V111H206.123V102.019H207.576ZM215.129 106.435C215.129 105.057 215.456 103.95 216.109 103.114C216.762 102.273 217.617 101.853 218.674 101.853C219.725 101.853 220.558 102.212 221.172 102.932V98.25H222.708V111H221.297L221.222 110.037C220.608 110.79 219.753 111.166 218.657 111.166C217.617 111.166 216.767 110.74 216.109 109.888C215.456 109.035 215.129 107.923 215.129 106.551V106.435ZM216.665 106.609C216.665 107.627 216.875 108.424 217.296 109C217.716 109.575 218.298 109.863 219.039 109.863C220.013 109.863 220.724 109.426 221.172 108.551V104.426C220.713 103.579 220.007 103.156 219.056 103.156C218.303 103.156 217.716 103.446 217.296 104.027C216.875 104.608 216.665 105.469 216.665 106.609ZM231.399 99.8438V102.019H233.076V103.206H231.399V108.775C231.399 109.135 231.474 109.406 231.623 109.589C231.772 109.766 232.027 109.854 232.387 109.854C232.564 109.854 232.807 109.821 233.117 109.755V111C232.713 111.111 232.32 111.166 231.938 111.166C231.252 111.166 230.735 110.958 230.386 110.543C230.038 110.128 229.863 109.539 229.863 108.775V103.206H228.228V102.019H229.863V99.8438H231.399ZM234.304 106.426C234.304 105.546 234.476 104.755 234.819 104.052C235.167 103.349 235.649 102.807 236.263 102.425C236.883 102.043 237.589 101.853 238.38 101.853C239.603 101.853 240.591 102.276 241.343 103.123C242.101 103.969 242.48 105.095 242.48 106.501V106.609C242.48 107.483 242.312 108.269 241.974 108.966C241.642 109.658 241.163 110.198 240.538 110.585C239.918 110.972 239.204 111.166 238.396 111.166C237.179 111.166 236.191 110.743 235.433 109.896C234.681 109.049 234.304 107.929 234.304 106.534V106.426ZM235.848 106.609C235.848 107.605 236.078 108.405 236.537 109.008C237.002 109.611 237.622 109.913 238.396 109.913C239.177 109.913 239.797 109.608 240.256 109C240.715 108.385 240.945 107.528 240.945 106.426C240.945 105.441 240.71 104.644 240.239 104.036C239.774 103.421 239.155 103.114 238.38 103.114C237.622 103.114 237.01 103.416 236.545 104.019C236.081 104.622 235.848 105.486 235.848 106.609ZM244 106.426C244 105.546 244.171 104.755 244.514 104.052C244.863 103.349 245.344 102.807 245.958 102.425C246.578 102.043 247.284 101.853 248.075 101.853C249.298 101.853 250.286 102.276 251.039 103.123C251.797 103.969 252.176 105.095 252.176 106.501V106.609C252.176 107.483 252.007 108.269 251.669 108.966C251.337 109.658 250.859 110.198 250.233 110.585C249.614 110.972 248.9 111.166 248.092 111.166C246.874 111.166 245.887 110.743 245.128 109.896C244.376 109.049 244 107.929 244 106.534V106.426ZM245.543 106.609C245.543 107.605 245.773 108.405 246.232 109.008C246.697 109.611 247.317 109.913 248.092 109.913C248.872 109.913 249.492 109.608 249.951 109C250.41 108.385 250.64 107.528 250.64 106.426C250.64 105.441 250.405 104.644 249.935 104.036C249.47 103.421 248.85 103.114 248.075 103.114C247.317 103.114 246.706 103.416 246.241 104.019C245.776 104.622 245.543 105.486 245.543 106.609ZM255.77 111H254.234V98.25H255.77V111ZM263.465 108.618C263.465 108.203 263.307 107.882 262.992 107.655C262.682 107.422 262.137 107.223 261.356 107.057C260.582 106.891 259.965 106.692 259.505 106.459C259.052 106.227 258.714 105.95 258.493 105.629C258.277 105.308 258.169 104.927 258.169 104.484C258.169 103.748 258.479 103.125 259.099 102.616C259.724 102.107 260.521 101.853 261.489 101.853C262.507 101.853 263.332 102.115 263.963 102.641C264.599 103.167 264.917 103.839 264.917 104.658H263.374C263.374 104.238 263.194 103.875 262.834 103.571C262.48 103.266 262.032 103.114 261.489 103.114C260.93 103.114 260.493 103.236 260.178 103.479C259.862 103.723 259.705 104.041 259.705 104.434C259.705 104.805 259.851 105.084 260.145 105.272C260.438 105.461 260.966 105.64 261.73 105.812C262.499 105.984 263.122 106.188 263.598 106.426C264.074 106.664 264.425 106.952 264.652 107.29C264.884 107.622 265 108.028 265 108.51C265 109.312 264.68 109.957 264.038 110.444C263.396 110.925 262.563 111.166 261.539 111.166C260.82 111.166 260.183 111.039 259.63 110.784C259.076 110.53 258.642 110.175 258.327 109.722C258.017 109.262 257.862 108.767 257.862 108.236H259.397C259.425 108.75 259.63 109.16 260.012 109.464C260.399 109.763 260.908 109.913 261.539 109.913C262.12 109.913 262.585 109.796 262.934 109.564C263.288 109.326 263.465 109.011 263.465 108.618Z" fill="#949494"/>
</svg>
