<svg width="408" height="150" viewBox="0 0 408 150" fill="none" xmlns="http://www.w3.org/2000/svg">
<path d="M0 16C0 7.16345 7.16344 0 16 0H392C400.837 0 408 7.16344 408 16V134C408 142.837 400.837 150 392 150H16C7.16344 150 0 142.837 0 134V16Z" fill="#3E3E3E"/>
<path d="M62 62H82" stroke="black" stroke-width="2" stroke-linecap="round" stroke-linejoin="round"/>
<path d="M62 72H82" stroke="black" stroke-width="2" stroke-linecap="round" stroke-linejoin="round"/>
<path d="M62 82H72" stroke="black" stroke-width="2" stroke-linecap="round" stroke-linejoin="round"/>
<path d="M80.9645 99.5H47C46.337 99.5 45.7011 99.2366 45.2322 98.7678C44.7634 98.2989 44.5 97.663 44.5 97V47C44.5 46.337 44.7634 45.7011 45.2322 45.2322C45.7011 44.7634 46.337 44.5 47 44.5H97C97.663 44.5 98.2989 44.7634 98.7678 45.2322C99.2366 45.7011 99.5 46.337 99.5 47V80.9645C99.5 81.2928 99.4353 81.6179 99.3097 81.9212C99.1841 82.2245 98.9999 82.5001 98.7678 82.7322L82.7322 98.7678C82.5001 98.9999 82.2245 99.1841 81.9212 99.3097C81.6179 99.4353 81.2928 99.5 80.9645 99.5Z" stroke="black" stroke-width="2" stroke-linecap="round" stroke-linejoin="round"/>
<path d="M99.2738 81.9976H82V99.2726" stroke="black" stroke-width="2" stroke-linecap="round" stroke-linejoin="round"/>
<path d="M148.054 52.5986V59H145.898V42.6484H151.929C153.718 42.6484 155.118 43.1051 156.129 44.0186C157.147 44.932 157.656 46.1411 157.656 47.646C157.656 49.2332 157.158 50.4574 156.163 51.3184C155.174 52.1719 153.756 52.5986 151.906 52.5986H148.054ZM148.054 50.8354H151.929C153.082 50.8354 153.965 50.5659 154.579 50.0269C155.193 49.4803 155.5 48.6942 155.5 47.6685C155.5 46.6951 155.193 45.9165 154.579 45.3325C153.965 44.7485 153.123 44.4453 152.052 44.4229H148.054V50.8354ZM159.375 52.812C159.375 51.6216 159.607 50.5509 160.071 49.6001C160.542 48.6493 161.194 47.9155 162.025 47.3989C162.863 46.8823 163.818 46.624 164.889 46.624C166.543 46.624 167.88 47.1968 168.898 48.3423C169.924 49.4878 170.437 51.0114 170.437 52.9131V53.0591C170.437 54.242 170.208 55.3052 169.751 56.2485C169.302 57.1844 168.655 57.9144 167.809 58.4385C166.97 58.9626 166.004 59.2246 164.911 59.2246C163.264 59.2246 161.928 58.6519 160.902 57.5063C159.884 56.3608 159.375 54.8447 159.375 52.958V52.812ZM161.463 53.0591C161.463 54.4067 161.774 55.4886 162.396 56.3047C163.024 57.1208 163.863 57.5288 164.911 57.5288C165.967 57.5288 166.805 57.117 167.427 56.2935C168.048 55.4624 168.359 54.3019 168.359 52.812C168.359 51.4793 168.041 50.4012 167.404 49.5776C166.775 48.7466 165.937 48.3311 164.889 48.3311C163.863 48.3311 163.036 48.7391 162.407 49.5552C161.778 50.3713 161.463 51.5392 161.463 53.0591ZM180.117 55.7769C180.117 55.2153 179.904 54.7811 179.477 54.4741C179.058 54.1597 178.32 53.8901 177.265 53.6655C176.216 53.4409 175.382 53.1714 174.76 52.8569C174.146 52.5425 173.69 52.1681 173.39 51.7339C173.098 51.2996 172.952 50.783 172.952 50.1841C172.952 49.1883 173.371 48.346 174.21 47.6572C175.056 46.9684 176.134 46.624 177.444 46.624C178.822 46.624 179.938 46.9797 180.791 47.6909C181.652 48.4022 182.083 49.3118 182.083 50.4199H179.994C179.994 49.8509 179.75 49.3605 179.264 48.9487C178.785 48.5369 178.178 48.3311 177.444 48.3311C176.688 48.3311 176.097 48.4958 175.67 48.8252C175.243 49.1546 175.03 49.5851 175.03 50.1167C175.03 50.6183 175.228 50.9964 175.625 51.251C176.022 51.5055 176.737 51.7489 177.77 51.981C178.811 52.2131 179.653 52.4901 180.297 52.812C180.941 53.134 181.416 53.5233 181.723 53.98C182.038 54.4292 182.195 54.9795 182.195 55.6309C182.195 56.7165 181.761 57.5887 180.892 58.2476C180.024 58.8989 178.897 59.2246 177.512 59.2246C176.538 59.2246 175.677 59.0524 174.929 58.708C174.18 58.3636 173.592 57.8844 173.166 57.2705C172.746 56.6491 172.537 55.979 172.537 55.2603H174.614C174.652 55.9565 174.929 56.5106 175.445 56.9224C175.969 57.3267 176.658 57.5288 177.512 57.5288C178.298 57.5288 178.927 57.3716 179.398 57.0571C179.878 56.7352 180.117 56.3084 180.117 55.7769ZM187.72 43.9062V46.8486H189.989V48.4546H187.72V55.9902C187.72 56.4769 187.821 56.8438 188.023 57.0908C188.226 57.3304 188.57 57.4502 189.057 57.4502C189.296 57.4502 189.626 57.4053 190.045 57.3154V59C189.498 59.1497 188.967 59.2246 188.45 59.2246C187.522 59.2246 186.822 58.9438 186.35 58.3823C185.878 57.8208 185.643 57.0234 185.643 55.9902V48.4546H183.43V46.8486H185.643V43.9062H187.72ZM199.501 55.7769C199.501 55.2153 199.288 54.7811 198.861 54.4741C198.442 54.1597 197.704 53.8901 196.648 53.6655C195.6 53.4409 194.765 53.1714 194.144 52.8569C193.53 52.5425 193.073 52.1681 192.774 51.7339C192.482 51.2996 192.336 50.783 192.336 50.1841C192.336 49.1883 192.755 48.346 193.594 47.6572C194.44 46.9684 195.518 46.624 196.828 46.624C198.206 46.624 199.321 46.9797 200.175 47.6909C201.036 48.4022 201.466 49.3118 201.466 50.4199H199.377C199.377 49.8509 199.134 49.3605 198.647 48.9487C198.168 48.5369 197.562 48.3311 196.828 48.3311C196.072 48.3311 195.48 48.4958 195.054 48.8252C194.627 49.1546 194.414 49.5851 194.414 50.1167C194.414 50.6183 194.612 50.9964 195.009 51.251C195.406 51.5055 196.121 51.7489 197.154 51.981C198.194 52.2131 199.037 52.4901 199.681 52.812C200.325 53.134 200.8 53.5233 201.107 53.98C201.421 54.4292 201.579 54.9795 201.579 55.6309C201.579 56.7165 201.144 57.5887 200.276 58.2476C199.407 58.8989 198.281 59.2246 196.896 59.2246C195.922 59.2246 195.061 59.0524 194.312 58.708C193.564 58.3636 192.976 57.8844 192.549 57.2705C192.13 56.6491 191.92 55.979 191.92 55.2603H193.998C194.035 55.9565 194.312 56.5106 194.829 56.9224C195.353 57.3267 196.042 57.5288 196.896 57.5288C197.682 57.5288 198.311 57.3716 198.782 57.0571C199.261 56.7352 199.501 56.3084 199.501 55.7769Z" fill="#FFFEF8"/>
<path d="M148.964 81.6128C147.597 81.2199 146.601 80.7384 145.976 80.1685C145.356 79.5929 145.046 78.8846 145.046 78.0435C145.046 77.0916 145.425 76.3058 146.183 75.686C146.947 75.0607 147.937 74.748 149.155 74.748C149.985 74.748 150.724 74.9085 151.371 75.2295C152.024 75.5505 152.528 75.9932 152.882 76.5576C153.242 77.1221 153.421 77.7391 153.421 78.4087H151.819C151.819 77.6782 151.587 77.1055 151.122 76.6904C150.657 76.2699 150.001 76.0596 149.155 76.0596C148.369 76.0596 147.755 76.2339 147.312 76.5825C146.875 76.9256 146.656 77.4043 146.656 78.0186C146.656 78.5111 146.864 78.9289 147.279 79.272C147.699 79.6095 148.41 79.9194 149.412 80.2017C150.419 80.4839 151.205 80.7965 151.77 81.1396C152.34 81.4772 152.76 81.8729 153.031 82.3267C153.308 82.7804 153.446 83.3145 153.446 83.9287C153.446 84.9082 153.064 85.694 152.301 86.2861C151.537 86.8727 150.516 87.166 149.238 87.166C148.408 87.166 147.633 87.0083 146.914 86.6929C146.194 86.3719 145.638 85.9347 145.245 85.3813C144.858 84.828 144.664 84.1999 144.664 83.4971H146.266C146.266 84.2275 146.535 84.8058 147.071 85.2319C147.614 85.6525 148.336 85.8628 149.238 85.8628C150.079 85.8628 150.724 85.6912 151.172 85.3481C151.62 85.005 151.844 84.5374 151.844 83.9453C151.844 83.3532 151.637 82.8966 151.222 82.5757C150.807 82.2492 150.054 81.9282 148.964 81.6128ZM156.792 79.106C157.472 78.2703 158.358 77.8525 159.448 77.8525C161.346 77.8525 162.303 78.9233 162.32 81.0649V87H160.784V81.0566C160.779 80.4092 160.629 79.9305 160.336 79.6206C160.048 79.3107 159.597 79.1558 158.983 79.1558C158.485 79.1558 158.048 79.2886 157.671 79.5542C157.295 79.8198 157.002 80.1685 156.792 80.6001V87H155.256V74.25H156.792V79.106ZM170.164 87C170.076 86.8229 170.004 86.5075 169.948 86.0537C169.234 86.7952 168.382 87.166 167.392 87.166C166.506 87.166 165.778 86.917 165.208 86.4189C164.644 85.9154 164.362 85.279 164.362 84.5098C164.362 83.5745 164.716 82.8496 165.424 82.335C166.138 81.8148 167.14 81.5547 168.429 81.5547H169.923V80.8491C169.923 80.3123 169.763 79.8862 169.442 79.5708C169.121 79.2498 168.648 79.0894 168.022 79.0894C167.475 79.0894 167.015 79.2277 166.645 79.5044C166.274 79.7811 166.088 80.1159 166.088 80.5088H164.544C164.544 80.0605 164.702 79.6289 165.018 79.2139C165.339 78.7933 165.77 78.4613 166.312 78.2178C166.86 77.9743 167.461 77.8525 168.114 77.8525C169.149 77.8525 169.959 78.1126 170.546 78.6328C171.132 79.1475 171.437 79.8586 171.459 80.7661V84.8999C171.459 85.7244 171.564 86.3802 171.774 86.8672V87H170.164ZM167.616 85.8296C168.097 85.8296 168.554 85.7051 168.985 85.4561C169.417 85.207 169.73 84.8833 169.923 84.4849V82.6421H168.72C166.838 82.6421 165.897 83.1927 165.897 84.2939C165.897 84.7754 166.058 85.1517 166.379 85.4229C166.7 85.694 167.112 85.8296 167.616 85.8296ZM178.208 79.3965C177.975 79.3577 177.723 79.3384 177.452 79.3384C176.445 79.3384 175.762 79.7673 175.402 80.625V87H173.866V78.0186H175.36L175.385 79.0562C175.889 78.2537 176.603 77.8525 177.527 77.8525C177.826 77.8525 178.053 77.8913 178.208 77.9688V79.3965ZM183.188 87.166C181.971 87.166 180.98 86.7676 180.216 85.9707C179.453 85.1683 179.071 84.0975 179.071 82.7583V82.4761C179.071 81.5851 179.24 80.791 179.577 80.0938C179.92 79.391 180.396 78.8431 181.005 78.4502C181.619 78.0518 182.283 77.8525 182.997 77.8525C184.165 77.8525 185.072 78.2371 185.72 79.0063C186.367 79.7756 186.691 80.8768 186.691 82.3101V82.9492H180.606C180.629 83.8346 180.886 84.5513 181.378 85.0991C181.876 85.6414 182.507 85.9126 183.271 85.9126C183.813 85.9126 184.273 85.8019 184.649 85.5806C185.025 85.3592 185.354 85.0659 185.637 84.7007L186.575 85.4312C185.822 86.5877 184.693 87.166 183.188 87.166ZM182.997 79.1143C182.377 79.1143 181.857 79.3411 181.437 79.7949C181.016 80.2432 180.756 80.874 180.656 81.6875H185.155V81.5713C185.111 80.791 184.901 80.1878 184.524 79.7617C184.148 79.3301 183.639 79.1143 182.997 79.1143ZM192.286 82.4263C192.286 81.5464 192.457 80.755 192.8 80.0522C193.149 79.3494 193.63 78.8071 194.245 78.4253C194.864 78.0435 195.57 77.8525 196.361 77.8525C197.584 77.8525 198.572 78.2759 199.325 79.1226C200.083 79.9692 200.462 81.0954 200.462 82.501V82.6089C200.462 83.4832 200.293 84.269 199.956 84.9663C199.624 85.658 199.145 86.1976 198.52 86.585C197.9 86.9723 197.186 87.166 196.378 87.166C195.16 87.166 194.173 86.7427 193.415 85.896C192.662 85.0493 192.286 83.9287 192.286 82.5342V82.4263ZM193.83 82.6089C193.83 83.605 194.059 84.4046 194.519 85.0078C194.983 85.611 195.603 85.9126 196.378 85.9126C197.158 85.9126 197.778 85.6082 198.237 84.9995C198.697 84.3853 198.926 83.5275 198.926 82.4263C198.926 81.4412 198.691 80.6444 198.221 80.0356C197.756 79.4214 197.136 79.1143 196.361 79.1143C195.603 79.1143 194.992 79.4159 194.527 80.019C194.062 80.6222 193.83 81.4855 193.83 82.6089ZM203.84 78.0186L203.89 79.1475C204.576 78.2842 205.473 77.8525 206.58 77.8525C208.478 77.8525 209.435 78.9233 209.452 81.0649V87H207.916V81.0566C207.91 80.4092 207.761 79.9305 207.468 79.6206C207.18 79.3107 206.729 79.1558 206.115 79.1558C205.617 79.1558 205.18 79.2886 204.803 79.5542C204.427 79.8198 204.134 80.1685 203.923 80.6001V87H202.388V78.0186H203.84ZM215.495 87.166C214.277 87.166 213.287 86.7676 212.523 85.9707C211.759 85.1683 211.377 84.0975 211.377 82.7583V82.4761C211.377 81.5851 211.546 80.791 211.884 80.0938C212.227 79.391 212.703 78.8431 213.312 78.4502C213.926 78.0518 214.59 77.8525 215.304 77.8525C216.471 77.8525 217.379 78.2371 218.026 79.0063C218.674 79.7756 218.998 80.8768 218.998 82.3101V82.9492H212.913C212.935 83.8346 213.193 84.5513 213.685 85.0991C214.183 85.6414 214.814 85.9126 215.578 85.9126C216.12 85.9126 216.579 85.8019 216.956 85.5806C217.332 85.3592 217.661 85.0659 217.943 84.7007L218.881 85.4312C218.129 86.5877 217 87.166 215.495 87.166ZM215.304 79.1143C214.684 79.1143 214.164 79.3411 213.743 79.7949C213.323 80.2432 213.062 80.874 212.963 81.6875H217.462V81.5713C217.418 80.791 217.207 80.1878 216.831 79.7617C216.455 79.3301 215.946 79.1143 215.304 79.1143ZM223.978 82.4927H219.927V81.2393H223.978V82.4927ZM227.564 75.8438V78.0186H229.241V79.2056H227.564V84.7754C227.564 85.1351 227.639 85.4062 227.788 85.5889C227.938 85.766 228.192 85.8545 228.552 85.8545C228.729 85.8545 228.972 85.8213 229.282 85.7549V87C228.878 87.1107 228.485 87.166 228.104 87.166C227.417 87.166 226.9 86.9585 226.551 86.5435C226.203 86.1284 226.028 85.5391 226.028 84.7754V79.2056H224.393V78.0186H226.028V75.8438H227.564ZM230.469 82.4263C230.469 81.5464 230.641 80.755 230.984 80.0522C231.333 79.3494 231.814 78.8071 232.428 78.4253C233.048 78.0435 233.754 77.8525 234.545 77.8525C235.768 77.8525 236.756 78.2759 237.508 79.1226C238.266 79.9692 238.646 81.0954 238.646 82.501V82.6089C238.646 83.4832 238.477 84.269 238.139 84.9663C237.807 85.658 237.328 86.1976 236.703 86.585C236.083 86.9723 235.369 87.166 234.562 87.166C233.344 87.166 232.356 86.7427 231.598 85.896C230.846 85.0493 230.469 83.9287 230.469 82.5342V82.4263ZM232.013 82.6089C232.013 83.605 232.243 84.4046 232.702 85.0078C233.167 85.611 233.787 85.9126 234.562 85.9126C235.342 85.9126 235.962 85.6082 236.421 84.9995C236.88 84.3853 237.11 83.5275 237.11 82.4263C237.11 81.4412 236.875 80.6444 236.404 80.0356C235.939 79.4214 235.32 79.1143 234.545 79.1143C233.787 79.1143 233.175 79.4159 232.71 80.019C232.246 80.6222 232.013 81.4855 232.013 82.6089ZM243.767 82.4927H239.716V81.2393H243.767V82.4927ZM246.714 78.0186L246.755 79.0146C247.414 78.2399 248.302 77.8525 249.42 77.8525C250.676 77.8525 251.531 78.334 251.985 79.2969C252.284 78.8652 252.671 78.5166 253.147 78.251C253.628 77.9854 254.196 77.8525 254.849 77.8525C256.819 77.8525 257.82 78.8957 257.854 80.9819V87H256.318V81.0732C256.318 80.4313 256.171 79.9526 255.878 79.6372C255.585 79.3162 255.092 79.1558 254.4 79.1558C253.83 79.1558 253.357 79.3273 252.981 79.6704C252.605 80.008 252.386 80.4645 252.325 81.04V87H250.781V81.1147C250.781 79.8088 250.142 79.1558 248.864 79.1558C247.857 79.1558 247.168 79.5846 246.797 80.4424V87H245.261V78.0186H246.714ZM265.723 87C265.634 86.8229 265.562 86.5075 265.507 86.0537C264.793 86.7952 263.941 87.166 262.95 87.166C262.065 87.166 261.337 86.917 260.767 86.4189C260.203 85.9154 259.92 85.279 259.92 84.5098C259.92 83.5745 260.275 82.8496 260.983 82.335C261.697 81.8148 262.698 81.5547 263.988 81.5547H265.482V80.8491C265.482 80.3123 265.321 79.8862 265 79.5708C264.68 79.2498 264.206 79.0894 263.581 79.0894C263.033 79.0894 262.574 79.2277 262.203 79.5044C261.832 79.7811 261.647 80.1159 261.647 80.5088H260.103C260.103 80.0605 260.261 79.6289 260.576 79.2139C260.897 78.7933 261.329 78.4613 261.871 78.2178C262.419 77.9743 263.019 77.8525 263.672 77.8525C264.707 77.8525 265.518 78.1126 266.104 78.6328C266.691 79.1475 266.995 79.8586 267.018 80.7661V84.8999C267.018 85.7244 267.123 86.3802 267.333 86.8672V87H265.723ZM263.174 85.8296C263.656 85.8296 264.112 85.7051 264.544 85.4561C264.976 85.207 265.288 84.8833 265.482 84.4849V82.6421H264.278C262.397 82.6421 261.456 83.1927 261.456 84.2939C261.456 84.7754 261.617 85.1517 261.938 85.4229C262.258 85.694 262.671 85.8296 263.174 85.8296ZM270.877 78.0186L270.927 79.1475C271.613 78.2842 272.51 77.8525 273.617 77.8525C275.515 77.8525 276.472 78.9233 276.489 81.0649V87H274.953V81.0566C274.948 80.4092 274.798 79.9305 274.505 79.6206C274.217 79.3107 273.766 79.1558 273.152 79.1558C272.654 79.1558 272.217 79.2886 271.84 79.5542C271.464 79.8198 271.171 80.1685 270.96 80.6001V87H269.425V78.0186H270.877ZM281.743 84.7505L283.835 78.0186H285.479L281.868 88.3862C281.309 89.8804 280.421 90.6274 279.203 90.6274L278.913 90.6025L278.34 90.4946V89.2495L278.755 89.2827C279.275 89.2827 279.679 89.1776 279.967 88.9673C280.26 88.757 280.501 88.3724 280.689 87.8135L281.029 86.9004L277.825 78.0186H279.502L281.743 84.7505ZM298.66 82.6089C298.66 83.9757 298.347 85.077 297.722 85.9126C297.097 86.7482 296.25 87.166 295.182 87.166C294.092 87.166 293.234 86.8201 292.609 86.1284V90.4531H291.073V78.0186H292.476L292.551 79.0146C293.176 78.2399 294.045 77.8525 295.157 77.8525C296.236 77.8525 297.089 78.2593 297.714 79.0728C298.345 79.8862 298.66 81.0179 298.66 82.4678V82.6089ZM297.125 82.4346C297.125 81.4219 296.909 80.6222 296.477 80.0356C296.045 79.4491 295.453 79.1558 294.701 79.1558C293.771 79.1558 293.074 79.568 292.609 80.3926V84.6841C293.068 85.5031 293.771 85.9126 294.717 85.9126C295.453 85.9126 296.037 85.6221 296.469 85.041C296.906 84.4544 297.125 83.5856 297.125 82.4346ZM300.212 82.4263C300.212 81.5464 300.384 80.755 300.727 80.0522C301.076 79.3494 301.557 78.8071 302.171 78.4253C302.791 78.0435 303.497 77.8525 304.288 77.8525C305.511 77.8525 306.499 78.2759 307.251 79.1226C308.01 79.9692 308.389 81.0954 308.389 82.501V82.6089C308.389 83.4832 308.22 84.269 307.882 84.9663C307.55 85.658 307.072 86.1976 306.446 86.585C305.826 86.9723 305.113 87.166 304.305 87.166C303.087 87.166 302.099 86.7427 301.341 85.896C300.589 85.0493 300.212 83.9287 300.212 82.5342V82.4263ZM301.756 82.6089C301.756 83.605 301.986 84.4046 302.445 85.0078C302.91 85.611 303.53 85.9126 304.305 85.9126C305.085 85.9126 305.705 85.6082 306.164 84.9995C306.623 84.3853 306.853 83.5275 306.853 82.4263C306.853 81.4412 306.618 80.6444 306.147 80.0356C305.683 79.4214 305.063 79.1143 304.288 79.1143C303.53 79.1143 302.918 79.4159 302.454 80.019C301.989 80.6222 301.756 81.4855 301.756 82.6089ZM315.544 84.6177C315.544 84.2026 315.386 83.8817 315.071 83.6548C314.761 83.4224 314.216 83.2231 313.436 83.0571C312.661 82.8911 312.044 82.6919 311.584 82.4595C311.131 82.2271 310.793 81.9504 310.572 81.6294C310.356 81.3084 310.248 80.9266 310.248 80.4839C310.248 79.7479 310.558 79.1253 311.178 78.6162C311.803 78.1071 312.6 77.8525 313.568 77.8525C314.587 77.8525 315.411 78.1154 316.042 78.6411C316.678 79.1668 316.997 79.8392 316.997 80.6582H315.453C315.453 80.2376 315.273 79.8752 314.913 79.5708C314.559 79.2664 314.111 79.1143 313.568 79.1143C313.009 79.1143 312.572 79.236 312.257 79.4795C311.941 79.723 311.784 80.0412 311.784 80.4341C311.784 80.8049 311.93 81.0843 312.224 81.2725C312.517 81.4606 313.045 81.6405 313.809 81.812C314.578 81.9836 315.201 82.1883 315.677 82.4263C316.153 82.6642 316.504 82.952 316.731 83.2896C316.963 83.6216 317.08 84.0283 317.08 84.5098C317.08 85.3122 316.759 85.9569 316.117 86.4438C315.475 86.9253 314.642 87.166 313.618 87.166C312.899 87.166 312.262 87.0387 311.709 86.7842C311.156 86.5296 310.721 86.1755 310.406 85.7217C310.096 85.2624 309.941 84.7671 309.941 84.2358H311.477C311.504 84.7505 311.709 85.16 312.091 85.4644C312.478 85.7632 312.987 85.9126 313.618 85.9126C314.199 85.9126 314.664 85.7964 315.013 85.564C315.367 85.326 315.544 85.0106 315.544 84.6177ZM321.164 75.8438V78.0186H322.84V79.2056H321.164V84.7754C321.164 85.1351 321.238 85.4062 321.388 85.5889C321.537 85.766 321.792 85.8545 322.151 85.8545C322.328 85.8545 322.572 85.8213 322.882 85.7549V87C322.478 87.1107 322.085 87.166 321.703 87.166C321.017 87.166 320.5 86.9585 320.151 86.5435C319.802 86.1284 319.628 85.5391 319.628 84.7754V79.2056H317.993V78.0186H319.628V75.8438H321.164ZM329.871 84.6177C329.871 84.2026 329.713 83.8817 329.398 83.6548C329.088 83.4224 328.543 83.2231 327.763 83.0571C326.988 82.8911 326.371 82.6919 325.912 82.4595C325.458 82.2271 325.12 81.9504 324.899 81.6294C324.683 81.3084 324.575 80.9266 324.575 80.4839C324.575 79.7479 324.885 79.1253 325.505 78.6162C326.13 78.1071 326.927 77.8525 327.896 77.8525C328.914 77.8525 329.738 78.1154 330.369 78.6411C331.006 79.1668 331.324 79.8392 331.324 80.6582H329.78C329.78 80.2376 329.6 79.8752 329.24 79.5708C328.886 79.2664 328.438 79.1143 327.896 79.1143C327.337 79.1143 326.899 79.236 326.584 79.4795C326.269 79.723 326.111 80.0412 326.111 80.4341C326.111 80.8049 326.257 81.0843 326.551 81.2725C326.844 81.4606 327.373 81.6405 328.136 81.812C328.905 81.9836 329.528 82.1883 330.004 82.4263C330.48 82.6642 330.831 82.952 331.058 83.2896C331.291 83.6216 331.407 84.0283 331.407 84.5098C331.407 85.3122 331.086 85.9569 330.444 86.4438C329.802 86.9253 328.969 87.166 327.945 87.166C327.226 87.166 326.59 87.0387 326.036 86.7842C325.483 86.5296 325.048 86.1755 324.733 85.7217C324.423 85.2624 324.268 84.7671 324.268 84.2358H325.804C325.831 84.7505 326.036 85.16 326.418 85.4644C326.805 85.7632 327.314 85.9126 327.945 85.9126C328.526 85.9126 328.991 85.7964 329.34 85.564C329.694 85.326 329.871 85.0106 329.871 84.6177ZM339.292 87H337.757V78.0186H339.292V87ZM337.632 75.6362C337.632 75.3872 337.707 75.1769 337.856 75.0054C338.011 74.8338 338.238 74.748 338.537 74.748C338.836 74.748 339.063 74.8338 339.218 75.0054C339.373 75.1769 339.45 75.3872 339.45 75.6362C339.45 75.8853 339.373 76.0928 339.218 76.2588C339.063 76.4248 338.836 76.5078 338.537 76.5078C338.238 76.5078 338.011 76.4248 337.856 76.2588C337.707 76.0928 337.632 75.8853 337.632 75.6362ZM343.21 78.0186L343.26 79.1475C343.946 78.2842 344.843 77.8525 345.95 77.8525C347.848 77.8525 348.805 78.9233 348.822 81.0649V87H347.286V81.0566C347.281 80.4092 347.131 79.9305 346.838 79.6206C346.55 79.3107 346.099 79.1558 345.485 79.1558C344.987 79.1558 344.55 79.2886 344.173 79.5542C343.797 79.8198 343.504 80.1685 343.293 80.6001V87H341.758V78.0186H343.21ZM147.246 99.8438V102.019H148.922V103.206H147.246V108.775C147.246 109.135 147.32 109.406 147.47 109.589C147.619 109.766 147.874 109.854 148.233 109.854C148.41 109.854 148.654 109.821 148.964 109.755V111C148.56 111.111 148.167 111.166 147.785 111.166C147.099 111.166 146.582 110.958 146.233 110.543C145.884 110.128 145.71 109.539 145.71 108.775V103.206H144.075V102.019H145.71V99.8438H147.246ZM152.259 103.106C152.94 102.27 153.825 101.853 154.916 101.853C156.814 101.853 157.771 102.923 157.788 105.065V111H156.252V105.057C156.246 104.409 156.097 103.931 155.804 103.621C155.516 103.311 155.065 103.156 154.451 103.156C153.953 103.156 153.515 103.289 153.139 103.554C152.763 103.82 152.47 104.168 152.259 104.6V111H150.724V98.25H152.259V103.106ZM163.814 111.166C162.597 111.166 161.606 110.768 160.842 109.971C160.079 109.168 159.697 108.097 159.697 106.758V106.476C159.697 105.585 159.866 104.791 160.203 104.094C160.546 103.391 161.022 102.843 161.631 102.45C162.245 102.052 162.909 101.853 163.623 101.853C164.791 101.853 165.698 102.237 166.346 103.006C166.993 103.776 167.317 104.877 167.317 106.31V106.949H161.232C161.255 107.835 161.512 108.551 162.004 109.099C162.502 109.641 163.133 109.913 163.897 109.913C164.439 109.913 164.899 109.802 165.275 109.581C165.651 109.359 165.98 109.066 166.263 108.701L167.201 109.431C166.448 110.588 165.319 111.166 163.814 111.166ZM163.623 103.114C163.003 103.114 162.483 103.341 162.062 103.795C161.642 104.243 161.382 104.874 161.282 105.688H165.781V105.571C165.737 104.791 165.527 104.188 165.15 103.762C164.774 103.33 164.265 103.114 163.623 103.114ZM177.66 103.396C177.427 103.358 177.175 103.338 176.904 103.338C175.897 103.338 175.214 103.767 174.854 104.625V111H173.318V102.019H174.812L174.837 103.056C175.341 102.254 176.055 101.853 176.979 101.853C177.278 101.853 177.505 101.891 177.66 101.969V103.396ZM180.748 111H179.212V102.019H180.748V111ZM179.087 99.6362C179.087 99.3872 179.162 99.1769 179.312 99.0054C179.466 98.8338 179.693 98.748 179.992 98.748C180.291 98.748 180.518 98.8338 180.673 99.0054C180.828 99.1769 180.905 99.3872 180.905 99.6362C180.905 99.8853 180.828 100.093 180.673 100.259C180.518 100.425 180.291 100.508 179.992 100.508C179.693 100.508 179.466 100.425 179.312 100.259C179.162 100.093 179.087 99.8853 179.087 99.6362ZM182.848 106.435C182.848 105.035 183.171 103.922 183.819 103.098C184.466 102.268 185.324 101.853 186.392 101.853C187.488 101.853 188.343 102.24 188.957 103.015L189.032 102.019H190.435V110.784C190.435 111.946 190.089 112.862 189.397 113.532C188.711 114.201 187.787 114.536 186.625 114.536C185.977 114.536 185.343 114.398 184.724 114.121C184.104 113.844 183.631 113.465 183.304 112.984L184.101 112.062C184.76 112.876 185.565 113.283 186.517 113.283C187.264 113.283 187.845 113.072 188.26 112.652C188.68 112.231 188.891 111.639 188.891 110.875V110.104C188.276 110.812 187.438 111.166 186.375 111.166C185.324 111.166 184.472 110.743 183.819 109.896C183.171 109.049 182.848 107.896 182.848 106.435ZM184.392 106.609C184.392 107.622 184.599 108.418 185.014 109C185.429 109.575 186.01 109.863 186.757 109.863C187.726 109.863 188.437 109.423 188.891 108.543V104.442C188.42 103.585 187.715 103.156 186.774 103.156C186.027 103.156 185.443 103.446 185.022 104.027C184.602 104.608 184.392 105.469 184.392 106.609ZM194.294 103.106C194.975 102.27 195.861 101.853 196.951 101.853C198.849 101.853 199.806 102.923 199.823 105.065V111H198.287V105.057C198.282 104.409 198.132 103.931 197.839 103.621C197.551 103.311 197.1 103.156 196.486 103.156C195.988 103.156 195.551 103.289 195.174 103.554C194.798 103.82 194.505 104.168 194.294 104.6V111H192.759V98.25H194.294V103.106ZM204.206 99.8438V102.019H205.882V103.206H204.206V108.775C204.206 109.135 204.28 109.406 204.43 109.589C204.579 109.766 204.834 109.854 205.193 109.854C205.37 109.854 205.614 109.821 205.924 109.755V111C205.52 111.111 205.127 111.166 204.745 111.166C204.059 111.166 203.542 110.958 203.193 110.543C202.844 110.128 202.67 109.539 202.67 108.775V103.206H201.035V102.019H202.67V99.8438H204.206ZM215.503 109.913C216.051 109.913 216.529 109.747 216.939 109.415C217.348 109.083 217.575 108.667 217.62 108.169H219.072C219.045 108.684 218.868 109.174 218.541 109.639C218.215 110.104 217.777 110.474 217.229 110.751C216.687 111.028 216.112 111.166 215.503 111.166C214.28 111.166 213.306 110.759 212.581 109.946C211.862 109.127 211.502 108.009 211.502 106.592V106.335C211.502 105.461 211.662 104.683 211.983 104.002C212.304 103.322 212.764 102.793 213.361 102.417C213.965 102.041 214.676 101.853 215.495 101.853C216.502 101.853 217.337 102.154 218.001 102.757C218.671 103.361 219.028 104.144 219.072 105.106H217.62C217.575 104.525 217.354 104.049 216.956 103.679C216.563 103.302 216.076 103.114 215.495 103.114C214.714 103.114 214.108 103.396 213.677 103.961C213.251 104.52 213.038 105.331 213.038 106.393V106.684C213.038 107.718 213.251 108.515 213.677 109.074C214.103 109.633 214.712 109.913 215.503 109.913ZM222.334 103.106C223.015 102.27 223.901 101.853 224.991 101.853C226.889 101.853 227.846 102.923 227.863 105.065V111H226.327V105.057C226.322 104.409 226.172 103.931 225.879 103.621C225.591 103.311 225.14 103.156 224.526 103.156C224.028 103.156 223.591 103.289 223.214 103.554C222.838 103.82 222.545 104.168 222.334 104.6V111H220.799V98.25H222.334V103.106ZM235.707 111C235.618 110.823 235.547 110.507 235.491 110.054C234.777 110.795 233.925 111.166 232.935 111.166C232.049 111.166 231.321 110.917 230.751 110.419C230.187 109.915 229.905 109.279 229.905 108.51C229.905 107.575 230.259 106.85 230.967 106.335C231.681 105.815 232.683 105.555 233.972 105.555H235.466V104.849C235.466 104.312 235.306 103.886 234.985 103.571C234.664 103.25 234.191 103.089 233.565 103.089C233.018 103.089 232.558 103.228 232.188 103.504C231.817 103.781 231.631 104.116 231.631 104.509H230.087C230.087 104.061 230.245 103.629 230.561 103.214C230.882 102.793 231.313 102.461 231.855 102.218C232.403 101.974 233.004 101.853 233.657 101.853C234.692 101.853 235.502 102.113 236.089 102.633C236.675 103.147 236.98 103.859 237.002 104.766V108.9C237.002 109.724 237.107 110.38 237.317 110.867V111H235.707ZM233.159 109.83C233.64 109.83 234.097 109.705 234.528 109.456C234.96 109.207 235.273 108.883 235.466 108.485V106.642H234.263C232.381 106.642 231.44 107.193 231.44 108.294C231.44 108.775 231.601 109.152 231.922 109.423C232.243 109.694 232.655 109.83 233.159 109.83ZM240.862 102.019L240.912 103.147C241.598 102.284 242.494 101.853 243.601 101.853C245.499 101.853 246.457 102.923 246.473 105.065V111H244.938V105.057C244.932 104.409 244.783 103.931 244.489 103.621C244.201 103.311 243.75 103.156 243.136 103.156C242.638 103.156 242.201 103.289 241.825 103.554C241.448 103.82 241.155 104.168 240.945 104.6V111H239.409V102.019H240.862ZM250.242 102.019L250.292 103.147C250.978 102.284 251.874 101.853 252.981 101.853C254.879 101.853 255.836 102.923 255.853 105.065V111H254.317V105.057C254.312 104.409 254.162 103.931 253.869 103.621C253.581 103.311 253.13 103.156 252.516 103.156C252.018 103.156 251.581 103.289 251.205 103.554C250.828 103.82 250.535 104.168 250.325 104.6V111H248.789V102.019H250.242ZM261.896 111.166C260.679 111.166 259.688 110.768 258.924 109.971C258.161 109.168 257.779 108.097 257.779 106.758V106.476C257.779 105.585 257.948 104.791 258.285 104.094C258.628 103.391 259.104 102.843 259.713 102.45C260.327 102.052 260.991 101.853 261.705 101.853C262.873 101.853 263.78 102.237 264.428 103.006C265.075 103.776 265.399 104.877 265.399 106.31V106.949H259.314C259.337 107.835 259.594 108.551 260.086 109.099C260.584 109.641 261.215 109.913 261.979 109.913C262.521 109.913 262.981 109.802 263.357 109.581C263.733 109.359 264.062 109.066 264.345 108.701L265.283 109.431C264.53 110.588 263.401 111.166 261.896 111.166ZM261.705 103.114C261.085 103.114 260.565 103.341 260.145 103.795C259.724 104.243 259.464 104.874 259.364 105.688H263.863V105.571C263.819 104.791 263.609 104.188 263.232 103.762C262.856 103.33 262.347 103.114 261.705 103.114ZM268.852 111H267.316V98.25H268.852V111ZM276.547 108.618C276.547 108.203 276.389 107.882 276.074 107.655C275.764 107.422 275.219 107.223 274.438 107.057C273.664 106.891 273.047 106.692 272.587 106.459C272.134 106.227 271.796 105.95 271.575 105.629C271.359 105.308 271.251 104.927 271.251 104.484C271.251 103.748 271.561 103.125 272.181 102.616C272.806 102.107 273.603 101.853 274.571 101.853C275.59 101.853 276.414 102.115 277.045 102.641C277.681 103.167 278 103.839 278 104.658H276.456C276.456 104.238 276.276 103.875 275.916 103.571C275.562 103.266 275.114 103.114 274.571 103.114C274.012 103.114 273.575 103.236 273.26 103.479C272.944 103.723 272.787 104.041 272.787 104.434C272.787 104.805 272.933 105.084 273.227 105.272C273.52 105.461 274.048 105.64 274.812 105.812C275.581 105.984 276.204 106.188 276.68 106.426C277.156 106.664 277.507 106.952 277.734 107.29C277.966 107.622 278.083 108.028 278.083 108.51C278.083 109.312 277.762 109.957 277.12 110.444C276.478 110.925 275.645 111.166 274.621 111.166C273.902 111.166 273.265 111.039 272.712 110.784C272.159 110.53 271.724 110.175 271.409 109.722C271.099 109.262 270.944 108.767 270.944 108.236H272.479C272.507 108.75 272.712 109.16 273.094 109.464C273.481 109.763 273.99 109.913 274.621 109.913C275.202 109.913 275.667 109.796 276.016 109.564C276.37 109.326 276.547 109.011 276.547 108.618Z" fill="#949494"/>
</svg>
