<svg width="286" height="123" viewBox="0 0 286 123" fill="none" xmlns="http://www.w3.org/2000/svg">
<g clip-path="url(#clip0_1_1581)">
<path d="M120.999 30H164.999" stroke="#1CFFE4" stroke-linecap="round" stroke-linejoin="round"/>
<path d="M120.999 38H164.999" stroke="#1CFFE4" stroke-linecap="round" stroke-linejoin="round"/>
<path d="M120.999 46H164.999" stroke="#1CFFE4" stroke-linecap="round" stroke-linejoin="round"/>
<path d="M162.999 22H122.999C121.894 22 120.999 22.8954 120.999 24V52C120.999 53.1046 121.894 54 122.999 54H162.999C164.103 54 164.999 53.1046 164.999 52V24C164.999 22.8954 164.103 22 162.999 22Z" stroke="#1CFFE4" stroke-linecap="round" stroke-linejoin="round"/>
<path d="M133.999 22V13C133.999 10.6131 134.947 8.32387 136.635 6.63604C138.322 4.94821 140.612 4 142.999 4C145.385 4 147.675 4.94821 149.362 6.63604C151.05 8.32387 151.999 10.6131 151.999 13V22" stroke="#1CFFE4" stroke-linecap="round" stroke-linejoin="round"/>
</g>
<path d="M98.9561 110.613C97.5892 110.22 96.5931 109.738 95.9678 109.168C95.348 108.593 95.0381 107.885 95.0381 107.043C95.0381 106.092 95.4172 105.306 96.1753 104.686C96.939 104.061 97.9295 103.748 99.147 103.748C99.9771 103.748 100.716 103.909 101.363 104.229C102.016 104.55 102.52 104.993 102.874 105.558C103.234 106.122 103.414 106.739 103.414 107.409H101.812C101.812 106.678 101.579 106.105 101.114 105.69C100.649 105.27 99.9937 105.06 99.147 105.06C98.3612 105.06 97.7469 105.234 97.3042 105.583C96.867 105.926 96.6484 106.404 96.6484 107.019C96.6484 107.511 96.856 107.929 97.271 108.272C97.6916 108.61 98.4027 108.919 99.4043 109.202C100.411 109.484 101.197 109.797 101.762 110.14C102.332 110.477 102.752 110.873 103.023 111.327C103.3 111.78 103.438 112.314 103.438 112.929C103.438 113.908 103.057 114.694 102.293 115.286C101.529 115.873 100.508 116.166 99.23 116.166C98.3999 116.166 97.6252 116.008 96.9058 115.693C96.1864 115.372 95.6302 114.935 95.2373 114.381C94.8499 113.828 94.6562 113.2 94.6562 112.497H96.2583C96.2583 113.228 96.5267 113.806 97.0635 114.232C97.6058 114.653 98.328 114.863 99.23 114.863C100.071 114.863 100.716 114.691 101.164 114.348C101.612 114.005 101.836 113.537 101.836 112.945C101.836 112.353 101.629 111.897 101.214 111.576C100.799 111.249 100.046 110.928 98.9561 110.613ZM109.05 110.613C107.683 110.22 106.687 109.738 106.062 109.168C105.442 108.593 105.132 107.885 105.132 107.043C105.132 106.092 105.511 105.306 106.269 104.686C107.033 104.061 108.023 103.748 109.241 103.748C110.071 103.748 110.81 103.909 111.457 104.229C112.11 104.55 112.614 104.993 112.968 105.558C113.327 106.122 113.507 106.739 113.507 107.409H111.905C111.905 106.678 111.673 106.105 111.208 105.69C110.743 105.27 110.087 105.06 109.241 105.06C108.455 105.06 107.841 105.234 107.398 105.583C106.961 105.926 106.742 106.404 106.742 107.019C106.742 107.511 106.95 107.929 107.365 108.272C107.785 108.61 108.496 108.919 109.498 109.202C110.505 109.484 111.291 109.797 111.855 110.14C112.425 110.477 112.846 110.873 113.117 111.327C113.394 111.78 113.532 112.314 113.532 112.929C113.532 113.908 113.15 114.694 112.387 115.286C111.623 115.873 110.602 116.166 109.324 116.166C108.494 116.166 107.719 116.008 107 115.693C106.28 115.372 105.724 114.935 105.331 114.381C104.944 113.828 104.75 113.2 104.75 112.497H106.352C106.352 113.228 106.62 113.806 107.157 114.232C107.7 114.653 108.422 114.863 109.324 114.863C110.165 114.863 110.81 114.691 111.258 114.348C111.706 114.005 111.93 113.537 111.93 112.945C111.93 112.353 111.723 111.897 111.308 111.576C110.893 111.249 110.14 110.928 109.05 110.613ZM117.185 114.697H122.912V116H115.583V103.914H117.185V114.697ZM127.685 111.493H123.634V110.239H127.685V111.493ZM138.318 112.165C138.169 113.443 137.696 114.431 136.899 115.128C136.108 115.82 135.053 116.166 133.736 116.166C132.309 116.166 131.163 115.654 130.3 114.63C129.442 113.607 129.013 112.237 129.013 110.521V109.359C129.013 108.236 129.212 107.248 129.611 106.396C130.015 105.544 130.585 104.891 131.321 104.437C132.057 103.978 132.909 103.748 133.877 103.748C135.161 103.748 136.191 104.108 136.965 104.827C137.74 105.541 138.191 106.532 138.318 107.799H136.716C136.578 106.836 136.276 106.139 135.812 105.707C135.352 105.275 134.708 105.06 133.877 105.06C132.859 105.06 132.06 105.436 131.479 106.188C130.903 106.941 130.615 108.012 130.615 109.401V110.571C130.615 111.883 130.889 112.926 131.437 113.701C131.985 114.475 132.751 114.863 133.736 114.863C134.622 114.863 135.3 114.664 135.77 114.265C136.246 113.861 136.561 113.161 136.716 112.165H138.318ZM143.988 116.166C142.77 116.166 141.78 115.768 141.016 114.971C140.252 114.168 139.871 113.097 139.871 111.758V111.476C139.871 110.585 140.039 109.791 140.377 109.094C140.72 108.391 141.196 107.843 141.805 107.45C142.419 107.052 143.083 106.853 143.797 106.853C144.965 106.853 145.872 107.237 146.52 108.006C147.167 108.776 147.491 109.877 147.491 111.31V111.949H141.406C141.428 112.835 141.686 113.551 142.178 114.099C142.676 114.641 143.307 114.913 144.071 114.913C144.613 114.913 145.072 114.802 145.449 114.581C145.825 114.359 146.154 114.066 146.437 113.701L147.375 114.431C146.622 115.588 145.493 116.166 143.988 116.166ZM143.797 108.114C143.177 108.114 142.657 108.341 142.236 108.795C141.816 109.243 141.556 109.874 141.456 110.688H145.955V110.571C145.911 109.791 145.701 109.188 145.324 108.762C144.948 108.33 144.439 108.114 143.797 108.114ZM153.617 108.396C153.384 108.358 153.132 108.338 152.861 108.338C151.854 108.338 151.171 108.767 150.811 109.625V116H149.275V107.019H150.77L150.794 108.056C151.298 107.254 152.012 106.853 152.936 106.853C153.235 106.853 153.462 106.891 153.617 106.969V108.396ZM157.535 104.844V107.019H159.211V108.206H157.535V113.775C157.535 114.135 157.609 114.406 157.759 114.589C157.908 114.766 158.163 114.854 158.522 114.854C158.7 114.854 158.943 114.821 159.253 114.755V116C158.849 116.111 158.456 116.166 158.074 116.166C157.388 116.166 156.871 115.958 156.522 115.543C156.173 115.128 155.999 114.539 155.999 113.775V108.206H154.364V107.019H155.999V104.844H157.535ZM162.681 116H161.146V107.019H162.681V116ZM161.021 104.636C161.021 104.387 161.096 104.177 161.245 104.005C161.4 103.834 161.627 103.748 161.926 103.748C162.225 103.748 162.451 103.834 162.606 104.005C162.761 104.177 162.839 104.387 162.839 104.636C162.839 104.885 162.761 105.093 162.606 105.259C162.451 105.425 162.225 105.508 161.926 105.508C161.627 105.508 161.4 105.425 161.245 105.259C161.096 105.093 161.021 104.885 161.021 104.636ZM165.661 116V108.206H164.242V107.019H165.661V106.255C165.661 105.253 165.946 104.473 166.516 103.914C167.092 103.355 167.902 103.076 168.948 103.076C169.568 103.076 170.351 103.244 171.297 103.582L171.04 104.877C170.348 104.6 169.69 104.462 169.064 104.462C168.406 104.462 167.93 104.611 167.637 104.91C167.349 105.203 167.205 105.646 167.205 106.238V107.019H169.04V108.206H167.205V116H165.661ZM172.061 116H170.517V107.019H172.061V116ZM178.287 116.166C177.069 116.166 176.079 115.768 175.315 114.971C174.551 114.168 174.169 113.097 174.169 111.758V111.476C174.169 110.585 174.338 109.791 174.676 109.094C175.019 108.391 175.495 107.843 176.104 107.45C176.718 107.052 177.382 106.853 178.096 106.853C179.263 106.853 180.171 107.237 180.818 108.006C181.466 108.776 181.79 109.877 181.79 111.31V111.949H175.705C175.727 112.835 175.985 113.551 176.477 114.099C176.975 114.641 177.606 114.913 178.37 114.913C178.912 114.913 179.371 114.802 179.748 114.581C180.124 114.359 180.453 114.066 180.735 113.701L181.673 114.431C180.921 115.588 179.792 116.166 178.287 116.166ZM178.096 108.114C177.476 108.114 176.956 108.341 176.535 108.795C176.115 109.243 175.854 109.874 175.755 110.688H180.254V110.571C180.21 109.791 179.999 109.188 179.623 108.762C179.247 108.33 178.738 108.114 178.096 108.114ZM183.201 111.435C183.201 110.057 183.527 108.95 184.18 108.114C184.833 107.273 185.688 106.853 186.745 106.853C187.797 106.853 188.629 107.212 189.244 107.932V103.25H190.779V116H189.368L189.293 115.037C188.679 115.79 187.824 116.166 186.729 116.166C185.688 116.166 184.839 115.74 184.18 114.888C183.527 114.035 183.201 112.923 183.201 111.551V111.435ZM184.736 111.609C184.736 112.627 184.947 113.424 185.367 114C185.788 114.575 186.369 114.863 187.11 114.863C188.084 114.863 188.795 114.426 189.244 113.551V109.426C188.784 108.579 188.079 108.156 187.127 108.156C186.374 108.156 185.788 108.446 185.367 109.027C184.947 109.608 184.736 110.469 184.736 111.609Z" fill="#949494"/>
<defs>
<clipPath id="clip0_1_1581">
<rect width="64" height="64" fill="white" transform="translate(111)"/>
</clipPath>
</defs>
</svg>
