<svg width="286" height="123" viewBox="0 0 286 123" fill="none" xmlns="http://www.w3.org/2000/svg">
<path d="M60.0815 114.415C59.672 115.001 59.0993 115.441 58.3633 115.734C57.6328 116.022 56.7806 116.166 55.8066 116.166C54.8216 116.166 53.9473 115.936 53.1836 115.477C52.4199 115.012 51.8278 114.354 51.4072 113.501C50.9922 112.649 50.7791 111.661 50.7681 110.538V109.484C50.7681 107.663 51.1914 106.252 52.0381 105.25C52.8903 104.249 54.0856 103.748 55.624 103.748C56.8857 103.748 57.9012 104.072 58.6704 104.719C59.4396 105.361 59.91 106.274 60.0815 107.458H58.4878C58.189 105.859 57.2371 105.06 55.6323 105.06C54.5643 105.06 53.7536 105.436 53.2002 106.188C52.6523 106.936 52.3757 108.02 52.3701 109.442V110.43C52.3701 111.786 52.68 112.865 53.2998 113.667C53.9196 114.464 54.758 114.863 55.8149 114.863C56.4126 114.863 56.9355 114.796 57.3838 114.664C57.832 114.531 58.2028 114.307 58.4961 113.991V111.277H55.6987V109.982H60.0815V114.415ZM62.7461 116V103.914H66.1577C67.2091 103.914 68.1388 104.146 68.9468 104.611C69.7547 105.076 70.3773 105.737 70.8145 106.595C71.2572 107.453 71.4813 108.438 71.4868 109.55V110.322C71.4868 111.462 71.2655 112.461 70.8228 113.319C70.3856 114.177 69.7575 114.835 68.9385 115.294C68.125 115.754 67.1759 115.989 66.0913 116H62.7461ZM64.3398 105.226V114.697H66.0166C67.2451 114.697 68.1997 114.315 68.8804 113.551C69.5666 112.788 69.9097 111.7 69.9097 110.289V109.583C69.9097 108.211 69.5859 107.146 68.9385 106.388C68.2965 105.624 67.3835 105.237 66.1992 105.226H64.3398ZM75.4961 111.269V116H73.9023V103.914H78.3599C79.6825 103.914 80.7173 104.252 81.4644 104.927C82.217 105.602 82.5933 106.496 82.5933 107.608C82.5933 108.781 82.2253 109.686 81.4893 110.322C80.7588 110.953 79.7101 111.269 78.3433 111.269H75.4961ZM75.4961 109.965H78.3599C79.2121 109.965 79.8651 109.766 80.3188 109.368C80.7726 108.964 80.9995 108.383 80.9995 107.625C80.9995 106.905 80.7726 106.33 80.3188 105.898C79.8651 105.466 79.2425 105.242 78.4512 105.226H75.4961V109.965ZM89.0596 111.111H86.2207V116H84.6187V103.914H88.6196C89.981 103.914 91.0269 104.224 91.7573 104.844C92.4933 105.464 92.8613 106.366 92.8613 107.55C92.8613 108.302 92.6566 108.958 92.2471 109.517C91.8431 110.076 91.2786 110.494 90.5537 110.771L93.3926 115.9V116H91.6826L89.0596 111.111ZM86.2207 109.808H88.6694C89.4608 109.808 90.0889 109.603 90.5537 109.193C91.0241 108.784 91.2593 108.236 91.2593 107.55C91.2593 106.803 91.0352 106.23 90.5869 105.832C90.1442 105.433 89.5023 105.231 88.6611 105.226H86.2207V109.808ZM98.7549 112.754C98.7549 112.173 98.9154 111.639 99.2363 111.152C99.5628 110.665 100.183 110.098 101.096 109.451C100.559 108.798 100.199 108.272 100.017 107.874C99.834 107.475 99.7427 107.079 99.7427 106.687C99.7427 105.768 100.014 105.049 100.556 104.528C101.098 104.008 101.834 103.748 102.764 103.748C103.594 103.748 104.28 103.992 104.823 104.479C105.365 104.96 105.636 105.569 105.636 106.305C105.636 106.792 105.512 107.243 105.263 107.658C105.019 108.067 104.59 108.499 103.976 108.953L103.088 109.608L105.777 112.821C106.154 112.101 106.342 111.302 106.342 110.422H107.728C107.728 111.833 107.388 113.003 106.707 113.933L108.434 116H106.591L105.786 115.045C105.376 115.411 104.895 115.69 104.341 115.884C103.793 116.072 103.235 116.166 102.665 116.166C101.486 116.166 100.54 115.853 99.8257 115.228C99.1118 114.603 98.7549 113.778 98.7549 112.754ZM102.665 114.913C103.478 114.913 104.222 114.603 104.897 113.983L101.951 110.455L101.677 110.654C100.753 111.335 100.291 112.035 100.291 112.754C100.291 113.407 100.501 113.93 100.921 114.323C101.347 114.716 101.929 114.913 102.665 114.913ZM101.278 106.637C101.278 107.168 101.605 107.832 102.258 108.629L103.237 107.94C103.614 107.674 103.871 107.423 104.009 107.185C104.148 106.941 104.217 106.648 104.217 106.305C104.217 105.934 104.078 105.627 103.802 105.383C103.525 105.134 103.176 105.01 102.756 105.01C102.302 105.01 101.942 105.165 101.677 105.475C101.411 105.779 101.278 106.166 101.278 106.637ZM123.001 112.165C122.852 113.443 122.379 114.431 121.582 115.128C120.791 115.82 119.736 116.166 118.419 116.166C116.992 116.166 115.846 115.654 114.983 114.63C114.125 113.607 113.696 112.237 113.696 110.521V109.359C113.696 108.236 113.896 107.248 114.294 106.396C114.698 105.544 115.268 104.891 116.004 104.437C116.74 103.978 117.592 103.748 118.561 103.748C119.844 103.748 120.874 104.108 121.648 104.827C122.423 105.541 122.874 106.532 123.001 107.799H121.399C121.261 106.836 120.959 106.139 120.495 105.707C120.035 105.275 119.391 105.06 118.561 105.06C117.542 105.06 116.743 105.436 116.162 106.188C115.586 106.941 115.298 108.012 115.298 109.401V110.571C115.298 111.883 115.572 112.926 116.12 113.701C116.668 114.475 117.434 114.863 118.419 114.863C119.305 114.863 119.983 114.664 120.453 114.265C120.929 113.861 121.244 113.161 121.399 112.165H123.001ZM134.075 112.165C133.925 113.443 133.452 114.431 132.655 115.128C131.864 115.82 130.81 116.166 129.493 116.166C128.065 116.166 126.919 115.654 126.056 114.63C125.198 113.607 124.77 112.237 124.77 110.521V109.359C124.77 108.236 124.969 107.248 125.367 106.396C125.771 105.544 126.341 104.891 127.077 104.437C127.813 103.978 128.665 103.748 129.634 103.748C130.918 103.748 131.947 104.108 132.722 104.827C133.496 105.541 133.947 106.532 134.075 107.799H132.473C132.334 106.836 132.033 106.139 131.568 105.707C131.109 105.275 130.464 105.06 129.634 105.06C128.616 105.06 127.816 105.436 127.235 106.188C126.659 106.941 126.372 108.012 126.372 109.401V110.571C126.372 111.883 126.646 112.926 127.193 113.701C127.741 114.475 128.508 114.863 129.493 114.863C130.378 114.863 131.056 114.664 131.526 114.265C132.002 113.861 132.318 113.161 132.473 112.165H134.075ZM137.852 111.269V116H136.258V103.914H140.715C142.038 103.914 143.073 104.252 143.82 104.927C144.572 105.602 144.949 106.496 144.949 107.608C144.949 108.781 144.581 109.686 143.845 110.322C143.114 110.953 142.066 111.269 140.699 111.269H137.852ZM137.852 109.965H140.715C141.568 109.965 142.221 109.766 142.674 109.368C143.128 108.964 143.355 108.383 143.355 107.625C143.355 106.905 143.128 106.33 142.674 105.898C142.221 105.466 141.598 105.242 140.807 105.226H137.852V109.965ZM152.511 112.846H147.447L146.31 116H144.667L149.282 103.914H150.676L155.3 116H153.665L152.511 112.846ZM147.929 111.534H152.038L149.979 105.881L147.929 111.534ZM164.505 114.913C165.053 114.913 165.532 114.747 165.941 114.415C166.351 114.083 166.578 113.667 166.622 113.169H168.075C168.047 113.684 167.87 114.174 167.543 114.639C167.217 115.104 166.78 115.474 166.232 115.751C165.69 116.028 165.114 116.166 164.505 116.166C163.282 116.166 162.308 115.759 161.583 114.946C160.864 114.127 160.504 113.009 160.504 111.592V111.335C160.504 110.461 160.665 109.683 160.986 109.002C161.307 108.322 161.766 107.793 162.364 107.417C162.967 107.041 163.678 106.853 164.497 106.853C165.504 106.853 166.34 107.154 167.004 107.757C167.674 108.361 168.03 109.144 168.075 110.106H166.622C166.578 109.525 166.356 109.049 165.958 108.679C165.565 108.302 165.078 108.114 164.497 108.114C163.717 108.114 163.111 108.396 162.679 108.961C162.253 109.52 162.04 110.331 162.04 111.393V111.684C162.04 112.718 162.253 113.515 162.679 114.074C163.105 114.633 163.714 114.913 164.505 114.913ZM169.395 111.426C169.395 110.546 169.566 109.755 169.909 109.052C170.258 108.349 170.739 107.807 171.354 107.425C171.973 107.043 172.679 106.853 173.47 106.853C174.693 106.853 175.681 107.276 176.434 108.123C177.192 108.969 177.571 110.095 177.571 111.501V111.609C177.571 112.483 177.402 113.269 177.064 113.966C176.732 114.658 176.254 115.198 175.628 115.585C175.009 115.972 174.295 116.166 173.487 116.166C172.269 116.166 171.282 115.743 170.523 114.896C169.771 114.049 169.395 112.929 169.395 111.534V111.426ZM170.938 111.609C170.938 112.605 171.168 113.405 171.627 114.008C172.092 114.611 172.712 114.913 173.487 114.913C174.267 114.913 174.887 114.608 175.346 114C175.806 113.385 176.035 112.528 176.035 111.426C176.035 110.441 175.8 109.644 175.33 109.036C174.865 108.421 174.245 108.114 173.47 108.114C172.712 108.114 172.101 108.416 171.636 109.019C171.171 109.622 170.938 110.486 170.938 111.609ZM180.941 107.019L180.982 108.015C181.641 107.24 182.529 106.853 183.647 106.853C184.903 106.853 185.758 107.334 186.212 108.297C186.511 107.865 186.898 107.517 187.374 107.251C187.855 106.985 188.423 106.853 189.076 106.853C191.046 106.853 192.047 107.896 192.081 109.982V116H190.545V110.073C190.545 109.431 190.398 108.953 190.105 108.637C189.812 108.316 189.319 108.156 188.627 108.156C188.057 108.156 187.584 108.327 187.208 108.67C186.832 109.008 186.613 109.465 186.552 110.04V116H185.008V110.115C185.008 108.809 184.369 108.156 183.091 108.156C182.084 108.156 181.395 108.585 181.024 109.442V116H179.488V107.019H180.941ZM201.992 111.609C201.992 112.976 201.679 114.077 201.054 114.913C200.428 115.748 199.582 116.166 198.514 116.166C197.424 116.166 196.566 115.82 195.94 115.128V119.453H194.405V107.019H195.808L195.882 108.015C196.508 107.24 197.376 106.853 198.489 106.853C199.568 106.853 200.42 107.259 201.045 108.073C201.676 108.886 201.992 110.018 201.992 111.468V111.609ZM200.456 111.435C200.456 110.422 200.24 109.622 199.809 109.036C199.377 108.449 198.785 108.156 198.032 108.156C197.103 108.156 196.405 108.568 195.94 109.393V113.684C196.4 114.503 197.103 114.913 198.049 114.913C198.785 114.913 199.369 114.622 199.8 114.041C200.237 113.454 200.456 112.586 200.456 111.435ZM205.619 116H204.083V103.25H205.619V116ZM209.753 116H208.217V107.019H209.753V116ZM208.093 104.636C208.093 104.387 208.167 104.177 208.317 104.005C208.472 103.834 208.699 103.748 208.998 103.748C209.296 103.748 209.523 103.834 209.678 104.005C209.833 104.177 209.911 104.387 209.911 104.636C209.911 104.885 209.833 105.093 209.678 105.259C209.523 105.425 209.296 105.508 208.998 105.508C208.699 105.508 208.472 105.425 208.317 105.259C208.167 105.093 208.093 104.885 208.093 104.636ZM217.763 116C217.675 115.823 217.603 115.507 217.547 115.054C216.833 115.795 215.981 116.166 214.991 116.166C214.105 116.166 213.378 115.917 212.808 115.419C212.243 114.915 211.961 114.279 211.961 113.51C211.961 112.575 212.315 111.85 213.023 111.335C213.737 110.815 214.739 110.555 216.028 110.555H217.522V109.849C217.522 109.312 217.362 108.886 217.041 108.571C216.72 108.25 216.247 108.089 215.622 108.089C215.074 108.089 214.614 108.228 214.244 108.504C213.873 108.781 213.688 109.116 213.688 109.509H212.144C212.144 109.061 212.301 108.629 212.617 108.214C212.938 107.793 213.369 107.461 213.912 107.218C214.459 106.974 215.06 106.853 215.713 106.853C216.748 106.853 217.558 107.113 218.145 107.633C218.732 108.147 219.036 108.859 219.058 109.766V113.9C219.058 114.724 219.163 115.38 219.374 115.867V116H217.763ZM215.215 114.83C215.696 114.83 216.153 114.705 216.584 114.456C217.016 114.207 217.329 113.883 217.522 113.485V111.642H216.319C214.437 111.642 213.497 112.193 213.497 113.294C213.497 113.775 213.657 114.152 213.978 114.423C214.299 114.694 214.711 114.83 215.215 114.83ZM222.918 107.019L222.968 108.147C223.654 107.284 224.55 106.853 225.657 106.853C227.555 106.853 228.513 107.923 228.529 110.065V116H226.994V110.057C226.988 109.409 226.839 108.931 226.545 108.621C226.258 108.311 225.807 108.156 225.192 108.156C224.694 108.156 224.257 108.289 223.881 108.554C223.505 108.82 223.211 109.168 223.001 109.6V116H221.465V107.019H222.918ZM232.929 104.844V107.019H234.605V108.206H232.929V113.775C232.929 114.135 233.003 114.406 233.153 114.589C233.302 114.766 233.557 114.854 233.917 114.854C234.094 114.854 234.337 114.821 234.647 114.755V116C234.243 116.111 233.85 116.166 233.468 116.166C232.782 116.166 232.265 115.958 231.916 115.543C231.567 115.128 231.393 114.539 231.393 113.775V108.206H229.758V107.019H231.393V104.844H232.929Z" fill="#949494"/>
<g clip-path="url(#clip0_1_1590)">
<path d="M123.672 46.2304C125.869 41.8095 127.009 36.9388 127.002 32.0022C126.999 29.6032 127.538 27.2346 128.576 25.0722C129.615 22.9098 131.128 21.0091 133.002 19.5115" stroke="#1CFFE4" stroke-linecap="round" stroke-linejoin="round"/>
<path d="M143.002 32.0022C143.014 40.1344 140.951 48.1352 137.008 55.2473" stroke="#1CFFE4" stroke-linecap="round" stroke-linejoin="round"/>
<path d="M135.001 32.0022C135.001 29.8805 135.844 27.8456 137.345 26.3453C138.845 24.8451 140.88 24.0022 143.001 24.0022C145.123 24.0022 147.158 24.8451 148.658 26.3453C150.159 27.8456 151.001 29.8805 151.001 32.0022C151.013 40.2481 149.197 48.3941 145.683 55.8538" stroke="#1CFFE4" stroke-linecap="round" stroke-linejoin="round"/>
<path d="M165.641 46.0022C166.548 41.3908 167.004 36.702 167.001 32.0022C167.001 25.637 164.473 19.5325 159.972 15.0316C155.471 10.5308 149.367 8.0022 143.001 8.0022C136.636 8.0022 130.532 10.5308 126.031 15.0316C121.53 19.5325 119.001 25.637 119.001 32.0022C119.004 34.7271 118.543 37.4326 117.636 40.0023" stroke="#1CFFE4" stroke-linecap="round" stroke-linejoin="round"/>
<path d="M134.202 40.0022C133.348 44.2076 131.818 48.247 129.673 51.9634" stroke="#1CFFE4" stroke-linecap="round" stroke-linejoin="round"/>
<path d="M141.001 16.126C143.253 15.8443 145.54 16.0446 147.708 16.7135C149.877 17.3824 151.879 18.5047 153.581 20.0059C155.283 21.5072 156.646 23.3531 157.581 25.4213C158.515 27.4895 159 29.7327 159.001 32.0022C159.002 34.6765 158.837 37.3483 158.506 40.0021" stroke="#1CFFE4" stroke-linecap="round" stroke-linejoin="round"/>
<path d="M156.985 48.002C156.604 49.4817 156.173 50.94 155.69 52.377" stroke="#1CFFE4" stroke-linecap="round" stroke-linejoin="round"/>
</g>
<defs>
<clipPath id="clip0_1_1590">
<rect width="64" height="64" fill="white" transform="translate(111)"/>
</clipPath>
</defs>
</svg>
