<svg width="286" height="123" viewBox="0 0 286 123" fill="none" xmlns="http://www.w3.org/2000/svg">
<g clip-path="url(#clip0_1_1574)">
<path d="M134.292 30.7082C132.75 26.8626 132.584 22.6026 133.82 18.6484C135.057 14.6941 137.621 11.288 141.079 9.0059C144.537 6.72379 148.676 5.70561 152.798 6.12347C156.92 6.54132 160.772 8.36958 163.701 11.2992C166.631 14.2288 168.459 18.0801 168.877 22.2021C169.295 26.3241 168.277 30.464 165.995 33.9219C163.712 37.3799 160.306 39.9438 156.352 41.1803C152.398 42.4169 148.138 42.2502 144.292 40.7084L144.292 40.7081L141 44H135V50H129V56H119V46L134.292 30.708L134.292 30.7082Z" stroke="#1CFFE4" stroke-linecap="round" stroke-linejoin="round"/>
<path opacity="0.5" d="M156 20C156.552 20 157 19.5523 157 19C157 18.4477 156.552 18 156 18C155.448 18 155 18.4477 155 19C155 19.5523 155.448 20 156 20Z" stroke="#1CFFE4" stroke-width="0.03125" stroke-linecap="round" stroke-linejoin="round"/>
<path d="M156 21C157.105 21 158 20.1046 158 19C158 17.8954 157.105 17 156 17C154.895 17 154 17.8954 154 19C154 20.1046 154.895 21 156 21Z" fill="#1CFFE4"/>
</g>
<path d="M104.889 111.269V116H103.295V103.914H107.753C109.076 103.914 110.11 104.252 110.857 104.927C111.61 105.602 111.986 106.496 111.986 107.608C111.986 108.781 111.618 109.686 110.882 110.322C110.152 110.953 109.103 111.269 107.736 111.269H104.889ZM104.889 109.965H107.753C108.605 109.965 109.258 109.766 109.712 109.368C110.166 108.964 110.393 108.383 110.393 107.625C110.393 106.905 110.166 106.33 109.712 105.898C109.258 105.466 108.636 105.242 107.844 105.226H104.889V109.965ZM117.39 116.166C116.173 116.166 115.182 115.768 114.418 114.971C113.655 114.168 113.273 113.097 113.273 111.758V111.476C113.273 110.585 113.442 109.791 113.779 109.094C114.122 108.391 114.598 107.843 115.207 107.45C115.821 107.052 116.485 106.853 117.199 106.853C118.367 106.853 119.274 107.237 119.922 108.006C120.569 108.776 120.893 109.877 120.893 111.31V111.949H114.809C114.831 112.835 115.088 113.551 115.581 114.099C116.079 114.641 116.709 114.913 117.473 114.913C118.015 114.913 118.475 114.802 118.851 114.581C119.227 114.359 119.557 114.066 119.839 113.701L120.777 114.431C120.024 115.588 118.895 116.166 117.39 116.166ZM117.199 108.114C116.579 108.114 116.059 108.341 115.639 108.795C115.218 109.243 114.958 109.874 114.858 110.688H119.357V110.571C119.313 109.791 119.103 109.188 118.727 108.762C118.35 108.33 117.841 108.114 117.199 108.114ZM124.13 107.019L124.18 108.147C124.866 107.284 125.763 106.853 126.87 106.853C128.768 106.853 129.725 107.923 129.742 110.065V116H128.206V110.057C128.201 109.409 128.051 108.931 127.758 108.621C127.47 108.311 127.019 108.156 126.405 108.156C125.907 108.156 125.47 108.289 125.093 108.554C124.717 108.82 124.424 109.168 124.213 109.6V116H122.678V107.019H124.13ZM135.253 111.493H131.203V110.239H135.253V111.493ZM138.839 104.844V107.019H140.516V108.206H138.839V113.775C138.839 114.135 138.914 114.406 139.063 114.589C139.213 114.766 139.467 114.854 139.827 114.854C140.004 114.854 140.248 114.821 140.558 114.755V116C140.154 116.111 139.761 116.166 139.379 116.166C138.693 116.166 138.175 115.958 137.827 115.543C137.478 115.128 137.304 114.539 137.304 113.775V108.206H135.668V107.019H137.304V104.844H138.839ZM146.044 116.166C144.827 116.166 143.836 115.768 143.073 114.971C142.309 114.168 141.927 113.097 141.927 111.758V111.476C141.927 110.585 142.096 109.791 142.434 109.094C142.777 108.391 143.253 107.843 143.861 107.45C144.476 107.052 145.14 106.853 145.854 106.853C147.021 106.853 147.929 107.237 148.576 108.006C149.224 108.776 149.547 109.877 149.547 111.31V111.949H143.463C143.485 112.835 143.742 113.551 144.235 114.099C144.733 114.641 145.364 114.913 146.127 114.913C146.67 114.913 147.129 114.802 147.505 114.581C147.882 114.359 148.211 114.066 148.493 113.701L149.431 114.431C148.679 115.588 147.55 116.166 146.044 116.166ZM145.854 108.114C145.234 108.114 144.714 108.341 144.293 108.795C143.872 109.243 143.612 109.874 143.513 110.688H148.012V110.571C147.967 109.791 147.757 109.188 147.381 108.762C147.005 108.33 146.495 108.114 145.854 108.114ZM156.562 113.618C156.562 113.203 156.404 112.882 156.088 112.655C155.778 112.422 155.233 112.223 154.453 112.057C153.678 111.891 153.061 111.692 152.602 111.459C152.148 111.227 151.811 110.95 151.589 110.629C151.374 110.308 151.266 109.927 151.266 109.484C151.266 108.748 151.576 108.125 152.195 107.616C152.821 107.107 153.618 106.853 154.586 106.853C155.604 106.853 156.429 107.115 157.06 107.641C157.696 108.167 158.014 108.839 158.014 109.658H156.47C156.47 109.238 156.29 108.875 155.931 108.571C155.576 108.266 155.128 108.114 154.586 108.114C154.027 108.114 153.59 108.236 153.274 108.479C152.959 108.723 152.801 109.041 152.801 109.434C152.801 109.805 152.948 110.084 153.241 110.272C153.535 110.461 154.063 110.64 154.827 110.812C155.596 110.984 156.218 111.188 156.694 111.426C157.17 111.664 157.522 111.952 157.749 112.29C157.981 112.622 158.097 113.028 158.097 113.51C158.097 114.312 157.776 114.957 157.134 115.444C156.492 115.925 155.66 116.166 154.636 116.166C153.916 116.166 153.28 116.039 152.727 115.784C152.173 115.53 151.739 115.175 151.423 114.722C151.113 114.262 150.958 113.767 150.958 113.236H152.494C152.522 113.75 152.727 114.16 153.108 114.464C153.496 114.763 154.005 114.913 154.636 114.913C155.217 114.913 155.682 114.796 156.03 114.564C156.384 114.326 156.562 114.011 156.562 113.618ZM162.181 104.844V107.019H163.858V108.206H162.181V113.775C162.181 114.135 162.256 114.406 162.405 114.589C162.555 114.766 162.809 114.854 163.169 114.854C163.346 114.854 163.59 114.821 163.899 114.755V116C163.495 116.111 163.103 116.166 162.721 116.166C162.035 116.166 161.517 115.958 161.168 115.543C160.82 115.128 160.646 114.539 160.646 113.775V108.206H159.01V107.019H160.646V104.844H162.181ZM169.386 116.166C168.169 116.166 167.178 115.768 166.415 114.971C165.651 114.168 165.269 113.097 165.269 111.758V111.476C165.269 110.585 165.438 109.791 165.775 109.094C166.118 108.391 166.594 107.843 167.203 107.45C167.817 107.052 168.481 106.853 169.195 106.853C170.363 106.853 171.271 107.237 171.918 108.006C172.565 108.776 172.889 109.877 172.889 111.31V111.949H166.805C166.827 112.835 167.084 113.551 167.577 114.099C168.075 114.641 168.706 114.913 169.469 114.913C170.012 114.913 170.471 114.802 170.847 114.581C171.223 114.359 171.553 114.066 171.835 113.701L172.773 114.431C172.02 115.588 170.891 116.166 169.386 116.166ZM169.195 108.114C168.576 108.114 168.055 108.341 167.635 108.795C167.214 109.243 166.954 109.874 166.854 110.688H171.354V110.571C171.309 109.791 171.099 109.188 170.723 108.762C170.346 108.33 169.837 108.114 169.195 108.114ZM174.3 111.435C174.3 110.057 174.627 108.95 175.28 108.114C175.933 107.273 176.788 106.853 177.845 106.853C178.896 106.853 179.729 107.212 180.343 107.932V103.25H181.879V116H180.468L180.393 115.037C179.779 115.79 178.924 116.166 177.828 116.166C176.788 116.166 175.938 115.74 175.28 114.888C174.627 114.035 174.3 112.923 174.3 111.551V111.435ZM175.836 111.609C175.836 112.627 176.046 113.424 176.467 114C176.887 114.575 177.468 114.863 178.21 114.863C179.184 114.863 179.895 114.426 180.343 113.551V109.426C179.884 108.579 179.178 108.156 178.227 108.156C177.474 108.156 176.887 108.446 176.467 109.027C176.046 109.608 175.836 110.469 175.836 111.609Z" fill="#949494"/>
<defs>
<clipPath id="clip0_1_1574">
<rect width="64" height="64" fill="white" transform="translate(111)"/>
</clipPath>
</defs>
</svg>
