<svg width="88" height="89" viewBox="0 0 88 89" fill="none" xmlns="http://www.w3.org/2000/svg">
<path fill-rule="evenodd" clip-rule="evenodd" d="M26.3929 4.75449C29.7771 1.38341 34.6978 0.0648973 39.3142 1.29225L69.8318 9.40596C74.4751 10.6406 78.1044 14.2628 79.3479 18.9037L87.4719 49.223C88.7154 53.8639 87.3835 58.8155 83.9796 62.2063L61.6074 84.4918C58.2232 87.8629 53.3025 89.1814 48.6861 87.9541L47.2441 87.5707L47.2261 87.5659L18.1685 79.8403C13.5252 78.6059 9.896 74.9836 8.6524 70.3427L0.528339 40.0232C-0.715181 35.3823 0.616739 30.4307 4.02069 27.0399L25.4828 5.66088C25.4955 5.6482 25.5083 5.63557 25.521 5.62298L26.3929 4.75449ZM5.6445 37.5419C5.68272 37.8438 5.7386 38.1453 5.81253 38.4447C5.82507 38.4955 5.83812 38.5463 5.8517 38.5969L13.9757 68.9163C14.1788 69.674 14.4897 70.3856 14.8913 71.0339C15.9396 72.7263 17.6059 73.988 19.5845 74.5141L48.6867 82.2515C48.863 82.2973 49.0404 82.3393 49.2187 82.3773C51.4933 82.7839 53.7234 81.3283 54.2324 79.0304L57.3951 64.7512C57.6701 63.51 57.6418 62.2208 57.3128 60.9929L47.3443 23.79C47.0153 22.562 46.3951 21.4315 45.5364 20.494L35.6578 9.70926C34.0707 7.97646 31.4177 7.82856 29.6512 9.31026C29.4958 9.44996 29.344 9.59366 29.1961 9.74106L7.9101 30.9446C6.4984 32.3508 5.69137 34.2125 5.59231 36.1453C5.56857 36.6085 5.5855 37.0758 5.6445 37.5419ZM60.1137 75.548L62.7758 65.943C63.2423 63.8371 63.1943 61.6499 62.6361 59.5665L52.6676 22.3636C52.1094 20.2802 51.0573 18.362 49.6004 16.7715L42.4932 9.78516L56.6806 17.4278C58.7083 18.439 60.2051 20.2712 60.7915 22.4598L69.6236 55.4216C70.2101 57.6103 69.8299 59.9454 68.5795 61.835L60.1137 75.548ZM80.0902 58.3018L72.5667 65.7962L73.1754 64.8763C75.2969 61.6704 75.9419 57.7086 74.947 53.9952L66.1149 21.0335C65.1199 17.3201 62.5804 14.2116 59.1401 12.4959L58.1525 12.0034L68.4157 14.7321C71.1525 15.4597 73.2916 17.5947 74.0246 20.3301L82.1486 50.6494C82.8815 53.3848 82.0965 56.3033 80.0902 58.3018Z" fill="#FFFEF8"/>
</svg>
