<svg width="96" height="97" viewBox="0 0 96 97" fill="none" xmlns="http://www.w3.org/2000/svg">
<path fill-rule="evenodd" clip-rule="evenodd" d="M30.3929 8.75449C33.7771 5.38341 38.6978 4.0649 43.3142 5.29225L73.8318 13.406C78.4751 14.6406 82.1044 18.2628 83.3479 22.9037L91.4719 53.223C92.7154 57.8639 91.3835 62.8155 87.9796 66.2063L65.6074 88.4918C62.2232 91.8629 57.3025 93.1814 52.6861 91.9541L51.2441 91.5707L51.2261 91.5659L22.1685 83.8403C17.5252 82.6059 13.896 78.9836 12.6524 74.3427L4.52834 44.0232C3.28482 39.3823 4.61674 34.4307 8.02069 31.0399L29.4828 9.66088C29.4955 9.6482 29.5083 9.63557 29.521 9.62298L30.3929 8.75449ZM9.6445 41.5419C9.68272 41.8438 9.7386 42.1453 9.81253 42.4447C9.82507 42.4955 9.83812 42.5463 9.8517 42.5969L17.9757 72.9163C18.1788 73.674 18.4897 74.3856 18.8913 75.0339C19.9396 76.7263 21.6059 77.988 23.5845 78.5141L52.6867 86.2515C52.863 86.2973 53.0404 86.3393 53.2187 86.3773C55.4933 86.7839 57.7234 85.3283 58.2324 83.0304L61.3951 68.7512C61.6701 67.51 61.6418 66.2208 61.3128 64.9929L51.3443 27.79C51.0153 26.562 50.3951 25.4315 49.5364 24.494L39.6578 13.7093C38.0707 11.9765 35.4177 11.8286 33.6512 13.3103C33.4958 13.45 33.344 13.5937 33.1961 13.7411L11.9101 34.9446C10.4984 36.3508 9.69137 38.2125 9.59231 40.1453C9.56857 40.6085 9.5855 41.0758 9.6445 41.5419ZM64.1137 79.548L66.7758 69.943C67.2423 67.8371 67.1943 65.6499 66.6361 63.5665L56.6676 26.3636C56.1094 24.2802 55.0573 22.362 53.6004 20.7715L46.4932 13.7852L60.6806 21.4278C62.7083 22.439 64.2051 24.2712 64.7915 26.4598L73.6236 59.4216C74.2101 61.6103 73.8299 63.9454 72.5795 65.835L64.1137 79.548ZM84.0902 62.3018L76.5667 69.7962L77.1754 68.8763C79.2969 65.6704 79.9419 61.7086 78.947 57.9952L70.1149 25.0335C69.1199 21.3201 66.5804 18.2116 63.1401 16.4959L62.1525 16.0034L72.4157 18.7321C75.1525 19.4597 77.2916 21.5947 78.0246 24.3301L86.1486 54.6494C86.8815 57.3848 86.0965 60.3033 84.0902 62.3018Z" fill="#FFFEF8"/>
</svg>
