<svg width="249" height="57" viewBox="0 0 249 57" fill="none" xmlns="http://www.w3.org/2000/svg">
<g clip-path="url(#clip0_1_1712)">
<path d="M1.515 30.625L2.625 27.79H7.2L8.31 30.625H9.705L5.715 20.125H4.17L0.165001 30.625H1.515ZM4.905 21.55L6.81 26.605H3.015L4.905 21.55Z" fill="#949494"/>
<path d="M51.2889 6.73611C53.8667 4.04722 57.4667 2.38056 61.4444 2.38056C66.7333 2.38056 71.3333 5.33611 73.7778 9.69167C75.9111 8.73611 78.2667 8.20278 80.7555 8.20278C90.2889 8.20278 98 16.0028 98 25.6028C98 35.2028 90.2889 43.0028 80.7555 43.0028C79.6 43.0028 78.4667 42.8917 77.3555 42.6694C75.2 46.5139 71.0667 49.1361 66.3555 49.1361C64.3778 49.1361 62.5111 48.6694 60.8444 47.8694C58.6444 53.025 53.5555 56.625 47.6 56.625C41.4 56.625 36.1333 52.7139 34.1111 47.2028C33.2222 47.3806 32.3111 47.4917 31.3556 47.4917C23.9778 47.4917 18 41.4472 18 34.0028C18 29.0028 20.6889 24.6472 24.6667 22.3139C23.8444 20.425 23.3778 18.3361 23.3778 16.1361C23.4 7.58056 30.3556 0.625 38.9333 0.625C43.9778 0.625 48.4444 3.025 51.2889 6.73611Z" fill="#00A0DF"/>
<path d="M29.5777 29.6691C29.5333 29.8024 29.5999 29.8247 29.6221 29.8469C29.7777 29.958 29.9333 30.0247 30.0888 30.1135C30.911 30.5358 31.6666 30.6691 32.4888 30.6691C34.1332 30.6691 35.1555 29.8024 35.1555 28.4024V28.3802C35.1555 27.0913 33.9999 26.6024 32.9332 26.2691L32.7999 26.2247C31.9777 25.958 31.2888 25.7358 31.2888 25.2024V25.1802C31.2888 24.7136 31.6888 24.3802 32.3333 24.3802C33.0444 24.3802 33.8888 24.6247 34.4221 24.9136C34.4221 24.9136 34.5777 25.0247 34.6444 24.8691C34.6666 24.7802 34.9555 24.0469 34.9777 23.9802C34.9999 23.8913 34.9555 23.8247 34.8888 23.8024C34.2666 23.4247 33.4221 23.1802 32.5333 23.1802H32.3777C30.8666 23.1802 29.8221 24.0913 29.8221 25.3802V25.4024C29.8221 26.7802 30.9777 27.2247 32.0666 27.5358L32.2444 27.5802C33.0444 27.8247 33.711 28.0247 33.711 28.5802V28.6024C33.711 29.1135 33.2666 29.4913 32.5555 29.4913C32.2888 29.4913 31.3999 29.4913 30.4444 28.8913C30.3333 28.8247 30.2666 28.7802 30.1777 28.7135C30.1333 28.6913 30.0221 28.6247 29.9555 28.7802L29.5777 29.6691Z" fill="white"/>
<path d="M53.5999 29.6691C53.5555 29.8024 53.6221 29.8247 53.6444 29.8469C53.7999 29.958 53.9555 30.0247 54.111 30.1135C54.9332 30.5358 55.6888 30.6691 56.511 30.6691C58.1555 30.6691 59.1777 29.8024 59.1777 28.4024V28.3802C59.1777 27.0913 58.0221 26.6024 56.9555 26.2691L56.8221 26.2247C55.9999 25.958 55.311 25.7358 55.311 25.2024V25.1802C55.311 24.7136 55.711 24.3802 56.3555 24.3802C57.0666 24.3802 57.911 24.6247 58.4444 24.9136C58.4444 24.9136 58.5999 25.0247 58.6666 24.8691C58.6888 24.7802 58.9777 24.0469 58.9999 23.9802C59.0221 23.8913 58.9777 23.8247 58.911 23.8024C58.2888 23.4247 57.4444 23.1802 56.5555 23.1802H56.3999C54.8888 23.1802 53.8444 24.0913 53.8444 25.3802V25.4024C53.8444 26.7802 54.9999 27.2247 56.0888 27.5358L56.2666 27.5802C57.0666 27.8247 57.7333 28.0247 57.7333 28.5802V28.6024C57.7333 29.1135 57.2888 29.4913 56.5777 29.4913C56.311 29.4913 55.4221 29.4913 54.4666 28.8913C54.3555 28.8247 54.2888 28.7802 54.1999 28.7135C54.1777 28.6913 54.0221 28.6469 53.9777 28.7802L53.5999 29.6691Z" fill="white"/>
<path d="M71.3778 25.4471C71.2445 25.0026 71.0223 24.5804 70.7556 24.2471C70.4667 23.9138 70.1334 23.6471 69.7111 23.4471C69.2889 23.2471 68.8 23.1582 68.2445 23.1582C67.6889 23.1582 67.2 23.2471 66.7778 23.4471C66.3556 23.6471 66 23.9138 65.7334 24.2471C65.4445 24.5804 65.2445 24.9804 65.1111 25.4471C64.9778 25.8915 64.9111 26.4026 64.9111 26.9138C64.9111 27.4471 64.9778 27.936 65.1111 28.3804C65.2445 28.8249 65.4445 29.2249 65.7334 29.5804C66.0222 29.9137 66.3778 30.1804 66.7778 30.3804C67.2 30.5804 67.6889 30.6693 68.2445 30.6693C68.8 30.6693 69.2889 30.5804 69.7111 30.3804C70.1334 30.1804 70.4889 29.9137 70.7556 29.5804C71.0445 29.2471 71.2445 28.8471 71.3778 28.3804C71.5111 27.936 71.5778 27.4249 71.5778 26.9138C71.5778 26.3804 71.5111 25.8915 71.3778 25.4471ZM70.0223 26.9138C70.0223 27.7138 69.8667 28.336 69.5778 28.7804C69.2889 29.2249 68.8445 29.4249 68.2445 29.4249C67.6445 29.4249 67.2 29.2026 66.9111 28.7804C66.6222 28.336 66.4889 27.7138 66.4889 26.9138C66.4889 26.1138 66.6445 25.4915 66.9111 25.0693C67.2 24.6249 67.6223 24.4249 68.2445 24.4249C68.8445 24.4249 69.2889 24.6249 69.5778 25.0693C69.8667 25.4915 70.0223 26.1138 70.0223 26.9138Z" fill="white"/>
<path fill-rule="evenodd" clip-rule="evenodd" d="M82.6221 29.2026C82.5777 29.0693 82.4444 29.1137 82.4444 29.1137C82.2444 29.1804 82.0444 29.2693 81.7999 29.2915C81.5777 29.336 81.311 29.336 81.0444 29.336C80.3777 29.336 79.8444 29.136 79.4888 28.7582C79.111 28.3582 78.8888 27.736 78.911 26.8915C78.911 26.1138 79.111 25.536 79.4444 25.0915C79.7777 24.6471 80.2888 24.4249 80.9555 24.4249C81.511 24.4249 81.9555 24.4915 82.3999 24.6249C82.3999 24.6249 82.511 24.6693 82.5555 24.536C82.6666 24.2026 82.7555 23.9582 82.8888 23.6026C82.9333 23.4915 82.8444 23.4471 82.7999 23.4471C82.6221 23.3804 82.1999 23.2693 81.8888 23.2249C81.5999 23.1804 81.2444 23.1582 80.8666 23.1582C80.2888 23.1582 79.7777 23.2471 79.3333 23.4471C78.8888 23.6471 78.5333 23.9138 78.2221 24.2471C77.9333 24.5804 77.711 24.9804 77.5555 25.4471C77.3999 25.8915 77.3333 26.4026 77.3333 26.9138C77.3333 28.0471 77.6444 28.9582 78.2444 29.6471C78.8444 30.3137 79.7555 30.6693 80.9555 30.6693C81.6666 30.6693 82.3777 30.536 82.8888 30.3137C82.8888 30.3137 82.9777 30.2693 82.9555 30.1582L82.6221 29.2026Z" fill="white"/>
<path fill-rule="evenodd" clip-rule="evenodd" d="M89.6443 25.1804C89.5331 24.736 89.2443 24.2915 89.0443 24.0915C88.7554 23.7804 88.4443 23.536 88.1554 23.4249C87.7776 23.2693 87.3331 23.1582 86.822 23.1582C86.2442 23.1582 85.7109 23.2471 85.2887 23.4471C84.8665 23.6471 84.5109 23.9138 84.222 24.2693C83.9331 24.6026 83.7331 25.0249 83.5998 25.4693C83.4665 25.936 83.3998 26.4249 83.3998 26.9582C83.3998 27.4915 83.4665 27.9804 83.5998 28.4471C83.7331 28.8915 83.9776 29.2915 84.2665 29.6249C84.5776 29.9582 84.9553 30.2249 85.422 30.4026C85.8887 30.5804 86.4442 30.6693 87.1109 30.6693C88.4442 30.6693 89.1554 30.3582 89.4443 30.2026C89.4887 30.1804 89.5554 30.1137 89.4887 29.9804L89.1776 29.136C89.1331 29.0026 88.9998 29.0471 88.9998 29.0471C88.6665 29.1804 88.1998 29.4026 87.0887 29.3804C86.3776 29.3804 85.8442 29.1582 85.5109 28.8249C85.1776 28.4915 84.9998 27.9804 84.9776 27.2915H89.622C89.622 27.2915 89.7331 27.2915 89.7554 27.1804C89.7776 27.136 89.9331 26.2249 89.6443 25.1804ZM85.022 26.1582C85.0887 25.7138 85.1998 25.3582 85.3998 25.0693C85.6887 24.6249 86.1109 24.4026 86.7331 24.4026C87.3331 24.4026 87.7331 24.6471 88.022 25.0693C88.222 25.3582 88.2887 25.736 88.3331 26.1582H85.022Z" fill="white"/>
<path fill-rule="evenodd" clip-rule="evenodd" d="M52.511 25.1804C52.3999 24.736 52.111 24.2915 51.911 24.0915C51.6222 23.7804 51.311 23.536 51.0222 23.4249C50.6444 23.2693 50.1999 23.1582 49.6888 23.1582C49.111 23.1582 48.5777 23.2471 48.1555 23.4471C47.7333 23.6471 47.3777 23.9138 47.0888 24.2693C46.7999 24.6026 46.5999 25.0249 46.4666 25.4693C46.3333 25.936 46.2666 26.4249 46.2666 26.9582C46.2666 27.4915 46.3333 27.9804 46.4666 28.4471C46.5999 28.8915 46.8444 29.2915 47.1333 29.6249C47.4444 29.9582 47.8222 30.2249 48.2888 30.4026C48.7555 30.5804 49.311 30.6693 49.9777 30.6693C51.311 30.6693 52.0222 30.3582 52.311 30.2026C52.3555 30.1804 52.3999 30.1137 52.3555 29.9804L52.0444 29.136C51.9999 29.0026 51.8666 29.0471 51.8666 29.0471C51.5333 29.1804 51.0666 29.4026 49.9555 29.3804C49.2444 29.3804 48.711 29.1582 48.3777 28.8249C48.0444 28.4915 47.8666 27.9804 47.8444 27.2915H52.4888C52.4888 27.2915 52.5999 27.2915 52.6222 27.1804C52.6444 27.136 52.7999 26.2249 52.511 25.1804ZM47.8888 26.1582C47.9555 25.7138 48.0666 25.3582 48.2666 25.0693C48.5555 24.6249 48.9777 24.4026 49.5999 24.4026C50.1999 24.4026 50.5999 24.6471 50.8888 25.0693C51.0888 25.3582 51.1555 25.736 51.1999 26.1582H47.8888Z" fill="white"/>
<path d="M39.711 25.936C39.5332 25.9138 39.2888 25.9138 38.9777 25.9138C38.5777 25.9138 38.1999 25.9582 37.8443 26.0693C37.4888 26.1582 37.1554 26.3138 36.8666 26.5138C36.5777 26.7138 36.3554 26.9804 36.1999 27.2693C36.0443 27.5804 35.9554 27.936 35.9554 28.336C35.9554 28.736 36.0221 29.1137 36.1777 29.4026C36.311 29.6915 36.5332 29.936 36.7777 30.136C37.0443 30.3137 37.3554 30.4693 37.7332 30.536C38.0888 30.6249 38.511 30.6693 38.9554 30.6693C39.4221 30.6693 39.911 30.6249 40.3554 30.5582C40.7999 30.4915 41.3777 30.3582 41.5332 30.336C41.6888 30.2915 41.8666 30.2471 41.8666 30.2471C41.9777 30.2249 41.9777 30.0915 41.9777 30.0915V25.8471C41.9777 24.9138 41.7332 24.2249 41.2443 23.8026C40.7554 23.3804 40.0443 23.1582 39.111 23.1582C38.7554 23.1582 38.1999 23.2026 37.8666 23.2693C37.8666 23.2693 36.8443 23.4693 36.4443 23.8026C36.4443 23.8026 36.3554 23.8693 36.3999 23.9804L36.7332 24.8693C36.7777 24.9804 36.8888 24.936 36.8888 24.936C36.8888 24.936 36.9332 24.9138 36.9554 24.8915C37.8443 24.4026 38.9777 24.4249 38.9777 24.4249C39.4888 24.4249 39.8666 24.536 40.1332 24.7138C40.3777 24.9138 40.511 25.2026 40.511 25.8249V26.0249C40.0888 25.9582 39.711 25.936 39.711 25.936ZM37.8666 29.1804C37.6888 29.0249 37.6666 29.0026 37.5999 28.9137C37.511 28.7804 37.4666 28.5582 37.4666 28.3137C37.4666 27.9137 37.5999 27.6026 37.8888 27.4249C37.8888 27.4249 38.2888 27.0693 39.2443 27.0915C39.911 27.0915 40.511 27.2026 40.511 27.2026V29.3137C40.511 29.3137 39.911 29.4471 39.2666 29.4693C38.2888 29.5137 37.8666 29.1804 37.8666 29.1804Z" fill="white"/>
<path fill-rule="evenodd" clip-rule="evenodd" d="M77.1109 23.5359C77.1554 23.4248 77.0665 23.3804 77.0442 23.3581C76.9554 23.3359 76.5776 23.247 76.2665 23.2248C75.6887 23.1804 75.3554 23.2915 75.0665 23.4248C74.7776 23.5581 74.4665 23.7581 74.2887 24.0026V23.447C74.2887 23.3804 74.2442 23.3137 74.1554 23.3137H72.9776C72.9109 23.3137 72.8442 23.3804 72.8442 23.447V30.3581C72.8442 30.4248 72.9109 30.4914 72.9776 30.4914H74.1998C74.2665 30.4914 74.3331 30.4248 74.3331 30.3581V26.8915C74.3331 26.4248 74.3776 25.9581 74.4887 25.6692C74.5998 25.3803 74.7331 25.1581 74.8887 24.9803C75.0665 24.8248 75.2442 24.6915 75.4665 24.647C75.6887 24.5804 75.9109 24.5581 76.0887 24.5581C76.3331 24.5581 76.5998 24.6248 76.5998 24.6248C76.6887 24.6248 76.7331 24.5804 76.7776 24.4915C76.8442 24.2915 77.0665 23.6692 77.1109 23.5359Z" fill="white"/>
<path fill-rule="evenodd" clip-rule="evenodd" d="M65.6667 20.3358C65.5111 20.2913 65.3778 20.2691 65.2 20.2247C65.0223 20.2024 64.8 20.1802 64.5778 20.1802C63.7334 20.1802 63.0889 20.4247 62.6222 20.8913C62.1556 21.358 61.8445 22.0691 61.6889 23.0024L61.6222 23.3136H60.5778C60.5778 23.3136 60.4445 23.3136 60.4222 23.4469L60.2445 24.4024C60.2222 24.4913 60.2667 24.558 60.4 24.558H61.4222L60.3778 30.358C60.2889 30.8247 60.2 31.2024 60.1111 31.4913C60 31.7802 59.9111 32.0024 59.7778 32.158C59.6667 32.3136 59.5556 32.4247 59.3556 32.4913C59.2 32.5358 59.0222 32.5802 58.8 32.5802C58.6889 32.5802 58.5333 32.558 58.4222 32.5358C58.3111 32.5136 58.2445 32.4913 58.1778 32.4469C58.1778 32.4469 58.0667 32.4024 58 32.5136C57.9556 32.6024 57.6889 33.358 57.6667 33.4469C57.6445 33.5358 57.6889 33.6024 57.7333 33.6247C57.8667 33.6691 57.9778 33.7136 58.1556 33.758C58.4222 33.8247 58.6222 33.8247 58.8445 33.8247C59.2667 33.8247 59.6667 33.758 59.9778 33.6469C60.3111 33.5358 60.5778 33.3358 60.8445 33.0469C61.1111 32.758 61.2889 32.4469 61.4445 32.0024C61.6 31.5802 61.7334 31.0469 61.8445 30.4469L62.8889 24.5358H64.4223C64.4223 24.5358 64.5556 24.5358 64.5778 24.4024L64.7556 23.4469C64.7778 23.358 64.7334 23.2913 64.6 23.2913H63.1111C63.1111 23.2469 63.1778 22.7358 63.3556 22.2469C63.4223 22.0469 63.5556 21.8691 63.6889 21.758C63.8 21.6469 63.9334 21.558 64.0667 21.5136C64.2223 21.4691 64.3778 21.4469 64.5556 21.4469C64.6889 21.4469 64.8223 21.4691 64.9334 21.4913C65.0667 21.5136 65.1334 21.5358 65.1778 21.558C65.3334 21.6024 65.3556 21.558 65.3778 21.4913L65.7334 20.5136C65.8 20.3802 65.7111 20.3358 65.6667 20.3358Z" fill="white"/>
<path fill-rule="evenodd" clip-rule="evenodd" d="M44.9554 30.3582C44.9554 30.4248 44.911 30.4915 44.8221 30.4915H43.5999C43.5332 30.4915 43.4666 30.4248 43.4666 30.3582V20.4693C43.4666 20.4026 43.511 20.3359 43.5999 20.3359H44.8221C44.8888 20.3359 44.9554 20.4026 44.9554 20.4693V30.3582Z" fill="white"/>
<path d="M108.4 30.4913H106.489L102.6 20.3135H104.422L107.444 28.8024H107.511L110.444 20.3135H112.2L108.4 30.4913Z" fill="white"/>
<path d="M122.2 26.0027H114.644C114.711 27.0471 115.022 27.8693 115.578 28.4916C116.133 29.1138 116.933 29.4027 117.978 29.4027C118.6 29.4027 119.133 29.3138 119.622 29.1582C120.111 29.0027 120.6 28.736 121.089 28.4027L121.844 29.5138C121.267 29.936 120.667 30.2471 120.022 30.4471C119.378 30.6693 118.667 30.7582 117.867 30.7582C116.311 30.7582 115.089 30.2693 114.222 29.2693C113.356 28.2916 112.911 26.9582 112.911 25.336C112.911 24.2916 113.089 23.3582 113.467 22.5582C113.844 21.7582 114.378 21.136 115.089 20.6916C115.8 20.2471 116.667 20.0249 117.667 20.0249C119.156 20.0249 120.267 20.5138 121.067 21.4693C121.844 22.4249 122.244 23.7138 122.244 25.2916C122.222 25.6027 122.222 25.8471 122.2 26.0027ZM120.578 24.6916C120.556 23.6693 120.289 22.8693 119.8 22.2471C119.311 21.6249 118.6 21.336 117.667 21.336C116.711 21.336 115.978 21.6471 115.467 22.2916C114.956 22.936 114.667 23.736 114.622 24.6916H120.578Z" fill="white"/>
<path d="M124.155 22.6024C124.155 21.8469 124.111 21.0913 124.022 20.3135H125.644C125.711 20.6691 125.755 21.158 125.778 21.758H125.822C126.155 21.2469 126.622 20.8247 127.222 20.5135C127.822 20.2024 128.533 20.0469 129.355 20.0469C130.644 20.0469 131.578 20.4247 132.2 21.158C132.822 21.8913 133.133 22.8247 133.133 23.9358V30.5135H131.444V24.2691C131.444 23.4469 131.244 22.7802 130.844 22.2691C130.444 21.7358 129.8 21.4691 128.911 21.4691C128 21.4691 127.244 21.7802 126.711 22.3802C126.155 22.9802 125.889 23.758 125.889 24.6691V30.5135H124.2V22.6024H124.155Z" fill="white"/>
<path d="M137.911 20.3137H140.6V21.6026H137.911V27.736C137.911 28.8249 138.4 29.3804 139.422 29.3804C139.778 29.3804 140.111 29.336 140.422 29.2471L140.689 30.5138C140.244 30.6915 139.711 30.7804 139.111 30.7804C138.222 30.7804 137.511 30.536 137 30.0249C136.489 29.536 136.222 28.8249 136.222 27.8915V21.6026H134.422V20.4915L136.2 20.2915V17.8026L137.911 17.2026V20.3137Z" fill="white"/>
<path d="M142.133 26.558V20.3135H143.844V26.3135C143.844 27.2469 144.044 28.0024 144.444 28.558C144.844 29.1357 145.489 29.4024 146.333 29.4024C147.267 29.4024 148.022 29.0469 148.578 28.358C149.133 27.6469 149.422 26.7802 149.422 25.758V20.3135H151.133V28.2246C151.133 28.958 151.178 29.7135 151.267 30.4913H149.644C149.578 30.0691 149.533 29.5357 149.511 28.8691H149.467C148.733 30.1358 147.556 30.758 145.956 30.758C144.689 30.758 143.733 30.358 143.089 29.5802C142.467 28.8246 142.133 27.8024 142.133 26.558Z" fill="white"/>
<path d="M153.978 22.6027C153.978 21.8471 153.933 21.0916 153.844 20.3138H155.467C155.533 20.7582 155.578 21.3138 155.6 21.936H155.644C156.222 20.6693 157.289 20.0249 158.844 20.0249C158.956 20.0249 159.133 20.0471 159.422 20.0916L159.311 21.5582C159.178 21.536 158.978 21.5138 158.689 21.5138C157.711 21.5138 156.978 21.8471 156.444 22.4916C155.933 23.136 155.667 24.0027 155.667 25.0249V30.4916H153.956V22.6027H153.978Z" fill="white"/>
<path d="M169.422 26.0027H161.867C161.933 27.0471 162.244 27.8693 162.8 28.4916C163.356 29.1138 164.156 29.4027 165.2 29.4027C165.822 29.4027 166.356 29.3138 166.844 29.1582C167.333 29.0027 167.822 28.736 168.311 28.4027L169.067 29.5138C168.489 29.936 167.889 30.2471 167.244 30.4471C166.6 30.6693 165.889 30.7582 165.089 30.7582C163.533 30.7582 162.311 30.2693 161.444 29.2693C160.578 28.2916 160.133 26.9582 160.133 25.336C160.133 24.2916 160.311 23.3582 160.689 22.5582C161.067 21.7582 161.6 21.136 162.311 20.6916C163.022 20.2471 163.889 20.0249 164.889 20.0249C166.378 20.0249 167.489 20.5138 168.289 21.4693C169.067 22.4249 169.467 23.7138 169.467 25.2916C169.467 25.6027 169.444 25.8471 169.422 26.0027ZM167.8 24.6916C167.778 23.6693 167.511 22.8693 167.022 22.2471C166.533 21.6249 165.822 21.336 164.889 21.336C163.933 21.336 163.2 21.6471 162.689 22.2916C162.178 22.936 161.889 23.736 161.844 24.6916H167.8Z" fill="white"/>
<path d="M177.778 21.114L177.022 22.1807C176.244 21.6251 175.378 21.3584 174.467 21.3584C173.822 21.3584 173.333 21.4918 172.955 21.7362C172.6 21.9807 172.422 22.3362 172.422 22.7807C172.422 23.114 172.489 23.3807 172.644 23.6029C172.8 23.8251 173.044 24.0029 173.378 24.1362C173.733 24.2918 174.222 24.4473 174.889 24.6029C175.933 24.8473 176.689 25.2251 177.2 25.714C177.689 26.2029 177.955 26.8473 177.955 27.6251C177.955 28.6251 177.578 29.4029 176.844 29.9584C176.089 30.514 175.178 30.7807 174.089 30.7807C172.622 30.7807 171.4 30.3807 170.4 29.6029L171.178 28.5362C171.622 28.8473 172.067 29.0696 172.511 29.2251C172.955 29.3807 173.444 29.4473 174.022 29.4473C174.711 29.4473 175.244 29.2918 175.622 29.0029C176.022 28.714 176.222 28.2918 176.222 27.7362C176.222 27.3807 176.155 27.0918 176 26.8696C175.844 26.6473 175.6 26.4696 175.267 26.314C174.933 26.1584 174.422 26.0029 173.733 25.8251C172.689 25.5584 171.911 25.2029 171.444 24.7362C170.955 24.2918 170.733 23.6473 170.733 22.8473C170.733 21.9807 171.067 21.2918 171.733 20.7807C172.4 20.2696 173.289 20.0029 174.4 20.0029C175.711 20.0251 176.844 20.4029 177.778 21.114Z" fill="white"/>
<path d="M190.231 30.7148C192.091 30.7148 193.336 29.6648 193.636 28.0148H192.331C192.091 28.9898 191.341 29.6198 190.246 29.6198C188.776 29.6198 187.786 28.4798 187.786 26.8148C187.786 25.1498 188.776 23.9798 190.246 23.9798C191.371 23.9798 192.121 24.5948 192.346 25.6148H193.636C193.321 23.9348 192.136 22.8848 190.261 22.8848C188.041 22.8848 186.526 24.4748 186.526 26.8148C186.526 29.1998 187.996 30.7148 190.231 30.7148ZM198.509 30.7148C200.744 30.7148 202.304 29.1248 202.304 26.7998C202.304 24.4748 200.744 22.8848 198.509 22.8848C196.274 22.8848 194.714 24.4748 194.714 26.7998C194.714 29.1248 196.274 30.7148 198.509 30.7148ZM198.509 29.6198C196.994 29.6198 195.974 28.4348 195.974 26.7998C195.974 25.1648 196.994 23.9798 198.509 23.9798C200.024 23.9798 201.044 25.1648 201.044 26.7998C201.044 28.4348 200.024 29.6198 198.509 29.6198ZM212.25 22.8848C210.885 22.8848 210.06 23.5148 209.595 24.3398C209.16 23.3648 208.245 22.8848 207.18 22.8848C205.995 22.8848 205.35 23.4698 204.945 24.0248L204.78 22.9748H203.715V30.6248H204.945V26.5898C204.945 25.0598 205.71 24.0098 206.97 24.0098C208.14 24.0098 208.815 24.7898 208.815 26.2898V30.6248H210.045V26.5298C210.045 24.9698 210.825 24.0098 212.1 24.0098C213.255 24.0098 213.915 24.7898 213.915 26.2898V30.6248H215.145V26.2148C215.145 23.7998 213.84 22.8848 212.25 22.8848ZM220.577 22.8848C219.287 22.8848 218.462 23.4998 217.952 24.2048L217.787 22.9748H216.722V33.6248H217.952V29.4548C218.417 30.1898 219.287 30.7148 220.577 30.7148C222.692 30.7148 224.252 29.1398 224.252 26.7998C224.252 24.3098 222.692 22.8848 220.577 22.8848ZM220.457 29.6198C218.957 29.6198 217.937 28.4498 217.937 26.7698C217.937 25.1348 218.957 23.9798 220.457 23.9798C221.972 23.9798 222.992 25.1348 222.992 26.7998C222.992 28.4648 221.972 29.6198 220.457 29.6198ZM232.423 29.4998C232.078 29.4998 231.928 29.3948 231.928 28.9898V25.6448C231.928 23.8598 230.803 22.8848 228.853 22.8848C227.008 22.8848 225.793 23.7698 225.613 25.2698H226.843C226.993 24.4898 227.713 23.9798 228.793 23.9798C229.993 23.9798 230.698 24.5798 230.698 25.5698V26.0948H228.448C226.438 26.0948 225.373 26.9498 225.373 28.4798C225.373 29.8748 226.513 30.7148 228.193 30.7148C229.513 30.7148 230.278 30.1298 230.758 29.4398C230.773 30.1898 231.118 30.6248 232.138 30.6248H232.813V29.4998H232.423ZM230.698 27.5048C230.698 28.7798 229.813 29.6648 228.283 29.6648C227.263 29.6648 226.618 29.1548 226.618 28.4048C226.618 27.5348 227.233 27.1298 228.328 27.1298H230.698V27.5048ZM237.508 22.8848C236.218 22.8848 235.438 23.4248 234.988 24.0098L234.823 22.9748H233.758V30.6248H234.988V26.7998C234.988 25.0748 235.858 24.0098 237.298 24.0098C238.633 24.0098 239.368 24.8498 239.368 26.4398V30.6248H240.598V26.3648C240.598 23.8298 239.233 22.8848 237.508 22.8848ZM244.108 30.6698L243.733 31.5998C243.448 32.3198 243.328 32.4998 242.623 32.4998H241.528V33.6248H242.998C244.078 33.6248 244.363 33.1448 244.843 31.9148L248.368 22.9748H247.063L244.783 29.0798L242.428 22.9748H241.123L244.108 30.6698Z" fill="#949494"/>
</g>
<defs>
<clipPath id="clip0_1_1712">
<rect width="249" height="56" fill="white" transform="translate(0 0.625)"/>
</clipPath>
</defs>
</svg>
