<svg width="136" height="40" viewBox="0 0 136 40" fill="none" xmlns="http://www.w3.org/2000/svg">
<g clip-path="url(#clip0_1_1063)" filter="url(#filter0_d_1_1063)">
<path fill-rule="evenodd" clip-rule="evenodd" d="M9.34705 2.25235e-07H30.6529C32.0713 -0.000411169 33.4319 0.562755 34.4349 1.56557C35.438 2.56838 36.0016 3.92865 36.0016 5.34705V26.6513C36.0016 29.6054 33.6068 32 30.6529 32H9.34705C6.3937 31.9991 4 29.6048 4 26.6513V5.34705C4 2.39395 6.39395 2.25235e-07 9.34705 2.25235e-07ZM28.4995 26.1825C29.4316 26.1825 30.1872 25.4269 30.1872 24.4948L30.1825 7.50666C30.1825 6.5746 29.4269 5.81903 28.4948 5.81903H11.5082C11.0604 5.81903 10.6309 5.99705 10.3143 6.31388C9.99779 6.63071 9.82017 7.06036 9.82058 7.50822V24.4948C9.82058 25.4269 10.5762 26.1825 11.5082 26.1825H28.4995Z" fill="white"/>
<path d="M16.6056 20.3388C16.0736 20.3346 15.6445 19.9022 15.6445 19.3701V12.5884C15.6433 12.3307 15.7448 12.0831 15.9267 11.9004C16.1085 11.7177 16.3556 11.615 16.6133 11.615H23.4043C23.6619 11.6154 23.9088 11.7182 24.0906 11.9008C24.2723 12.0835 24.3739 12.3308 24.3731 12.5884V19.3685C24.3739 19.6261 24.2723 19.8735 24.0906 20.0561C23.9088 20.2387 23.6619 20.3416 23.4043 20.342L16.6056 20.3388Z" fill="white"/>
<path d="M52.2852 14.5736C51.2946 14.3035 50.3569 14.0489 49.6287 13.7244C48.2811 13.122 47.6539 12.2867 47.6539 11.0974C47.6539 8.84932 49.8274 7.83705 51.9918 7.83705C54.0488 7.83705 55.8452 8.68786 57.0516 10.2311L57.1338 10.3367L58.8727 8.97664L58.7889 8.87107C57.1851 6.83099 54.8097 5.71313 52.0972 5.71313C50.2917 5.71313 48.6366 6.20064 47.4396 7.08716C46.092 8.07303 45.3809 9.50295 45.3809 11.2092C45.3809 15.1761 49.1163 16.1432 52.1191 16.9211C55.1575 17.7223 57.019 18.3309 57.019 20.6472C57.019 22.928 55.1745 24.4014 52.3208 24.4014C50.9096 24.4014 48.2967 24.0273 46.654 21.5184L46.578 21.4002L44.749 22.7246L44.8204 22.8318C46.373 25.1824 49.0527 26.5316 52.1812 26.5316C56.4305 26.5316 59.2872 24.1328 59.2872 20.565C59.2872 16.4817 55.4027 15.4244 52.2852 14.5736Z" fill="white"/>
<path fill-rule="evenodd" clip-rule="evenodd" d="M73.1477 13.7497V11.6025H75.1923V31.9971H73.1477V24.0293C71.9801 25.63 70.2289 26.5056 68.1701 26.5056C64.2825 26.5056 61.5654 23.3928 61.5654 18.8981C61.5654 14.4034 64.2886 11.2656 68.1701 11.2656C70.2149 11.2656 71.9662 12.1459 73.1477 13.7497ZM63.7205 18.8732C63.7205 23.0341 66.1036 24.5168 68.3346 24.5168L68.3392 24.5183C71.2597 24.5183 73.1477 22.2826 73.1477 18.8732C73.1477 15.4637 71.2566 13.2591 68.3346 13.2591C64.933 13.2591 63.7205 16.1593 63.7205 18.8732Z" fill="white"/>
<path d="M88.7107 11.6023V19.6523C88.7107 22.4703 86.7808 24.5166 84.1227 24.5166C81.915 24.5166 80.8407 23.2062 80.8407 20.5125V11.6023H78.7959V20.9301C78.7959 24.4234 80.6947 26.5084 83.8743 26.5084C85.8554 26.5084 87.5571 25.6686 88.7121 24.133V26.1762H90.7569V11.6023H88.7107Z" fill="white"/>
<path fill-rule="evenodd" clip-rule="evenodd" d="M94.6086 13.1329C96.1161 11.9482 98.1623 11.2698 100.219 11.2698C103.469 11.2698 105.408 12.886 105.402 15.5968V26.1792H103.356V24.5629C102.323 25.8561 100.83 26.5114 98.9076 26.5114C95.776 26.5114 93.8291 24.7988 93.8291 22.0446C93.8291 18.4628 97.2044 17.9008 98.6422 17.6616C98.8765 17.6229 99.1187 17.5857 99.3607 17.5483H99.361L99.3697 17.547C101.334 17.2446 103.362 16.9326 103.362 15.2661C103.362 13.3797 100.913 13.2338 100.164 13.2338C98.8393 13.2338 96.9684 13.6266 95.6969 14.7288L95.5805 14.8298L94.5123 13.2089L94.6086 13.1329ZM95.9639 21.9297C95.9639 24.2648 98.1623 24.5178 99.1079 24.5178H99.1094C101.165 24.5178 103.365 23.4218 103.36 20.3415V18.233C102.363 18.8629 100.944 19.109 99.6774 19.3285L99.656 19.3323L99.0209 19.4456C96.9933 19.8213 95.9639 20.3057 95.9639 21.9297Z" fill="white"/>
<path d="M117.247 11.8767C116.761 11.5305 115.995 11.324 115.197 11.324C113.557 11.3455 112.023 12.1361 111.053 13.4588V11.5957H109.009V26.1681H111.053V18.3742C111.053 14.9182 112.996 13.3703 114.919 13.3703C115.482 13.3627 116.04 13.481 116.551 13.7165L116.689 13.7895L117.337 11.9357L117.247 11.8767Z" fill="white"/>
<path fill-rule="evenodd" clip-rule="evenodd" d="M117.847 18.9285C117.847 14.4199 120.658 11.2698 124.678 11.2698C128.55 11.2698 131.256 14.0659 131.248 18.0762C131.247 18.4248 131.228 18.773 131.191 19.1195L131.178 19.2391H120C120.051 22.4482 121.983 24.5178 124.946 24.5178C126.645 24.5178 128.117 23.827 129.09 22.5709L129.179 22.4561L130.66 23.7757L130.578 23.875C129.593 25.0752 127.799 26.5067 124.833 26.5067C120.657 26.5067 117.847 23.4621 117.847 18.9285ZM124.622 13.2322C122.124 13.2322 120.352 14.8763 120.076 17.4366H129.087C128.91 15.3778 127.653 13.2322 124.622 13.2322Z" fill="white"/>
</g>
<defs>
<filter id="filter0_d_1_1063" x="0" y="0" width="136" height="40" filterUnits="userSpaceOnUse" color-interpolation-filters="sRGB">
<feFlood flood-opacity="0" result="BackgroundImageFix"/>
<feColorMatrix in="SourceAlpha" type="matrix" values="0 0 0 0 0 0 0 0 0 0 0 0 0 0 0 0 0 0 127 0" result="hardAlpha"/>
<feOffset dy="4"/>
<feGaussianBlur stdDeviation="2"/>
<feComposite in2="hardAlpha" operator="out"/>
<feColorMatrix type="matrix" values="0 0 0 0 0 0 0 0 0 0 0 0 0 0 0 0 0 0 0.25 0"/>
<feBlend mode="normal" in2="BackgroundImageFix" result="effect1_dropShadow_1_1063"/>
<feBlend mode="normal" in="SourceGraphic" in2="effect1_dropShadow_1_1063" result="shape"/>
</filter>
<clipPath id="clip0_1_1063">
<rect width="128" height="32" fill="white" transform="translate(4)"/>
</clipPath>
</defs>
</svg>
