<svg width="40" height="41" viewBox="0 0 40 41" fill="none" xmlns="http://www.w3.org/2000/svg">
<path d="M19.9985 38.9667L27.3675 16.2998H12.6403L19.9985 38.9667Z" fill="#E24329"/>
<path d="M2.3188 16.2998L0.0747619 23.1863C-0.128304 23.8116 0.0909933 24.5019 0.626974 24.8917L19.9987 38.9666L2.3188 16.2998Z" fill="#FCA326"/>
<path d="M2.31885 16.3H12.6404L8.19828 2.64881C7.97093 1.9504 6.98013 1.9504 6.7446 2.64881L2.31885 16.3Z" fill="#E24329"/>
<path d="M37.6892 16.2998L39.9252 23.1863C40.1283 23.8116 39.909 24.5019 39.373 24.8917L19.9985 38.9666L37.6892 16.2998Z" fill="#FCA326"/>
<path d="M37.6892 16.3H27.3677L31.8016 2.64881C32.029 1.9504 33.0198 1.9504 33.2553 2.64881L37.6892 16.3Z" fill="#E24329"/>
<path d="M19.9985 38.9666L27.3676 16.2998H37.6892L19.9985 38.9666Z" fill="#FC6D26"/>
<path d="M19.9986 38.9666L2.31885 16.2998H12.6404L19.9986 38.9666Z" fill="#FC6D26"/>
</svg>
