<svg width="40" height="41" viewBox="0 0 40 41" fill="none" xmlns="http://www.w3.org/2000/svg">
<path d="M38.7317 28.6067C39.2195 29.2896 39.122 30.1677 38.5366 30.6555C37.8537 31.1433 36.878 31.0457 36.3902 30.4604L32.9756 26.0701L29.6585 30.3628C29.1707 31.0457 28.1951 31.0457 27.5122 30.5579C26.8293 30.0701 26.7317 29.1921 27.2195 28.5091L31.122 23.436L27.2195 18.3628C26.7317 17.6799 26.9268 16.7043 27.5122 16.2165C28.1951 15.7287 29.1707 15.9238 29.6585 16.5091L32.9756 20.8994L36.3902 16.7043C36.878 16.0213 37.7561 15.9238 38.5366 16.4116C39.2195 16.8994 39.2195 17.875 38.7317 18.5579L34.9268 23.5335L38.7317 28.6067ZM20.9756 28.0213C18.439 28.0213 16.3902 26.0701 16.3902 23.5335C16.3902 21.0945 18.439 19.0457 20.9756 19.0457C23.5122 19.0457 25.561 21.0945 25.561 23.5335C25.4634 26.0701 23.4146 28.0213 20.9756 28.0213ZM7.5122 28.0213C4.97561 28.0213 2.92683 26.0701 2.92683 23.5335C2.92683 21.0945 4.97561 19.0457 7.5122 19.0457C10.0488 19.0457 12.0976 21.0945 12.0976 23.5335C12.0976 26.0701 10.0488 28.0213 7.5122 28.0213ZM20.9756 16.1189C18.1463 16.1189 15.6098 17.6799 14.3415 20.0213C13.0732 17.6799 10.5366 16.1189 7.60976 16.1189C5.85366 16.1189 4.29268 16.7043 3.02439 17.5823V11.3384C3.02439 10.5579 2.34146 9.875 1.56098 9.875C0.682927 9.875 0 10.5579 0 11.3384V23.6311C0.097561 27.7287 3.41463 30.9482 7.5122 30.9482C10.439 30.9482 12.9756 29.2896 14.2439 26.9482C15.5122 29.2896 18.0488 30.9482 20.878 30.9482C25.0732 30.9482 28.4878 27.6311 28.4878 23.436C28.5854 19.436 25.1707 16.1189 20.9756 16.1189Z" fill="#0071F7"/>
</svg>
