<svg width="40" height="41" viewBox="0 0 40 41" fill="none" xmlns="http://www.w3.org/2000/svg">
<path d="M2.90278 30.4722C1.30556 30.4722 0 31.7777 0 33.375C0 34.9722 1.30556 36.2777 2.90278 36.2777C4.5 36.2777 5.80556 34.9722 5.80556 33.375C5.80556 31.7777 4.51389 30.4722 2.90278 30.4722Z" fill="#6515DD"/>
<path d="M38.6389 5.125L20.3611 10.9583V5.19444L0.652771 11.4861V28.1944L17.6528 22.7639V28.5L40 21.375L33.9444 15.4583L38.6389 5.125ZM17.6528 19.9028L3.37499 24.4583V13.4722L17.6528 8.91667V19.9028ZM34.9444 20.1389L20.3611 24.7917V13.8194L33.7917 9.52778L30.7083 16.0278L34.9444 20.1389Z" fill="#6515DD"/>
</svg>
