<svg width="40" height="41" viewBox="0 0 40 41" fill="none" xmlns="http://www.w3.org/2000/svg">
<g clip-path="url(#clip0_1_1686)">
<path d="M25.4566 13.5163L26.7392 13.538L30.2174 10.0598L30.3914 8.58152C27.6305 6.125 23.9783 4.625 20.0001 4.625C12.7827 4.625 6.69571 9.53804 4.89136 16.1902C5.28266 15.9293 6.08701 16.125 6.08701 16.125L13.0435 14.9728C13.0435 14.9728 13.4131 14.3859 13.587 14.4076C15.174 12.6685 17.4566 11.5815 20.0001 11.5815C22.0653 11.5815 23.9566 12.2989 25.4566 13.5163Z" fill="#EA4335"/>
<path d="M35.1088 16.1902C34.3044 13.212 32.6305 10.5815 30.3914 8.58154L25.4566 13.5163C27.4348 15.1033 28.6957 17.5381 28.6957 20.2772V21.1468C31.087 21.1468 33.0435 23.1033 33.0435 25.4946C33.0435 27.8859 31.087 29.8424 28.6957 29.8424H20.0001L19.1305 30.712V35.9294L20.0001 36.7989H28.6957C34.9348 36.7989 40.0001 31.7337 40.0001 25.4946C40.0001 21.6468 38.0653 18.2337 35.1088 16.1902Z" fill="#4285F4"/>
<path d="M11.3044 36.7986H20V29.842H11.3044C10.6739 29.842 10.0652 29.6899 9.52175 29.4507L8.26088 29.842L4.78262 33.3203L4.47827 34.4942C6.36958 35.929 8.73914 36.7986 11.3044 36.7986Z" fill="#34A853"/>
<path d="M11.3043 14.1904C5.06522 14.1904 0 19.2556 0 25.4947C0 29.1686 1.76087 32.4295 4.47826 34.4947L9.52174 29.4513C8 28.7773 6.95652 27.2556 6.95652 25.4947C6.95652 23.1034 8.91304 21.1469 11.3043 21.1469C13.0652 21.1469 14.587 22.1904 15.2609 23.7121L20.3043 18.6686C18.2391 15.9513 14.9783 14.1904 11.3043 14.1904Z" fill="#FBBC05"/>
</g>
<defs>
<clipPath id="clip0_1_1686">
<rect width="40" height="40" fill="white" transform="translate(0 0.625)"/>
</clipPath>
</defs>
</svg>
