<svg width="40" height="41" viewBox="0 0 40 41" fill="none" xmlns="http://www.w3.org/2000/svg">
<path d="M31.3553 21.5807C26.5804 21.5807 22.7102 25.452 22.7102 30.2276C22.7102 35.0035 26.5804 38.875 31.3553 38.875C36.1296 38.875 40 35.0035 40 30.2276C40 25.452 36.1296 21.5807 31.3553 21.5807ZM8.89489 21.5813C4.12059 21.5813 0.25 25.452 0.25 30.228C0.25 35.0035 4.12059 38.875 8.89489 38.875C13.6695 38.875 17.5402 35.0035 17.5402 30.228C17.5402 25.452 13.6695 21.5813 8.89489 21.5813ZM28.7697 10.7718C28.7697 15.5474 24.8995 19.4196 20.1252 19.4196C15.3505 19.4196 11.4802 15.5474 11.4802 10.7718C11.4802 5.99652 15.3505 2.125 20.1252 2.125C24.8995 2.125 28.7697 5.99652 28.7697 10.7718Z" fill="url(#paint0_radial_1_1691)"/>
<defs>
<radialGradient id="paint0_radial_1_1691" cx="0" cy="0" r="1" gradientUnits="userSpaceOnUse" gradientTransform="translate(20.125 22.2097) scale(26.3397 24.3518)">
<stop stop-color="#FFB900"/>
<stop offset="0.6" stop-color="#F95D8F"/>
<stop offset="0.9991" stop-color="#F95353"/>
</radialGradient>
</defs>
</svg>
