<svg width="40" height="41" viewBox="0 0 40 41" fill="none" xmlns="http://www.w3.org/2000/svg">
<g clip-path="url(#clip0_1_1696)">
<path fill-rule="evenodd" clip-rule="evenodd" d="M20 0.625C8.95705 0.625 -7.69149e-08 9.80739 0 21.1281C6.15313e-08 30.1847 5.76688 37.8577 13.6196 40.625C14.6013 40.7508 14.9694 40.1219 14.9694 39.6188C14.9694 39.1156 14.9694 37.8577 14.9694 36.0967C9.44785 37.3546 8.22086 33.3294 8.22086 33.3294C7.36196 30.9395 6.01228 30.3105 6.01228 30.3105C4.17178 29.0526 6.13497 29.0526 6.13497 29.0526C8.09816 29.1785 9.20245 31.191 9.20245 31.191C11.0429 34.3358 13.865 33.4552 14.9694 32.952C15.092 31.5684 15.7055 30.6879 16.1964 30.1847C11.7791 29.6816 7.11656 27.9206 7.11656 19.9961C7.11656 17.7319 7.85276 15.9709 9.20245 14.4615C9.07975 14.0841 8.34356 11.9458 9.44785 9.17846C9.44785 9.17846 11.1657 8.67531 14.9694 11.3168C16.5644 10.8137 18.2822 10.6879 20 10.6879C21.7178 10.6879 23.4356 10.9395 25.0306 11.3168C28.8344 8.67531 30.5521 9.17846 30.5521 9.17846C31.6565 11.9458 30.9202 14.0841 30.7975 14.5872C32.0245 15.9709 32.8835 17.8577 32.8835 20.1219C32.8835 28.0464 28.2209 29.6816 23.8036 30.1847C24.5399 30.8136 25.1534 32.0715 25.1534 33.9584C25.1534 36.7256 25.1534 38.864 25.1534 39.6188C25.1534 40.1219 25.5215 40.7508 26.5031 40.625C34.4785 37.8577 40.1228 30.1847 40.1228 21.1281C40 9.80739 31.043 0.625 20 0.625Z" fill="#FFFEF8"/>
</g>
<defs>
<clipPath id="clip0_1_1696">
<rect width="40" height="40" fill="white" transform="translate(0 0.625)"/>
</clipPath>
</defs>
</svg>
